<?xml version="1.0" encoding="utf-8"?>
<!-- Generator: Adobe Illustrator 25.2.3, SVG Export Plug-In . SVG Version: 6.00 Build 0)  -->
<svg version="1.1" id="Layer_1" xmlns="http://www.w3.org/2000/svg" xmlns:xlink="http://www.w3.org/1999/xlink" x="0px" y="0px"
	 width="20px" height="19px" viewBox="0 0 20 19" style="enable-background:new 0 0 20 19;" xml:space="preserve">
<g>
	<path d="M18.6,0.9H1.4c-0.7,0-1.2,0.5-1.2,1.2v2.5h19.6V2.1C19.8,1.5,19.3,0.9,18.6,0.9z"/>
	<path d="M1.4,16.9c0,0.7,0.5,1.2,1.2,1.2h14.7c0.7,0,1.2-0.5,1.2-1.2v-11H1.4V16.9z M8.2,8.3h3.7c0.7,0,1.2,0.5,1.2,1.2
		s-0.5,1.2-1.2,1.2H8.2C7.5,10.7,7,10.2,7,9.5S7.5,8.3,8.2,8.3z"/>
</g>
</svg>
