<?xml version="1.0" encoding="utf-8"?>
<!-- Generator: Adobe Illustrator 25.2.0, SVG Export Plug-In . SVG Version: 6.00 Build 0)  -->
<svg version="1.1" id="Layer_1" xmlns="http://www.w3.org/2000/svg" xmlns:xlink="http://www.w3.org/1999/xlink" x="0px" y="0px"
	 viewBox="0 0 243 220" style="enable-background:new 0 0 243 220;" xml:space="preserve">
<style type="text/css">
	.st0{fill:#E6E7E8;}
	.st1{fill:#D1D3D4;}
	.st2{fill:#98D2DA;}
	.st3{fill:#F5F5F5;}
	.st4{fill:#00AFC2;}
	.st5{fill:#ABDDDB;}
	.st6{fill:#BCBEC0;}
	.st7{fill:#262262;}
	.st8{fill:#81CFD0;}
	.st9{fill:#F47920;}
	.st10{fill:#F68B1F;}
	.st11{fill:#F7941D;}
	.st12{fill:#302F75;}
	.st13{fill:#F7BC43;}
	.st14{fill:#F26D62;}
	.st15{fill:#C62F27;}
	.st16{fill:#D53F32;}
	.st17{fill:#EF8839;}
	.st18{fill:#F3AB43;}
	.st19{fill:#D5E5E5;}
	.st20{fill:#FFFFFF;}
	.st21{fill:#95A5A6;}
	.st22{fill:#B5C5C6;}
	.st23{fill:#A6B6B7;}
</style>
<g>
	<g>
		<path class="st5" d="M143.9,70.6c-9,0-17,4.2-22.2,10.7c-2-0.7-4.2-1.2-6.5-1.2c-10.6,0-19.1,8.5-19.1,19.1h76.6
			C172.7,83.4,159.8,70.6,143.9,70.6"/>
	</g>
	<g>
		<path class="st0" d="M218.9,43.8c-6.8,0-12.9,3.2-16.8,8.1c-1.5-0.5-3.2-0.9-4.9-0.9c-8,0-14.5,6.5-14.5,14.4h58
			C240.6,53.4,230.9,43.8,218.9,43.8"/>
	</g>
	<g>
		<path class="st0" d="M95.9,71.9c-5.1,0-9.5,2.4-12.5,6c-1.1-0.4-2.4-0.7-3.6-0.7C73.9,77.3,69,82.1,69,88h43
			C112.1,79.1,104.8,71.9,95.9,71.9"/>
	</g>
	<g>
		<path class="st0" d="M44.8,0.7c-5.4,0-10.1,2.5-13.2,6.4c-1.2-0.4-2.5-0.7-3.8-0.7c-6.3,0-11.4,5.1-11.4,11.3h45.6
			C61.9,8.3,54.2,0.7,44.8,0.7"/>
	</g>
	<g>
		<path class="st1" d="M240.6,220H3.9c-1.3,0-2.4-1.1-2.4-2.4c0-1.3,1.1-2.4,2.4-2.4h236.8c1.3,0,2.4,1.1,2.4,2.4
			C243,218.9,241.9,220,240.6,220z"/>
	</g>
	<g>
		<path class="st13" d="M13.7,152.6l14.3-18.3c111.1-13.7,144.4,13.9,144.4,13.9c3.4,3,9.3,4.4,9.3,4.4c45-1,59.4,26.1,59.4,26.1
			v19.9c-7.7,9.3-26.9,6.2-26.9,6.2l-154.5-0.8C24.8,204.3,0,190.8,0,190.8L1.8,175l6.3-8.6l2-10.7L13.7,152.6z"/>
	</g>
	<g>
		<path class="st11" d="M241.1,178.8c0,0-0.3-0.5-0.8-1.3c-38.2-23.1-79.4-15.4-79.4-15.4c-66.6,8-128-6.7-145.9-11.2l-1.3,1.7
			l-3.6,3l-2,10.7L1.8,175L0,190.8c0,0,24.8,13.5,59.8,13.3l154.5,0.8c0,0,19.2,3,26.9-6.2V178.8z"/>
	</g>
	<g>
		<path class="st7" d="M61.2,195.5c0-12.2-9.9-22-22.1-22c-12.2,0-22.1,9.9-22.1,22c0,0.7,0,1.4,0.1,2.1c10.5,3.3,25.2,6.5,42.4,6.5
			C60.6,201.5,61.2,198.6,61.2,195.5"/>
	</g>
	<g>
		<path class="st7" d="M198,172.9c-12.5,0-22.7,10.1-22.7,22.6c0,3.3,0.7,6.4,2,9.2l37,0.2c0,0,1.6,0.3,4.1,0.4
			c1.4-3,2.3-6.3,2.3-9.8C220.7,183.1,210.5,172.9,198,172.9"/>
	</g>
	<g>
		<path class="st12" d="M59.2,195.5c0,11.1-9,20.1-20.1,20.1c-11.1,0-20.1-9-20.1-20.1c0-11.1,9-20.1,20.1-20.1
			C50.2,175.5,59.2,184.4,59.2,195.5"/>
	</g>
	<g>
		<path class="st12" d="M218.1,195.5c0,11.1-9,20.1-20.1,20.1c-11.1,0-20.1-9-20.1-20.1c0-11.1,9-20.1,20.1-20.1
			C209.1,175.5,218.1,184.4,218.1,195.5"/>
	</g>
	<g>
		<path class="st8" d="M30.8,137.1c112.2-13,135.3,12.7,135.3,12.7l0.5,5.2C29.2,166.4,30.8,137.1,30.8,137.1"/>
	</g>
	<g>
		<polygon class="st13" points="63.2,133.3 61.3,131.9 46.1,152 48.1,153.4 		"/>
	</g>
	<g>
		
			<rect x="103.5" y="132.9" transform="matrix(0.9979 -6.495967e-02 6.495967e-02 0.9979 -9.2736 7.1384)" class="st13" width="3.2" height="26.6"/>
	</g>
	<g>
		<path class="st12" d="M112.1,164.4v1.3v0.1c0,1.1,0.9,2.1,2.1,2.1h9.6c1.1,0,2.1-0.9,2.1-2.1v-0.1v-1.3H112.1z"/>
	</g>
	<g>
		<path class="st12" d="M53.5,159.1l-0.2,1.3l0,0.1c-0.1,1.1,0.7,2.2,1.8,2.3l9.5,1.2c1.1,0.2,2.2-0.6,2.3-1.8l0-0.1l0.2-1.3
			L53.5,159.1z"/>
	</g>
	<g>
		<path class="st1" d="M54.7,195.5c0,8.6-7,15.5-15.6,15.5c-8.6,0-15.6-6.9-15.6-15.5c0-8.6,7-15.5,15.6-15.5
			C47.7,180,54.7,186.9,54.7,195.5"/>
	</g>
	<g>
		<path class="st0" d="M48.9,195.5c0,5.4-4.4,9.8-9.8,9.8c-5.4,0-9.8-4.4-9.8-9.8c0-5.4,4.4-9.8,9.8-9.8
			C44.5,185.7,48.9,190.1,48.9,195.5"/>
	</g>
	<g>
		<path class="st1" d="M213.6,195.5c0,8.6-7,15.5-15.6,15.5s-15.6-6.9-15.6-15.5c0-8.6,7-15.5,15.6-15.5S213.6,186.9,213.6,195.5"/>
	</g>
	<g>
		<path class="st0" d="M207.8,195.5c0,5.4-4.4,9.8-9.8,9.8c-5.4,0-9.8-4.4-9.8-9.8c0-5.4,4.4-9.8,9.8-9.8
			C203.4,185.7,207.8,190.1,207.8,195.5"/>
	</g>
</g>
</svg>
