<?xml version="1.0" encoding="utf-8"?>
<!-- Generator: Adobe Illustrator 25.2.0, SVG Export Plug-In . SVG Version: 6.00 Build 0)  -->
<svg version="1.1" id="Layer_1" xmlns="http://www.w3.org/2000/svg" xmlns:xlink="http://www.w3.org/1999/xlink" x="0px" y="0px"
	 viewBox="0 0 243 220" style="enable-background:new 0 0 243 220;" xml:space="preserve">
<style type="text/css">
	.st0{fill:#E6E7E8;}
	.st1{fill:#D1D3D4;}
	.st2{fill:#98D2DA;}
	.st3{fill:#F5F5F5;}
	.st4{fill:#00AFC2;}
	.st5{fill:#ABDDDB;}
	.st6{fill:#BCBEC0;}
	.st7{fill:#262262;}
	.st8{fill:#81CFD0;}
	.st9{fill:#F47920;}
	.st10{fill:#F68B1F;}
	.st11{fill:#F7941D;}
	.st12{fill:#302F75;}
	.st13{fill:#F7BC43;}
	.st14{fill:#F26D62;}
	.st15{fill:#C62F27;}
	.st16{fill:#D53F32;}
	.st17{fill:#EF8839;}
	.st18{fill:#F3AB43;}
	.st19{fill:#D5E5E5;}
	.st20{fill:#FFFFFF;}
	.st21{fill:#95A5A6;}
	.st22{fill:#B5C5C6;}
	.st23{fill:#A6B6B7;}
</style>
<g>
	<g>
		<path class="st0" d="M191.3,0c-7.4,0-14,3.5-18.3,8.8c-1.7-0.6-3.5-1-5.3-1c-8.7,0-15.8,7-15.8,15.7h63
			C214.9,10.5,204.3,0,191.3,0"/>
	</g>
	<g>
		<path class="st0" d="M214.6,14.2c-5.9,0-11.1,2.8-14.5,7c-1.3-0.5-2.7-0.8-4.2-0.8c-6.9,0-12.5,5.6-12.5,12.4h49.9
			C233.3,22.5,225,14.2,214.6,14.2"/>
	</g>
	<g>
		<path class="st5" d="M46.8,62.9c-4.4,0-8.2,2.1-10.8,5.2c-1-0.4-2-0.6-3.1-0.6c-5.1,0-9.3,4.1-9.3,9.3h37.2
			C60.7,69.1,54.5,62.9,46.8,62.9"/>
	</g>
	<g>
		<path class="st1" d="M216.8,171.6c7,6,7.8,16.5,1.8,23.5c-6,7-16.6,7.8-23.6,1.8c-7-6-7.8-16.5-1.8-23.5
			C199.2,166.3,209.8,165.6,216.8,171.6"/>
	</g>
	<g>
		<path class="st7" d="M205.9,216c-7.6,0-15-2.7-20.8-7.7c-13.3-11.4-14.8-31.5-3.4-44.8c6.1-7,14.9-11,24.2-11
			c7.6,0,15,2.7,20.8,7.7c13.3,11.4,14.8,31.5,3.4,44.8C224,211.9,215.2,216,205.9,216 M205.9,157.4c-7.9,0-15.3,3.4-20.4,9.3
			c-9.7,11.2-8.4,28.2,2.9,37.8c4.9,4.2,11.1,6.5,17.6,6.5c7.9,0,15.3-3.4,20.4-9.3c9.7-11.2,8.4-28.2-2.8-37.8
			C218.6,159.7,212.3,157.4,205.9,157.4"/>
	</g>
	<g>
		<path class="st8" d="M168.9,187.2c-0.8-9.9,2.3-19.5,8.9-27.1c10.1-11.7,26.7-15.9,41.3-10.4l-1.8,4.6c-12.6-4.8-26.9-1.1-35.7,9
			c-5.6,6.5-8.4,14.8-7.7,23.4L168.9,187.2z"/>
	</g>
	<g>
		<rect x="181.9" y="114.1" class="st0" width="5.5" height="21.3"/>
	</g>
	<g>
		<path class="st0" d="M192.6,124.7c0,5.9-2.4,10.6-5.4,10.6c-3,0-5.4-4.8-5.4-10.6c0-5.9,2.4-10.6,5.4-10.6
			C190.2,114.1,192.6,118.9,192.6,124.7"/>
	</g>
	<g>
		<rect x="179.2" y="114.1" class="st12" width="8.4" height="21.3"/>
	</g>
	<g>
		<path class="st12" d="M171.3,124.7c0,5.9,3.7,10.6,8.1,10.6c4.5,0,8.1-4.8,8.1-10.6c0-5.9-3.6-10.6-8.1-10.6
			C175,114.1,171.3,118.9,171.3,124.7"/>
	</g>
	<g>
		<path class="st1" d="M75.2,191.1c0,3.3,2.7,6,6,6h20.4c3.3,0,6-2.7,6-6v-14.4c0-3.3-2.7-6-6-6H81.2c-3.3,0-6,2.7-6,6V191.1z"/>
	</g>
	<g>
		<path class="st1" d="M122.8,169.4c0,5,4.1,9.1,9.2,9.1h11.7c5.1,0,9.2-4.1,9.2-9.1v-12.1c0-5-4.1-9.1-9.2-9.1H132
			c-5.1,0-9.2,4.1-9.2,9.1V169.4z"/>
	</g>
	<g>
		<path class="st0" d="M120.1,169.1c7.5,6.4,8.3,17.6,1.9,25.1c-6.4,7.5-17.7,8.3-25.2,1.9c-7.5-6.4-8.3-17.6-1.9-25.1
			C101.3,163.6,112.6,162.7,120.1,169.1"/>
	</g>
	<g>
		<path class="st1" d="M58.1,184.9c0,9.2-7.5,16.7-16.7,16.7c-9.2,0-16.7-7.5-16.7-16.7c0-9.2,7.5-16.7,16.7-16.7
			C50.6,168.3,58.1,175.7,58.1,184.9"/>
	</g>
	<g>
		<polygon class="st12" points="84,189.7 7.7,189.7 3,181.3 84,181.3 		"/>
	</g>
	<g>
		<polygon class="st12" points="91.1,193.8 74.1,194.2 68.3,181.3 84,181.3 		"/>
	</g>
	<g>
		<path class="st12" d="M209.6,189.9c-2,1.2-4.7,0.5-6-1.7l-54.5-87.2c-1.3-2.1-0.8-4.9,1.2-6.1c2-1.2,4.7-0.5,6,1.7l54.5,87.2
			C212.1,186,211.6,188.7,209.6,189.9"/>
	</g>
	<g>
		<path class="st12" d="M38.9,189.1c-2.2-0.8-3.3-3.3-2.5-5.7l10.4-29.6c0.8-2.4,3.3-3.7,5.5-2.9c2.2,0.8,3.3,3.3,2.5,5.7
			l-10.4,29.6C43.5,188.5,41.1,189.8,38.9,189.1"/>
	</g>
	<g>
		<path class="st7" d="M41.4,216.7c-17.6,0-31.9-14.3-31.9-31.8c0-17.5,14.3-31.8,31.9-31.8c17.6,0,31.9,14.3,31.9,31.8
			C73.3,202.5,59,216.7,41.4,216.7 M41.4,158.1c-14.8,0-26.9,12-26.9,26.8c0,14.8,12.1,26.8,26.9,26.8c14.9,0,26.9-12,26.9-26.8
			C68.3,170.2,56.2,158.1,41.4,158.1"/>
	</g>
	<g>
		<path class="st8" d="M13.9,168.8l-10.1-6.1c7.9-13.1,22.3-21.2,37.6-21.2s29.7,8.1,37.6,21.2l-10.1,6.1
			c-5.9-9.7-16.1-15.5-27.5-15.5C30,153.3,19.8,159.1,13.9,168.8"/>
	</g>
	<g>
		<path class="st1" d="M115.6,174.3c4.6,4,5.2,10.9,1.2,15.5c-4,4.6-11,5.1-15.6,1.2c-4.6-4-5.2-10.9-1.2-15.5
			C104,170.8,111,170.3,115.6,174.3"/>
	</g>
	<g>
		<polygon class="st12" points="144.5,200.6 30.8,200.6 26.1,192.2 144.5,192.2 		"/>
	</g>
	<g>
		<rect x="122.8" y="148.7" class="st1" width="30.1" height="13"/>
	</g>
	<g>
		<path class="st7" d="M121,149.4c0,1.2,1,2.1,2.1,2.1h29.6c1.2,0,2.1-0.9,2.1-2.1v-0.8c0-1.2-1-2.1-2.1-2.1h-29.6
			c-1.2,0-2.1,0.9-2.1,2.1V149.4z"/>
	</g>
	<g>
		<path class="st7" d="M127.5,146.9c0,1.2,1,2.1,2.1,2.1h16.5c1.2,0,2.1-0.9,2.1-2.1v-2.3c0-1.2-1-2.1-2.1-2.1h-16.5
			c-1.2,0-2.1,0.9-2.1,2.1V146.9z"/>
	</g>
	<g>
		<path class="st7" d="M156.1,94.8c0,3.5-2.9,6.4-6.4,6.4c-3.6,0-6.4-2.9-6.4-6.4c0-3.5,2.9-6.4,6.4-6.4
			C153.3,88.4,156.1,91.3,156.1,94.8"/>
	</g>
	<g>
		<path class="st7" d="M133,109.2c-0.8,0-1.6-0.5-1.8-1.4c-0.3-1,0.3-2,1.3-2.3l13.4-3.6l2.4-5.1c0.5-0.9,1.6-1.3,2.5-0.9
			c0.9,0.4,1.3,1.6,0.9,2.5l-2.8,5.8c-0.2,0.5-0.7,0.8-1.2,1l-14.2,3.9C133.4,109.1,133.2,109.2,133,109.2"/>
	</g>
	<g>
		<path class="st0" d="M152.9,159.5h-30.1c-1,0-1.9-0.8-1.9-1.9c0-1,0.8-1.9,1.9-1.9h30.1c1,0,1.9,0.8,1.9,1.9
			C154.8,158.6,153.9,159.5,152.9,159.5"/>
	</g>
	<g>
		<path class="st0" d="M152.9,166.7h-30.1c-1,0-1.9-0.8-1.9-1.9c0-1,0.8-1.9,1.9-1.9h30.1c1,0,1.9,0.8,1.9,1.9
			C154.8,165.9,153.9,166.7,152.9,166.7"/>
	</g>
	<g>
		<path class="st0" d="M152.9,173.9h-30.1c-1,0-1.9-0.8-1.9-1.9c0-1,0.8-1.9,1.9-1.9h30.1c1,0,1.9,0.8,1.9,1.9
			C154.8,173.1,153.9,173.9,152.9,173.9"/>
	</g>
	<g>
		<path class="st12" d="M174,129.6c1.5,0.5,2.2,2.2,1.7,3.6L151.3,198c-0.5,1.4-2.3,2.6-3.8,2.6h-3.2c-1.6,0-2.4-1.2-1.8-2.6
			l25.3-67.6c0.6-1.5,2.2-2.2,3.6-1.7L174,129.6z"/>
	</g>
	<g>
		<path class="st8" d="M80.9,162.9c-0.9-1.5-0.2-3.4,1.6-4.1l29.1-11.8c1.8-0.7,3.8,0.1,4.4,1.7c0.6,1.7,0.2,4.4-0.9,6l-2.4,3.5
			c-1.1,1.6-3.4,3.5-5.2,4.3l-5.9,2.5c-1.8,0.7-4.9,1.3-6.8,1.2l-8.7-0.3C84.1,165.8,81.8,164.5,80.9,162.9"/>
	</g>
	<g>
		<rect x="129.1" y="181" class="st1" width="17.3" height="3.2"/>
	</g>
	<g>
		<path class="st0" d="M146.6,181.9h-17.5c-1,0-1.9-0.8-1.9-1.9c0-1,0.8-1.9,1.9-1.9h17.5c1,0,1.9,0.8,1.9,1.9
			C148.5,181.1,147.6,181.9,146.6,181.9"/>
	</g>
	<g>
		<path class="st7" d="M65.3,135.9c-1.2,1.5-1.5,4.1-0.6,5.8l7.6,14.3c0.9,1.7,3.1,2.5,4.9,1.8l21.2-8.4c1.8-0.7,2.7-2.8,2-4.6
			l-1.3-3.5c-19.2,7.5-30.3-4.2-30.3-4.2C66.3,134.7,65.3,135.9,65.3,135.9"/>
	</g>
	<g>
		<polygon class="st7" points="171.9,116.8 161.4,124.2 158.2,119.7 168.7,112.3 		"/>
	</g>
	<g>
		<path class="st8" d="M102,142.5c29.4-30.9,55.9-24.8,55.9-24.8l4.8,6.9c3.7,14.2-5.1,17.2-5.1,17.2c-31.3-2.8-52,4.7-52,4.7
			C101.5,147.7,100.9,143.6,102,142.5"/>
	</g>
	<g>
		<rect x="176" y="124.4" class="st11" width="2.1" height="8.3"/>
	</g>
	<g>
		<path class="st11" d="M180.2,128.6c0,2.3-0.9,4.2-2.1,4.2c-1.2,0-2.1-1.9-2.1-4.2c0-2.3,0.9-4.2,2.1-4.2
			C179.2,124.4,180.2,126.3,180.2,128.6"/>
	</g>
	<g>
		<rect x="172.4" y="124.4" class="st7" width="4.7" height="8.3"/>
	</g>
	<g>
		<path class="st7" d="M167.9,128.6c0,2.3,2.1,4.2,4.6,4.2c2.5,0,4.6-1.9,4.6-4.2c0-2.3-2-4.2-4.6-4.2
			C170,124.4,167.9,126.3,167.9,128.6"/>
	</g>
	<g>
		<rect x="176" y="124.4" class="st7" width="2.1" height="8.3"/>
	</g>
	<g>
		<rect x="184.7" y="113.4" class="st7" width="3.1" height="22.6"/>
	</g>
	<g>
		<path class="st12" d="M149.7,98.5h-19c-2.1,0-3.7-1.7-3.7-3.7c0-2.1,1.7-3.7,3.7-3.7h19c2.1,0,3.7,1.7,3.7,3.7
			C153.4,96.9,151.8,98.5,149.7,98.5"/>
	</g>
	<g>
		<path class="st1" d="M240.6,220H2.4c-1.3,0-2.4-1.1-2.4-2.4s1.1-2.4,2.4-2.4h238.2c1.3,0,2.4,1.1,2.4,2.4S241.9,220,240.6,220z"/>
	</g>
</g>
</svg>
