<?xml version="1.0" encoding="utf-8"?>
<!-- Generator: Adobe Illustrator 25.2.0, SVG Export Plug-In . SVG Version: 6.00 Build 0)  -->
<svg version="1.1" id="Layer_1" xmlns="http://www.w3.org/2000/svg" xmlns:xlink="http://www.w3.org/1999/xlink" x="0px" y="0px"
	 viewBox="0 0 243 220" style="enable-background:new 0 0 243 220;" xml:space="preserve">
<style type="text/css">
	.st0{fill:#E6E7E8;}
	.st1{fill:#D1D3D4;}
	.st2{fill:#98D2DA;}
	.st3{fill:#F5F5F5;}
	.st4{fill:#00AFC2;}
	.st5{fill:#ABDDDB;}
	.st6{fill:#BCBEC0;}
	.st7{fill:#262262;}
	.st8{fill:#81CFD0;}
	.st9{fill:#F47920;}
	.st10{fill:#F68B1F;}
	.st11{fill:#F7941D;}
	.st12{fill:#302F75;}
	.st13{fill:#F7BC43;}
	.st14{fill:#F26D62;}
	.st15{fill:#C62F27;}
	.st16{fill:#D53F32;}
	.st17{fill:#EF8839;}
	.st18{fill:#F3AB43;}
	.st19{fill:#D5E5E5;}
	.st20{fill:#FFFFFF;}
	.st21{fill:#95A5A6;}
	.st22{fill:#B5C5C6;}
	.st23{fill:#A6B6B7;}
</style>
<g>
	<g>
		<path class="st0" d="M203.8,0c-5.1,0-9.5,2.4-12.5,6c-1.1-0.4-2.3-0.7-3.6-0.7c-5.9,0-10.7,4.8-10.7,10.7h42.9
			C219.9,7.2,212.7,0,203.8,0"/>
	</g>
	<g>
		<path class="st0" d="M80,47.7c-6.5,0-12.1,3-15.9,7.7c-1.5-0.5-3-0.9-4.6-0.9c-7.5,0-13.7,6.1-13.7,13.6h54.7
			C100.5,56.8,91.3,47.7,80,47.7"/>
	</g>
	<g>
		<path class="st5" d="M52.2,52.4c-9.9,0-18.5,4.6-24.3,11.7c-2.2-0.8-4.6-1.3-7.1-1.3C9.4,62.8,0,72.2,0,83.7h83.6
			C83.6,66.4,69.6,52.4,52.2,52.4"/>
	</g>
	<g>
		<path class="st0" d="M77.7,189.8c0-0.4,0-0.9,0.1-1.3c-1.4-0.6-3-1-4.6-1c-2.1,0-4.1,0.6-5.8,1.7c0,0.2,0,0.4,0,0.6
			c0,3.9-2.1,7.4-5.2,9.3c0.2,3.4,1.9,6.3,4.5,8.2c1.8-1.3,4.1-2.1,6.5-2.1c2.4,0,4.7,0.8,6.5,2.1c2.4-1.8,4.1-4.4,4.4-7.5
			C80.3,198,77.7,194.2,77.7,189.8"/>
	</g>
	<g>
		<path class="st6" d="M72.8,213.5c-8.3,0-15-6.7-15-14.9c0-8.2,6.7-14.9,15-14.9c8.3,0,15,6.7,15,14.9
			C87.7,206.8,81,213.5,72.8,213.5 M72.8,187.8c-6,0-10.8,4.8-10.8,10.8c0,5.9,4.9,10.8,10.8,10.8c6,0,10.8-4.8,10.8-10.8
			C83.6,192.6,78.7,187.8,72.8,187.8"/>
	</g>
	<g>
		<path class="st7" d="M72.8,216.1c-9.7,0-17.6-7.9-17.6-17.6c0-9.7,7.9-17.6,17.6-17.6c9.7,0,17.7,7.9,17.7,17.6
			C90.4,208.2,82.5,216.1,72.8,216.1 M72.8,185.8c-7,0-12.8,5.7-12.8,12.7c0,7,5.7,12.7,12.8,12.7c7,0,12.8-5.7,12.8-12.7
			C85.5,191.5,79.8,185.8,72.8,185.8"/>
	</g>
	<g>
		<path class="st0" d="M186.1,175.3c0-0.7,0.1-1.4,0.1-2c-2.2-1-4.7-1.6-7.3-1.6c-3.4,0-6.5,1-9.2,2.6c0,0.3,0.1,0.7,0.1,1
			c0,6.2-3.3,11.7-8.2,14.7c0.3,5.3,3,10,7.1,13c2.9-2.1,6.5-3.4,10.3-3.4s7.4,1.3,10.3,3.4c3.8-2.8,6.4-7,7-11.9
			C190.3,188.3,186.1,182.3,186.1,175.3"/>
	</g>
	<g>
		<path class="st6" d="M178.7,212c-12.8,0-23.3-10.4-23.3-23.1c0-12.8,10.4-23.1,23.3-23.1c12.8,0,23.3,10.4,23.3,23.1
			C201.9,201.6,191.5,212,178.7,212 M178.7,172.1c-9.3,0-16.8,7.5-16.8,16.7c0,9.2,7.5,16.7,16.8,16.7c9.3,0,16.8-7.5,16.8-16.7
			C195.5,179.6,187.9,172.1,178.7,172.1"/>
	</g>
	<g>
		<path class="st7" d="M178.7,216.1c-15.1,0-27.4-12.2-27.4-27.3c0-15,12.3-27.3,27.4-27.3c15.1,0,27.4,12.2,27.4,27.3
			C206.1,203.9,193.8,216.1,178.7,216.1 M178.7,169.1c-10.9,0-19.8,8.9-19.8,19.7c0,10.9,8.9,19.7,19.8,19.7
			c10.9,0,19.8-8.8,19.8-19.7C198.5,178,189.6,169.1,178.7,169.1"/>
	</g>
	<g>
		<path class="st6" d="M159.4,118.1c-0.8,0-1.5-0.5-1.8-1.2l-8.7-24.5c-0.3-1,0.2-2,1.2-2.4c1-0.3,2,0.2,2.4,1.1l8.7,24.5
			c0.3,1-0.2,2-1.1,2.4C159.8,118,159.6,118.1,159.4,118.1"/>
	</g>
	<g>
		<polygon class="st8" points="171.4,157.3 156.5,117.3 162.3,115.1 177.3,155.1 		"/>
	</g>
	<g>
		<path class="st6" d="M169.8,93.6h-40.5c-1,0-1.9-0.8-1.9-1.9c0-1,0.8-1.9,1.9-1.9h40.5c1,0,1.9,0.8,1.9,1.9
			C171.6,92.8,170.8,93.6,169.8,93.6"/>
	</g>
	<g>
		<rect x="122.3" y="89.1" class="st9" width="11" height="5.5"/>
	</g>
	<g>
		<rect x="166.3" y="89.1" class="st10" width="11" height="5.5"/>
	</g>
	<g>
		<path class="st10" d="M122.3,95.9c-0.3,0-0.6-0.3-0.6-0.6v-6.9c0-0.3,0.3-0.6,0.6-0.6c0.3,0,0.6,0.3,0.6,0.6v6.9
			C122.9,95.7,122.6,95.9,122.3,95.9"/>
	</g>
	<g>
		<path class="st4" d="M156.1,118.9c-0.5,0-0.9-0.3-1.2-0.8c-0.3-0.6,0-1.4,0.7-1.6l6.7-2.8c0.6-0.3,1.4,0,1.6,0.7
			c0.3,0.6,0,1.4-0.7,1.6l-6.7,2.8C156.4,118.8,156.2,118.9,156.1,118.9"/>
	</g>
	<g>
		<rect x="166.3" y="89.1" class="st9" width="11" height="5.5"/>
	</g>
	<g>
		<path class="st10" d="M177.3,95.9c-0.3,0-0.6-0.3-0.6-0.6v-6.9c0-0.3,0.3-0.6,0.6-0.6c0.3,0,0.6,0.3,0.6,0.6v6.9
			C177.9,95.7,177.6,95.9,177.3,95.9"/>
	</g>
	<g>
		<path class="st8" d="M182.9,188.7c0,2-1.6,3.6-3.6,3.6c-2,0-3.6-1.6-3.6-3.6c0-2,1.6-3.6,3.6-3.6
			C181.3,185.1,182.9,186.7,182.9,188.7"/>
	</g>
	<g>
		<path class="st10" d="M181.6,188.7c0,1.2-1,2.2-2.3,2.2c-1.2,0-2.2-1-2.2-2.2c0-1.2,1-2.2,2.2-2.2
			C180.5,186.4,181.6,187.4,181.6,188.7"/>
	</g>
	<g>
		<path class="st8" d="M179.1,189.9c-0.7,0-1.5-0.5-1.7-1.2l-9.1-24.6c-1.1-2.6-1.2-4.8-0.3-6.6c1-1.9,2.8-2.6,3.2-2.7l3.9-1.3
			c3.5-1.3,6.5-0.2,7.8,3.2c1.5,3.8,3.1,7.4,3.1,7.4c0.4,0.9,0,2-0.9,2.4c-0.9,0.4-2,0-2.5-0.9c0,0-1.7-3.7-3.2-7.6
			c-0.5-1.2-1.1-1.8-3-1.1l-4,1.4c0,0-0.1,0-0.2,0c0,0-0.6,0.2-0.9,0.9c-0.3,0.8-0.2,2,0.4,3.5l9.1,24.7c0.3,1-0.1,2-1.1,2.4
			C179.5,189.9,179.3,189.9,179.1,189.9"/>
	</g>
	<g>
		<path class="st10" d="M69.4,199.2c-1,0-1.8-0.8-1.8-1.8v-4.1c0-1-0.8-1.8-1.8-1.8H51.8c-1,0-1.8,0.8-1.8,1.8v4.1v3.4v3.4v0.3
			c0,1,0.8,1.8,1.8,1.8h85.6c1,0,1.8-0.8,1.8-1.8v-3.5c0-1-0.8-1.8-1.8-1.8H69.4z"/>
	</g>
	<g>
		<path class="st0" d="M43.4,189.8c0-0.4,0-0.9,0.1-1.3c-1.4-0.6-3-1-4.6-1c-2.1,0-4.1,0.6-5.8,1.7c0,0.2,0,0.4,0,0.6
			c0,3.9-2.1,7.4-5.2,9.3c0.2,3.4,1.9,6.3,4.5,8.2c1.8-1.3,4.1-2.1,6.5-2.1c2.4,0,4.7,0.8,6.5,2.1c2.4-1.8,4.1-4.4,4.4-7.5
			C46,198,43.4,194.2,43.4,189.8"/>
	</g>
	<g>
		<path class="st6" d="M38.5,213.5c-8.3,0-15-6.7-15-14.9c0-8.2,6.7-14.9,15-14.9c8.3,0,15,6.7,15,14.9
			C53.5,206.8,46.7,213.5,38.5,213.5 M38.5,187.8c-6,0-10.8,4.8-10.8,10.8c0,5.9,4.9,10.8,10.8,10.8c6,0,10.8-4.8,10.8-10.8
			C49.3,192.6,44.4,187.8,38.5,187.8"/>
	</g>
	<g>
		<path class="st7" d="M38.5,216.1c-9.7,0-17.6-7.9-17.6-17.6c0-9.7,7.9-17.6,17.6-17.6c9.7,0,17.7,7.9,17.7,17.6
			C56.1,208.2,48.2,216.1,38.5,216.1 M38.5,185.8c-7,0-12.8,5.7-12.8,12.7c0,7,5.7,12.7,12.8,12.7c7.1,0,12.8-5.7,12.8-12.7
			C51.2,191.5,45.5,185.8,38.5,185.8"/>
	</g>
	<g>
		<path class="st8" d="M144.6,206.7h-22.4c-1,0-1.9-0.8-1.9-1.9c0-1,0.8-1.8,1.9-1.8h20.5v-22.9c0,0,0-0.1,0-0.1
			c2.4-29.6,27.6-35.1,27.8-35.2c1-0.2,2,0.4,2.2,1.4c0.2,1-0.4,2-1.4,2.2c-0.9,0.2-22.7,5.1-24.9,31.8v24.7
			C146.5,205.9,145.7,206.7,144.6,206.7"/>
	</g>
	<g>
		<path class="st7" d="M177.8,161.6v7.6c0.3,0,0.6,0,0.9,0c1.4,0,2.7,0.1,4,0.4h8.9v-4.7c-3.8-2.1-8.2-3.2-12.9-3.2
			C178.4,161.5,178.1,161.6,177.8,161.6"/>
	</g>
	<g>
		<path class="st1" d="M240.6,220H2.7c-1.3,0-2.4-1.1-2.4-2.4c0-1.3,1.1-2.4,2.4-2.4h237.9c1.3,0,2.4,1.1,2.4,2.4
			C243,218.9,241.9,220,240.6,220z"/>
	</g>
</g>
</svg>
