<?xml version="1.0" encoding="utf-8"?>
<!-- Generator: Adobe Illustrator 25.2.0, SVG Export Plug-In . SVG Version: 6.00 Build 0)  -->
<svg version="1.1" id="Layer_1" xmlns="http://www.w3.org/2000/svg" xmlns:xlink="http://www.w3.org/1999/xlink" x="0px" y="0px"
	 viewBox="0 0 243 220" style="enable-background:new 0 0 243 220;" xml:space="preserve">
<style type="text/css">
	.st0{fill:#E6E7E8;}
	.st1{fill:#D1D3D4;}
	.st2{fill:#98D2DA;}
	.st3{fill:#F5F5F5;}
	.st4{fill:#00AFC2;}
	.st5{fill:#ABDDDB;}
	.st6{fill:#BCBEC0;}
	.st7{fill:#262262;}
	.st8{fill:#81CFD0;}
	.st9{fill:#F47920;}
	.st10{fill:#F68B1F;}
	.st11{fill:#F7941D;}
	.st12{fill:#302F75;}
	.st13{fill:#F7BC43;}
	.st14{fill:#F26D62;}
	.st15{fill:#C62F27;}
	.st16{fill:#D53F32;}
	.st17{fill:#EF8839;}
	.st18{fill:#F3AB43;}
	.st19{fill:#D5E5E5;}
	.st20{fill:#FFFFFF;}
	.st21{fill:#95A5A6;}
	.st22{fill:#B5C5C6;}
	.st23{fill:#A6B6B7;}
</style>
<g>
	<g>
		<path class="st0" d="M189.2,0c-6.5,0-12.1,3-15.9,7.7c-1.5-0.5-3-0.9-4.6-0.9c-7.6,0-13.7,6.1-13.7,13.6h54.8
			C209.7,9.2,200.5,0,189.2,0"/>
	</g>
	<g>
		<path class="st5" d="M74.4,40.5c-9.1,0-17.1,4.3-22.4,10.8c-2-0.7-4.2-1.2-6.5-1.2c-10.6,0-19.3,8.6-19.3,19.2h77
			C103.3,53.3,90.3,40.5,74.4,40.5"/>
	</g>
	<g>
		<rect x="85.2" y="104.4" class="st6" width="3.7" height="7.9"/>
	</g>
	<g>
		<polygon class="st1" points="153,179.7 186.6,176.4 160.6,200.9 		"/>
	</g>
	<g>
		<polygon class="st1" points="183,139.4 188.4,172.7 162.3,148.2 		"/>
	</g>
	<g>
		<polygon class="st1" points="202.2,210.9 190.5,179.3 220.8,198.4 		"/>
	</g>
	<g>
		<polygon class="st1" points="226,171.4 192.4,175 218.3,150.3 		"/>
	</g>
	<g>
		<path class="st7" d="M189.8,217.6c-22.8,0-41.3-18.4-41.3-41.1c0-22.7,18.5-41.1,41.3-41.1c22.8,0,41.3,18.4,41.3,41.1
			C231.1,199.2,212.6,217.6,189.8,217.6 M189.8,142.8c-18.6,0-33.8,15.1-33.8,33.7c0,18.6,15.2,33.7,33.8,33.7
			c18.7,0,33.8-15.1,33.8-33.7C223.6,157.9,208.5,142.8,189.8,142.8"/>
	</g>
	<g>
		<path class="st6" d="M200.2,176.5c0,5.7-4.7,10.4-10.4,10.4c-5.8,0-10.4-4.7-10.4-10.4c0-5.7,4.7-10.4,10.4-10.4
			C195.6,166.1,200.2,170.7,200.2,176.5"/>
	</g>
	<g>
		<path class="st7" d="M189.8,188.1c-6.4,0-11.7-5.2-11.7-11.6c0-6.4,5.2-11.6,11.7-11.6c6.4,0,11.7,5.2,11.7,11.6
			C201.5,182.9,196.3,188.1,189.8,188.1 M189.8,167.3c-5.1,0-9.2,4.1-9.2,9.2s4.1,9.1,9.2,9.1c5.1,0,9.2-4.1,9.2-9.1
			S194.9,167.3,189.8,167.3"/>
	</g>
	<g>
		<path class="st7" d="M195.7,176.5c0,3.2-2.6,5.8-5.9,5.8c-3.2,0-5.9-2.6-5.9-5.8c0-3.2,2.6-5.8,5.9-5.8
			C193,170.6,195.7,173.3,195.7,176.5"/>
	</g>
	<g>
		<path class="st11" d="M113.7,178.7c-0.9,0-1.7-0.5-2-1.3l-26.5-63.8c-0.5-1.1,0.1-2.4,1.2-2.8c1.1-0.5,2.4,0.1,2.8,1.2l26.5,63.8
			c0.5,1.1-0.1,2.4-1.2,2.8C114.3,178.6,114,178.7,113.7,178.7"/>
	</g>
	<g>
		<path class="st8" d="M189.8,177.5c-1.1,0-2.2-0.8-2.4-1.9l-15-66.9c-0.3-1.3,0.5-2.7,1.9-3c1.3-0.3,2.7,0.6,3,1.9l15,66.9
			c0.3,1.3-0.5,2.7-1.9,3C190.2,177.5,190,177.5,189.8,177.5"/>
	</g>
	<g>
		<polygon class="st11" points="177.3,130.4 174.9,119.5 179.7,118.4 182.2,129.4 		"/>
	</g>
	<g>
		
			<rect x="180.8" y="144.3" transform="matrix(0.9759 -0.2183 0.2183 0.9759 -27.4927 43.5474)" class="st11" width="5" height="3.7"/>
	</g>
	<g>
		<path class="st8" d="M172.5,110.6c-1.1,0-2.1-0.8-2.4-1.9c-0.3-1.3,0.5-2.7,1.8-3c6.9-1.7,16.5-5.9,16.4-9.2
			c0-1.1-1.7-6.9-33.5-14.1c-1.3-0.3-2.2-1.6-1.9-3c0.3-1.3,1.6-2.2,3-1.9c25.8,5.8,37.3,11.6,37.4,18.9c0.1,8.5-16.8,13.2-20.2,14
			C172.9,110.5,172.7,110.6,172.5,110.6"/>
	</g>
	<g>
		<path d="M170.6,86.4c-0.2,0-0.5,0-0.7-0.1c-4.3-1.3-9.4-2.6-15.1-3.9c-1.3-0.3-2.2-1.6-1.9-3c0.3-1.3,1.6-2.2,3-1.9
			c5.8,1.3,11,2.7,15.4,4c1.3,0.4,2.1,1.8,1.7,3.1C172.6,85.7,171.6,86.4,170.6,86.4"/>
	</g>
	<g>
		<polygon class="st1" points="17.1,179.7 50.8,176.4 24.7,200.9 		"/>
	</g>
	<g>
		<polygon class="st1" points="47.1,139.4 52.5,172.7 26.4,148.2 		"/>
	</g>
	<g>
		<polygon class="st1" points="66.3,210.9 54.7,179.3 85,198.4 		"/>
	</g>
	<g>
		<polygon class="st1" points="90.2,171.4 56.6,175 82.5,150.3 		"/>
	</g>
	<g>
		<path class="st7" d="M54,217.6c-22.8,0-41.3-18.4-41.3-41.1c0-22.7,18.5-41.1,41.3-41.1c22.8,0,41.3,18.4,41.3,41.1
			C95.3,199.2,76.7,217.6,54,217.6 M54,142.8c-18.7,0-33.8,15.1-33.8,33.7c0,18.6,15.2,33.7,33.8,33.7c18.6,0,33.8-15.1,33.8-33.7
			C87.8,157.9,72.6,142.8,54,142.8"/>
	</g>
	<g>
		<path class="st6" d="M64.4,176.5c0,5.7-4.7,10.4-10.4,10.4c-5.8,0-10.4-4.7-10.4-10.4c0-5.7,4.7-10.4,10.4-10.4
			C59.7,166.1,64.4,170.7,64.4,176.5"/>
	</g>
	<g>
		<path class="st7" d="M54,188.1c-6.4,0-11.7-5.2-11.7-11.6c0-6.4,5.2-11.6,11.7-11.6c6.4,0,11.7,5.2,11.7,11.6
			C65.7,182.9,60.4,188.1,54,188.1 M54,167.3c-5.1,0-9.2,4.1-9.2,9.2s4.1,9.1,9.2,9.1c5.1,0,9.2-4.1,9.2-9.1S59,167.3,54,167.3"/>
	</g>
	<g>
		<path class="st7" d="M59.8,176.5c0,3.2-2.6,5.8-5.9,5.8c-3.2,0-5.9-2.6-5.9-5.8c0-3.2,2.6-5.8,5.9-5.8
			C57.2,170.6,59.8,173.3,59.8,176.5"/>
	</g>
	<g>
		<path class="st11" d="M113.7,178.7H54c-0.8,0-1.6-0.5-2-1.2c-0.4-0.8-0.2-1.7,0.3-2.3l42.1-50.9c0.4-0.5,1-0.8,1.7-0.8h81
			c0.9,0,1.8,0.6,2.1,1.4c0.3,0.9,0,1.8-0.7,2.4l-63.4,50.9C114.7,178.5,114.2,178.7,113.7,178.7 M58.6,174.3h54.3l58-46.5H97.1
			L58.6,174.3z"/>
	</g>
	<g>
		<path class="st7" d="M118.2,176.4c0,2.5-2,4.5-4.5,4.5s-4.5-2-4.5-4.5c0-2.5,2-4.5,4.5-4.5S118.2,173.9,118.2,176.4"/>
	</g>
	<g>
		<path class="st7" d="M133.1,195.8c0,1.5-1.3,2.8-2.8,2.8h-10.7c-1.6,0-2.8-1.3-2.8-2.8v-0.1c0-1.6,1.3-2.8,2.8-2.8h10.7
			c1.5,0,2.8,1.3,2.8,2.8V195.8z"/>
	</g>
	<g>
		<path class="st8" d="M113.7,191.2c-8.2,0-14.9-6.6-14.9-14.8c0-8.2,6.7-14.8,14.9-14.8c8.2,0,14.9,6.6,14.9,14.8
			C128.6,184.5,121.9,191.2,113.7,191.2 M113.7,165.3c-6.1,0-11.1,5-11.1,11.1c0,6.1,5,11.1,11.1,11.1c6.1,0,11.1-5,11.1-11.1
			C124.8,170.3,119.8,165.3,113.7,165.3"/>
	</g>
	<g>
		<path class="st8" d="M123.8,195.7c-0.6,0-1.3-0.3-1.6-0.9l-10.1-17.4c-0.5-0.9-0.2-2,0.7-2.5c0.9-0.5,2-0.2,2.6,0.7l10.1,17.4
			c0.5,0.9,0.2,2-0.7,2.5C124.4,195.6,124.1,195.7,123.8,195.7"/>
	</g>
	<g>
		<path class="st7" d="M76.2,107.1c-1.2-0.2-8.8-1.2-8.8-5.4c0-4.2,5.5-3.6,5.5-3.6l19.3,0.5c13.5,0.1,14.5,5.8,14.5,5.8
			C93.8,104.2,77.4,107.4,76.2,107.1"/>
	</g>
	<g>
		<path class="st1" d="M240.6,220H2.4c-1.3,0-2.4-1.1-2.4-2.4s1.1-2.4,2.4-2.4h238.2c1.3,0,2.4,1.1,2.4,2.4S241.9,220,240.6,220z"/>
	</g>
</g>
</svg>
