<?xml version="1.0" encoding="utf-8"?>
<!-- Generator: Adobe Illustrator 25.2.0, SVG Export Plug-In . SVG Version: 6.00 Build 0)  -->
<svg version="1.1" id="Layer_1" xmlns="http://www.w3.org/2000/svg" xmlns:xlink="http://www.w3.org/1999/xlink" x="0px" y="0px"
	 viewBox="0 0 243 220" style="enable-background:new 0 0 243 220;" xml:space="preserve">
<style type="text/css">
	.st0{fill:#E6E7E8;}
	.st1{fill:#D1D3D4;}
	.st2{fill:#98D2DA;}
	.st3{fill:#F5F5F5;}
	.st4{fill:#00AFC2;}
	.st5{fill:#ABDDDB;}
	.st6{fill:#BCBEC0;}
	.st7{fill:#262262;}
	.st8{fill:#81CFD0;}
	.st9{fill:#F47920;}
	.st10{fill:#F68B1F;}
	.st11{fill:#F7941D;}
	.st12{fill:#302F75;}
	.st13{fill:#F7BC43;}
	.st14{fill:#F26D62;}
	.st15{fill:#C62F27;}
	.st16{fill:#D53F32;}
	.st17{fill:#EF8839;}
	.st18{fill:#F3AB43;}
	.st19{fill:#D5E5E5;}
	.st20{fill:#FFFFFF;}
	.st21{fill:#95A5A6;}
	.st22{fill:#B5C5C6;}
	.st23{fill:#A6B6B7;}
</style>
<g>
	<g>
		<path class="st0" d="M60.9,139.6c0.2-0.1,0.4-0.1,0.6-0.2c0.5-0.2,1.1-0.4,1.7-0.7c0.1,0,0.3-0.1,0.4-0.2c0.4-0.2,0.9-0.3,1.4-0.5
			c4.1-1.5,9.5-3.6,16-6c-0.9,0.1-1.8-0.4-2.1-1.3c-0.4-1,0.1-2.2,1.2-2.6c1.1-0.4,2.2,0.1,2.6,1.2c0.3,0.9,0,1.9-0.8,2.4
			c4.4-1.6,9.1-3.4,14.2-5.3c-0.9,0.1-1.8-0.4-2.1-1.3c-0.4-1,0.1-2.2,1.2-2.6c1.1-0.4,2.2,0.1,2.6,1.2c0.3,0.9,0,1.8-0.7,2.3
			c4.5-1.7,9.2-3.4,14.1-5.3c-0.9,0.1-1.7-0.4-2-1.3c-0.4-1,0.1-2.2,1.2-2.6c1-0.4,2.2,0.1,2.6,1.2c0.3,0.9,0,1.8-0.7,2.3
			c4.6-1.7,9.3-3.4,14-5.2c-0.9,0-1.7-0.5-2-1.3c-0.4-1,0.1-2.2,1.2-2.6c1-0.4,2.2,0.1,2.6,1.2c0.3,0.8,0,1.7-0.6,2.3
			c4.6-1.7,9.3-3.5,14-5.2c-0.8,0-1.6-0.5-1.9-1.3c-0.4-1,0.1-2.2,1.2-2.6c1-0.4,2.2,0.1,2.6,1.2c0.3,0.8,0,1.7-0.6,2.2
			c4.6-1.7,9.3-3.5,13.9-5.2c-0.8,0-1.6-0.5-1.9-1.3c-0.4-1,0.1-2.2,1.2-2.6c1.1-0.4,2.2,0.1,2.6,1.2c0.3,0.8,0,1.7-0.6,2.2
			c4.7-1.7,9.3-3.5,13.8-5.2c-0.8,0-1.6-0.5-1.9-1.3c-0.4-1,0.2-2.2,1.2-2.6c1-0.4,2.2,0.1,2.6,1.2c0.3,0.8,0.1,1.7-0.6,2.2
			c4.7-1.8,9.3-3.5,13.8-5.1c-0.8,0-1.6-0.5-1.9-1.3c-0.4-1,0.1-2.2,1.2-2.6c1.1-0.4,2.2,0.1,2.6,1.2c0.3,0.8,0.1,1.7-0.5,2.2
			c4.8-1.8,9.4-3.5,13.7-5.1c-0.8,0-1.5-0.5-1.8-1.3c-0.4-1,0.1-2.2,1.2-2.6c1.1-0.4,2.2,0.1,2.6,1.2c0.3,0.8,0.1,1.6-0.5,2.2
			c6.8-2.5,12.9-4.8,17.9-6.7c-1,0.1-1.9-0.4-2.2-1.2c-0.4-1,0.4-2.3,1.8-2.8l6.7-2.5c1.1,0.9,2.1,1.9,2.9,3
			c-4.2-5.8-11.8-8.4-18.8-5.7L64,125.6l-41.2-6.2l-7.6,2.8l37.1,16.8C55,140.3,58.1,140.5,60.9,139.6"/>
	</g>
	<g>
		<path class="st1" d="M230.6,76.3c-2.3,0.9-5.4,2-9.2,3.4c-5,1.9-11.1,4.1-17.9,6.7c-0.2,0.2-0.4,0.3-0.7,0.4
			c-0.3,0.1-0.5,0.1-0.8,0.1c-4.3,1.6-8.9,3.3-13.7,5.1c-0.2,0.2-0.4,0.3-0.6,0.4c-0.2,0.1-0.5,0.1-0.8,0.1
			c-4.4,1.7-9.1,3.4-13.8,5.1c-0.2,0.2-0.4,0.3-0.6,0.4c-0.2,0.1-0.5,0.1-0.7,0.1c-4.5,1.7-9.2,3.4-13.8,5.2
			c-0.2,0.2-0.4,0.3-0.6,0.4c-0.2,0.1-0.5,0.1-0.7,0.1c-4.6,1.7-9.3,3.5-13.9,5.2c-0.2,0.1-0.4,0.3-0.6,0.3
			c-0.2,0.1-0.4,0.1-0.7,0.1c-4.7,1.7-9.3,3.5-13.9,5.2c-0.2,0.1-0.3,0.2-0.6,0.3c-0.2,0.1-0.4,0.1-0.6,0.1c-4.8,1.8-9.5,3.5-14,5.2
			c-0.2,0.1-0.3,0.2-0.5,0.3c-0.2,0.1-0.4,0.1-0.6,0.1c-4.9,1.8-9.6,3.6-14.1,5.3c-0.1,0.1-0.3,0.2-0.5,0.3
			c-0.2,0.1-0.3,0.1-0.5,0.1c-5.1,1.9-9.9,3.7-14.2,5.3c-0.1,0.1-0.3,0.2-0.4,0.2c-0.2,0.1-0.3,0.1-0.5,0.1c-6.4,2.4-11.9,4.4-16,6
			c-0.5,0.2-0.9,0.3-1.4,0.5c-0.2,0.1-0.3,0.1-0.4,0.2c-0.6,0.2-1.2,0.5-1.7,0.7c-0.2,0.1-0.4,0.1-0.6,0.2c-2.8,0.9-5.9,0.7-8.6-0.5
			l-37.1-16.8L0,127.9L36.5,149c8.4,4.9,18.5,5.7,27.6,2.3L97.3,139l6.4-11l53.1-19.8l-11.5,12.9l82.6-30.7
			c4.2-1.6,6.3-6.2,4.8-10.4C232.1,78.6,231.4,77.4,230.6,76.3"/>
	</g>
	<g>
		<path class="st2" d="M221,75.7c-1.4,0.5-2.2,1.8-1.8,2.8c0.3,0.8,1.2,1.2,2.2,1.2c3.8-1.4,6.9-2.6,9.2-3.4h0
			c-0.8-1.2-1.8-2.2-2.9-3L221,75.7z"/>
	</g>
	<g>
		<path class="st2" d="M204,84.2c-0.4-1-1.5-1.6-2.6-1.2c-1.1,0.4-1.6,1.6-1.2,2.6c0.3,0.8,1,1.3,1.8,1.3c0.3,0,0.5,0,0.8-0.1
			c0.3-0.1,0.5-0.2,0.7-0.4C204,85.8,204.3,85,204,84.2"/>
	</g>
	<g>
		<path class="st2" d="M188.8,89.8c-0.4-1-1.6-1.6-2.6-1.2c-1.1,0.4-1.6,1.5-1.2,2.6c0.3,0.8,1.1,1.3,1.9,1.3c0.2,0,0.5,0,0.7-0.1
			c0.3-0.1,0.5-0.2,0.6-0.4C188.9,91.5,189.1,90.6,188.8,89.8"/>
	</g>
	<g>
		<path class="st2" d="M173.6,95.5c-0.4-1-1.6-1.6-2.6-1.2c-1.1,0.4-1.6,1.6-1.2,2.6c0.3,0.8,1.1,1.3,1.9,1.3c0.2,0,0.5,0,0.7-0.1
			c0.2-0.1,0.5-0.2,0.6-0.4C173.7,97.2,173.9,96.3,173.6,95.5"/>
	</g>
	<g>
		<path class="st2" d="M158.5,101.1c-0.4-1-1.6-1.6-2.6-1.2c-1,0.4-1.6,1.6-1.2,2.6c0.3,0.8,1.1,1.3,1.9,1.3c0.2,0,0.5,0,0.7-0.1
			c0.2-0.1,0.4-0.2,0.6-0.4C158.5,102.8,158.8,102,158.5,101.1"/>
	</g>
	<g>
		<path class="st2" d="M143.3,106.8c-0.4-1-1.6-1.6-2.6-1.2c-1,0.4-1.6,1.6-1.2,2.6c0.3,0.8,1.1,1.3,1.9,1.3c0.2,0,0.4,0,0.7-0.1
			c0.2-0.1,0.4-0.2,0.6-0.3C143.3,108.5,143.6,107.6,143.3,106.8"/>
	</g>
	<g>
		<path class="st2" d="M128.2,112.4c-0.4-1-1.6-1.6-2.6-1.2c-1,0.4-1.6,1.6-1.2,2.6c0.3,0.8,1.1,1.3,2,1.3c0.2,0,0.4,0,0.6-0.1
			c0.2-0.1,0.4-0.2,0.6-0.3C128.2,114.2,128.5,113.3,128.2,112.4"/>
	</g>
	<g>
		<path class="st2" d="M113,118.1c-0.4-1-1.6-1.6-2.6-1.2c-1.1,0.4-1.6,1.6-1.2,2.6c0.3,0.9,1.2,1.4,2,1.3c0.2,0,0.4,0,0.6-0.1
			c0.2-0.1,0.4-0.2,0.5-0.3C113,119.9,113.3,118.9,113,118.1"/>
	</g>
	<g>
		<path class="st2" d="M97.8,123.7c-0.4-1-1.6-1.6-2.6-1.2c-1,0.4-1.6,1.6-1.2,2.6c0.3,0.9,1.2,1.4,2.1,1.3c0.2,0,0.4,0,0.5-0.1
			c0.2-0.1,0.3-0.2,0.5-0.3C97.8,125.5,98.2,124.6,97.8,123.7"/>
	</g>
	<g>
		<path class="st2" d="M82.7,129.4c-0.4-1-1.6-1.6-2.6-1.2c-1.1,0.4-1.6,1.6-1.2,2.6c0.3,0.9,1.2,1.4,2.1,1.3c0.2,0,0.3-0.1,0.5-0.1
			c0.2-0.1,0.3-0.1,0.4-0.2C82.7,131.2,83,130.3,82.7,129.4"/>
	</g>
	<g>
		<path class="st3" d="M140.7,140c3.1-1.2,4.7-4.7,3.6-7.8c-0.9-2.3-3-3.8-5.4-3.9l-16.5,18.5L140.7,140z"/>
	</g>
	<g>
		<path class="st4" d="M103.7,128l-6.4,11l-22.5,38.5l27.5-10.2c1.9-0.7,3.5-1.8,4.8-3.3l15.2-17.1l16.5-18.5l6.5-7.2l11.5-12.9
			L103.7,128z"/>
	</g>
	<g>
		<path class="st5" d="M84.6,48.4c-9.2,0-17.3,4.3-22.6,10.9c-2.1-0.7-4.3-1.2-6.6-1.2c-10.8,0-19.5,8.7-19.5,19.4h77.9
			C113.8,61.4,100.7,48.4,84.6,48.4"/>
	</g>
	<g>
		<g>
			<path class="st5" d="M183.6,190.9c-9.2,0-17.3,4.3-22.6,10.9c-2.1-0.7-4.3-1.2-6.6-1.2c-10.8,0-19.5,8.7-19.5,19.4h77.9
				C212.8,203.9,199.7,190.9,183.6,190.9"/>
		</g>
		<g>
			<path class="st0" d="M222.3,187.7c-6.5,0-12.3,3.1-16.1,7.8c-1.5-0.5-3-0.9-4.7-0.9c-7.6,0-13.8,6.2-13.8,13.8H243
				C243,197,233.7,187.7,222.3,187.7"/>
		</g>
	</g>
	<g>
		<path class="st0" d="M194.6,0.7c-6.5,0-12.3,3.1-16.1,7.7c-1.5-0.5-3-0.9-4.7-0.9c-7.6,0-13.8,6.2-13.8,13.8h55.3
			C215.3,9.9,206.1,0.7,194.6,0.7"/>
	</g>
</g>
</svg>
