<?xml version="1.0" encoding="utf-8"?>
<!-- Generator: Adobe Illustrator 25.2.0, SVG Export Plug-In . SVG Version: 6.00 Build 0)  -->
<svg version="1.1" id="Layer_1" xmlns="http://www.w3.org/2000/svg" xmlns:xlink="http://www.w3.org/1999/xlink" x="0px" y="0px"
	 viewBox="0 0 243 220" style="enable-background:new 0 0 243 220;" xml:space="preserve">
<style type="text/css">
	.st0{fill:#E6E7E8;}
	.st1{fill:#D1D3D4;}
	.st2{fill:#98D2DA;}
	.st3{fill:#F5F5F5;}
	.st4{fill:#00AFC2;}
	.st5{fill:#ABDDDB;}
	.st6{fill:#BCBEC0;}
	.st7{fill:#262262;}
	.st8{fill:#81CFD0;}
	.st9{fill:#F47920;}
	.st10{fill:#F68B1F;}
	.st11{fill:#F7941D;}
	.st12{fill:#302F75;}
	.st13{fill:#F7BC43;}
	.st14{fill:#F26D62;}
	.st15{fill:#C62F27;}
	.st16{fill:#D53F32;}
	.st17{fill:#EF8839;}
	.st18{fill:#F3AB43;}
	.st19{fill:#D5E5E5;}
	.st20{fill:#FFFFFF;}
	.st21{fill:#95A5A6;}
	.st22{fill:#B5C5C6;}
	.st23{fill:#A6B6B7;}
</style>
<g>
	<g>
		<path class="st5" d="M171.5,190.4c-9.4,0-17.6,4.4-23,11.1c-2.1-0.7-4.3-1.2-6.7-1.2c-11,0-19.8,8.8-19.8,19.8h79.4
			C201.2,203.6,187.9,190.4,171.5,190.4"/>
	</g>
	<g>
		<path class="st0" d="M220.5,80c-7.1,0-13.3,3.3-17.5,8.4c-1.6-0.6-3.3-0.9-5.1-0.9c-8.3,0-15,6.7-15,15H243
			C243,90,232.9,80,220.5,80"/>
	</g>
	<g>
		<path class="st0" d="M78.7,28c-3.9,0-7.3,1.8-9.6,4.6c-0.9-0.3-1.8-0.5-2.8-0.5c-4.6,0-8.3,3.7-8.3,8.2h33.1
			C91.1,33.5,85.6,28,78.7,28"/>
	</g>
	<g>
		<path class="st0" d="M29.5,0.3C23.9,0.3,19,3,15.8,7c-1.3-0.4-2.6-0.7-4-0.7C5.3,6.2,0,11.5,0,18h47.2C47.2,8.2,39.3,0.3,29.5,0.3
			"/>
	</g>
	<g>
		<path class="st14" d="M43.4,141.4c-2.1,1.8-4.2,3.7-6.3,5.8c-11.4,11.4-14.8,26.6-14.8,26.6s3.2-0.7,7.6-2.6
			c-5.6,8.1-8,16.2-8.7,18.6c2.4-0.6,10.5-3.1,18.6-8.7c-1.8,4.5-2.6,7.7-2.6,7.7s15.1-3.4,26.6-14.8c2.1-2.1,4.1-4.3,5.8-6.4
			L43.4,141.4z"/>
	</g>
	<g>
		<path class="st15" d="M43.5,141.5c-7.9,10.4-10.4,21.4-10.4,21.4s3.1-0.7,7.6-2.6c-5.6,8.1-8,16.2-8.7,18.6
			c2.4-0.6,10.5-3.1,18.6-8.7c-1.8,4.5-2.6,7.7-2.6,7.7s11.1-2.5,21.4-10.4L43.5,141.5z"/>
	</g>
	<g>
		<path class="st16" d="M90.6,97l-28.3,28.3c-0.6,0.6-1.7,0.6-2.3,0c-8.5-8.1-21.6-8.1-30,0.1c-0.2,0.2-0.5,0.4-0.8,0.4
			c-0.5,0.1-1.1,0-1.5-0.4l0,0c-0.6-0.7-0.6-1.7,0-2.4L55.7,95c9.5-9.5,25.2-9.7,34.9-0.3l0,0c0.3,0.3,0.5,0.7,0.5,1.2
			C91.1,96.3,90.9,96.7,90.6,97"/>
	</g>
	<g>
		<path class="st15" d="M89.9,97.7l-27.6,27.6c-0.7,0.6-1.7,0.6-2.3,0c-8.5-8.1-21.6-8.1-30,0.1c-0.2,0.2-0.5,0.4-0.8,0.4L56,99
			C65.2,89.8,80.1,89.3,89.9,97.7"/>
	</g>
	<g>
		<path class="st16" d="M115.2,121.3l-28.3,28.3c-0.7,0.6-0.7,1.7,0,2.3c8.1,8.5,8.1,21.6-0.1,30c-0.2,0.2-0.4,0.5-0.4,0.8
			c-0.1,0.5,0,1.1,0.4,1.5l0,0c0.7,0.7,1.7,0.6,2.4,0l28.1-28.1c9.5-9.5,9.7-25.2,0.3-34.9c0,0,0,0,0,0c-0.3-0.3-0.7-0.5-1.2-0.5
			C116,120.8,115.5,120.9,115.2,121.3"/>
	</g>
	<g>
		<path class="st15" d="M114.5,122l-27.6,27.6c-0.7,0.6-0.7,1.7,0,2.3c8.1,8.5,8.1,21.7-0.1,30c-0.2,0.2-0.4,0.5-0.4,0.8l26.9-26.9
			C122.5,146.7,122.9,131.7,114.5,122"/>
	</g>
	<g>
		<path class="st17" d="M140.7,110.3c-27.3,27.3-55.6,46.3-73.5,50.5c-6.9,1.7-12.2,1.1-15.3-2c-11.1-11.1,10.6-50.9,48.5-88.8
			C123,47.6,150,34.7,168.3,27.9c11.1-4.1,19-5.9,20.6-6.3c0.2-0.1,0.3-0.1,0.3-0.1s-1.8,8.5-6.4,21.1
			C176.1,60.9,163.2,87.9,140.7,110.3"/>
	</g>
	<g>
		<path class="st18" d="M140.7,110.3c-27.3,27.3-55.6,46.3-73.5,50.5c-2.8-18.7,18.2-55.6,52.7-90.1C136.7,54,154,40.5,169.4,31.3
			c6.9-4.1,13.5-7.4,19.5-9.7c0.2-0.1,0.3-0.1,0.3-0.1s-1.8,8.5-6.4,21.1C176.1,60.9,163.2,87.9,140.7,110.3"/>
	</g>
	<g>
		<path class="st15" d="M124.3,86.1c-6.8-6.8-6.8-17.9,0-24.7c6.8-6.8,17.8-6.8,24.6,0c6.8,6.8,6.8,17.9,0,24.6
			C142.1,92.9,131.1,92.9,124.3,86.1 M145.1,65.2c-4.7-4.7-12.4-4.7-17,0c-4.7,4.7-4.7,12.4,0,17.1c4.7,4.7,12.4,4.7,17.1,0
			C149.8,77.6,149.8,69.9,145.1,65.2"/>
	</g>
	<g>
		<path class="st19" d="M146,83.2c-5.2,5.2-13.7,5.2-19,0c-5.2-5.2-5.2-13.7,0-19c5.2-5.2,13.7-5.2,19,0
			C151.3,69.5,151.3,78,146,83.2"/>
	</g>
	<g>
		<path class="st20" d="M145.2,76.2c-1.7,1.7-4.5,1.7-6.3,0c-1.7-1.7-1.7-4.5,0-6.3c1.7-1.7,4.5-1.7,6.3,0
			C147,71.6,147,74.4,145.2,76.2"/>
	</g>
	<g>
		<path class="st21" d="M77.6,164.8l-4,4c-3.1,3.1-8.2,3.1-11.3,0L42,148.5c-3.1-3.1-3.1-8.2,0-11.3l4-3.9c3.1-3.1,8.2-3.1,11.3,0
			l20.3,20.3C80.7,156.7,80.7,161.7,77.6,164.8"/>
	</g>
	<g>
		<path class="st22" d="M77.6,164.8l-4,4c-3.1,3.1-8.2,3.1-11.3,0l-13.9-13.9c-3.1-3.1-3.1-8.2,0-11.3l3.9-4c3.1-3.1,8.2-3.1,11.3,0
			l13.9,13.9C80.7,156.7,80.7,161.7,77.6,164.8"/>
	</g>
	<g>
		<path class="st23" d="M71.9,159.1l-4,4c-3.1,3.1-8.2,3.1-11.3,0l-8.2-8.2c-3.1-3.1-3.1-8.2,0-11.3l4-3.9c3.1-3.1,8.2-3.1,11.3,0
			l8.2,8.2C75,150.9,75,156,71.9,159.1"/>
	</g>
	<g>
		<path class="st16" d="M182.8,42.6c-3.3-0.8-6.5-2.6-9.2-5.2c-1.8-1.8-3.2-3.9-4.2-6.1c0-0.1-0.1-0.2-0.1-0.3c-0.4-1-0.8-2-1-3
			c11.1-4.1,19-5.9,20.6-6.3c0.2-0.1,0.3-0.1,0.3-0.1l0,0l0,0C189.1,22.2,187.3,30.5,182.8,42.6"/>
	</g>
	<g>
		<path class="st15" d="M189.3,21.6L189.3,21.6c-4.6,1.6-13.5,5.1-20,9.4c-0.4-1-0.7-2-1-3c11.1-4.1,19-5.9,20.6-6.3L189.3,21.6
			L189.3,21.6z"/>
	</g>
	<g>
		<path class="st16" d="M61.2,154.7c-2.3,2.3-3.7,4.7-6.2,2.2c-2.5-2.5-0.1-3.9,2.2-6.2L98.7,104c2.3-2.3,6.2-2.1,8.7,0.4
			c2.5,2.5,2.7,6.4,0.4,8.7L61.2,154.7z"/>
	</g>
	<g>
		<path class="st15" d="M57.9,157.4c-0.9,0.9-2.4,0.8-3.3-0.1c-0.9-1-1-2.4-0.1-3.3l49.7-49.7c0.9-0.9,2.3-0.8,3.3,0.1
			c1,0.9,1,2.4,0.2,3.3L57.9,157.4z"/>
	</g>
</g>
</svg>
