<svg width="32" height="32" viewBox="0 0 32 32" fill="none" xmlns="http://www.w3.org/2000/svg">
<g clip-path="url(#clip0_66_1360)">
<path d="M25.5977 22.9694V20.8064C25.5977 19.7317 24.9434 18.7652 23.9455 18.366L21.2723 17.2967C20.0031 16.7891 18.5566 17.339 17.9453 18.5617L17.7127 19.0269C17.7127 19.0269 14.4272 18.3698 11.7989 15.7415C9.17051 13.1131 8.51342 9.82768 8.51342 9.82768L8.97866 9.59506C10.2013 8.98373 10.7513 7.53726 10.2436 6.26805L9.1743 3.59483C8.77515 2.59696 7.80868 1.94263 6.73394 1.94263H4.57089C3.11929 1.94263 1.94254 3.11938 1.94254 4.57098C1.94254 16.1838 11.3566 25.5978 22.9694 25.5978C24.421 25.5978 25.5977 24.421 25.5977 22.9694Z" stroke="#23262B" stroke-width="1.68966" stroke-linejoin="round"/>
</g>
<defs>
<clipPath id="clip0_66_1360">
<rect width="31.5402" height="31.5402" fill="white"/>
</clipPath>
</defs>
</svg>
