<svg id="Layer_1" data-name="Layer 1" xmlns="http://www.w3.org/2000/svg" viewBox="0 0 184 104">
  <defs>
    <style>
      .cls-1 {
        fill: #231f20;
      }
    </style>
  </defs>
  <g>
    <path class="cls-1" d="M82.65,19.69a.78.78,0,0,0-.75-.55H77.32V12a.79.79,0,0,0-.79-.79H71.79A.79.79,0,0,0,71,12v7.12H23.66a.79.79,0,0,0-.77.59L16.68,44a.79.79,0,0,0,.15.68.8.8,0,0,0,.62.31H19l-5,5a.73.73,0,0,0-.21.52A.72.72,0,0,0,14,51l2.54,2.38a.69.69,0,0,0,.49.19.73.73,0,0,0,.51-.21L21,49.94V80.76H18.64a.72.72,0,0,0-.72.72V85a.71.71,0,0,0,.72.71H88.76a.71.71,0,0,0,.71-.71V81.48a.71.71,0,0,0-.71-.72h-2V44.42h3a.79.79,0,0,0,.64-.33.76.76,0,0,0,.11-.7Zm-6.91-6.88V23.34H72.58V12.81ZM17.05,51.87l-1.49-1.4L41.89,23.84,68.21,50.47l-1.49,1.4L42.4,27.24a.74.74,0,0,0-1,0Zm51.56,7.75V56h4.76v3.61Zm6.34,0V56h4.58v3.61Zm4.58-5.19H75V50.62h4.58Zm-6.16,0H68.61V52.07L69.73,51a.73.73,0,0,0,.2-.39h3.44ZM22.55,48.34,41.89,28.77,61.52,48.64V80.76h-4V66.07a.71.71,0,0,0-.71-.72H44.5a.72.72,0,0,0-.72.72V80.76H22.55ZM56.13,80.76H45.21v-14H56.13ZM88,84.29H19.35v-2.1H88ZM63.1,80.76V50.24l3.1,3.13a.7.7,0,0,0,1,0v6.94a.72.72,0,0,0,.72.72H80.24a.72.72,0,0,0,.72-.72V49.9a.71.71,0,0,0-.72-.71H69l-4.72-4.78h21V80.76ZM86.27,42.84l-.13,0a.5.5,0,0,0-.13,0H63.1a.73.73,0,0,0-.33.08L42.4,22.32a.74.74,0,0,0-1,0L20.55,43.39l-.11,0h-2l5.8-22.65H71v3.41a.79.79,0,0,0,.79.79h4.74a.79.79,0,0,0,.79-.79V20.72h4l7.36,22.12Z"/>
    <path class="cls-1" d="M53.71,75.16a.75.75,0,0,0,.75-.74V71.77a.76.76,0,0,0-.75-.75.75.75,0,0,0-.74.75v2.65A.74.74,0,0,0,53.71,75.16Z"/>
    <path class="cls-1" d="M39.42,65.66H27.07a.71.71,0,0,0-.72.71V76.81a.72.72,0,0,0,.72.72H39.42a.72.72,0,0,0,.72-.72V66.37A.71.71,0,0,0,39.42,65.66Zm-.71,5.1H34.13V67.09h4.58Zm-6.16-3.67v3.67H27.79V67.09Zm-4.76,5.25h4.76V76.1H27.79Zm6.34,3.76V72.34h4.58V76.1Z"/>
    <path class="cls-1" d="M80.24,65.66H67.89a.71.71,0,0,0-.72.71V76.81a.72.72,0,0,0,.72.72H80.24a.72.72,0,0,0,.72-.72V66.37A.71.71,0,0,0,80.24,65.66Zm-.71,5.1H75V67.09h4.58Zm-6.16-3.67v3.67H68.61V67.09Zm-4.76,5.25h4.76V76.1H68.61ZM75,76.1V72.34h4.58V76.1Z"/>
    <path class="cls-1" d="M27.07,60.82H39.42a.72.72,0,0,0,.72-.72V49.66a.71.71,0,0,0-.72-.71H27.07a.71.71,0,0,0-.72.71V60.1A.72.72,0,0,0,27.07,60.82Zm.72-5.34h4.76v3.91H27.79Zm6.34,3.91V55.48h4.58v3.91Zm4.58-5.49H34.13V50.38h4.58Zm-6.16-3.52V53.9H27.79V50.38Z"/>
    <path class="cls-1" d="M44.5,49a.71.71,0,0,0-.72.71V60.1a.72.72,0,0,0,.72.72H56.85a.71.71,0,0,0,.71-.72V54.72s0,0,0,0,0,0,0,0v-5a.71.71,0,0,0-.71-.71Zm5.43,1.43V53.9H45.21V50.38Zm-4.72,5.1h4.72v3.91H45.21Zm6.3,3.91V55.48h4.62v3.91Zm4.62-5.49H51.51V50.38h4.62Z"/>
    <path class="cls-1" d="M35.19,46H48.88a.79.79,0,0,0,0-1.58h-.53V36.78a.79.79,0,0,0-.79-.79H36.5a.8.8,0,0,0-.79.79v7.64h-.52a.79.79,0,0,0,0,1.58Zm11.58-1.58H43.09V37.57h3.68Zm-9.48-6.85h4.22v2.64H40.45a.79.79,0,1,0,0,1.58h1.06v2.63H37.29Z"/>
    <path class="cls-1" d="M164.62,33.9a4.05,4.05,0,0,0-4.09-4.09H113.94a4.2,4.2,0,0,0-3,1.28,3.81,3.81,0,0,0-1.07,2.83v8.26a.75.75,0,1,0,1.5,0V33.86a2.34,2.34,0,0,1,.66-1.74,2.69,2.69,0,0,1,1.94-.82h46.59a2.57,2.57,0,0,1,2.59,2.6V61.61a2.57,2.57,0,0,1-2.59,2.6H129a.75.75,0,0,0,0,1.49h31.55a4.05,4.05,0,0,0,4.09-4.09Z"/>
    <path class="cls-1" d="M143.48,34.47a.75.75,0,0,0-.75-.74H129a.74.74,0,0,0-.74.74v7.46a.74.74,0,0,0,.74.74h13.75a.75.75,0,0,0,.75-.74ZM142,41.18H129.73v-6H142Z"/>
    <path class="cls-1" d="M160,33.73H146.43a.74.74,0,0,0-.74.74v7.46a.74.74,0,0,0,.74.74H160a.75.75,0,0,0,.75-.74V34.47A.75.75,0,0,0,160,33.73Zm-.75,7.45H147.18v-6h12.07Z"/>
    <path class="cls-1" d="M143.38,46a.74.74,0,0,0-.75-.74H129a.74.74,0,0,0-.74.74v7.46a.74.74,0,0,0,.74.74h13.65a.74.74,0,0,0,.75-.74Zm-1.49,6.71H129.73v-6h12.16Z"/>
    <path class="cls-1" d="M160.8,46a.75.75,0,0,0-.75-.74H146.48a.75.75,0,0,0-.75.74v7.46a.75.75,0,0,0,.75.74h13.57a.75.75,0,0,0,.75-.74Zm-1.5,6.71H147.23v-6H159.3Z"/>
    <path class="cls-1" d="M142.63,61.78a.74.74,0,0,0,.75-.74V57.12a.75.75,0,0,0-.75-.75H129a.75.75,0,0,0-.74.75V61a.75.75,0,0,0,1.49,0V57.87h12.16V61A.74.74,0,0,0,142.63,61.78Z"/>
    <path class="cls-1" d="M160.05,61.78a.75.75,0,0,0,.75-.74V57.12a.76.76,0,0,0-.75-.75H146.48a.76.76,0,0,0-.75.75V61a.75.75,0,0,0,1.5,0V57.87H159.3V61A.75.75,0,0,0,160.05,61.78Z"/>
    <path class="cls-1" d="M122.57,45.29H110.68a3.27,3.27,0,0,0-3.27,3.26V74.09a3.28,3.28,0,0,0,3.27,3.27h11.89a3.28,3.28,0,0,0,3.27-3.27V48.55A3.27,3.27,0,0,0,122.57,45.29Zm0,30.58H110.68a1.78,1.78,0,0,1-1.77-1.78V48.55a1.77,1.77,0,0,1,1.77-1.77h1.38c.16.37.32.75.44,1.06a1,1,0,0,0,.9.61h6a1,1,0,0,0,.9-.61c.13-.31.28-.69.44-1.06h1.85a1.77,1.77,0,0,1,1.77,1.77V74.09A1.78,1.78,0,0,1,122.57,75.87Z"/>
    <path class="cls-1" d="M150.33,71.12a65.69,65.69,0,0,0-12.17-1.4V68a.75.75,0,1,0-1.49,0v1.73a57.64,57.64,0,0,0-8,.57.75.75,0,1,0,.22,1.48,61,61,0,0,1,21.17.82h.15a.74.74,0,0,0,.16-1.47Z"/>
    <path class="cls-1" d="M125,37.52H114.35a.75.75,0,0,0-.74.75.74.74,0,0,0,.74.74H125a.75.75,0,0,0,.75-.74A.76.76,0,0,0,125,37.52Z"/>
    <path class="cls-1" d="M114.4,41.32a.74.74,0,0,0-.75.74.75.75,0,0,0,.75.75H125a.75.75,0,0,0,.74-.75.74.74,0,0,0-.74-.74Z"/>
    <path class="cls-1" d="M124.93,33.73H114.31a.75.75,0,1,0,0,1.49h10.62a.75.75,0,0,0,0-1.49Z"/>
  </g>
</svg>
