<svg id="Layer_1" data-name="Layer 1" xmlns="http://www.w3.org/2000/svg" viewBox="0 0 184 104">
  <defs>
    <style>
      .cls-1 {
        fill: #231f20;
      }
    </style>
  </defs>
  <g>
    <path class="cls-1" d="M109.87,38h46.54a4.05,4.05,0,0,0,4.09-4.09V6.24a4,4,0,0,0-4.09-4.08H109.87a4.22,4.22,0,0,0-3,1.28,3.84,3.84,0,0,0-1.06,2.82V33.93A4.05,4.05,0,0,0,109.87,38Zm46.54-1.49H109.87a2.57,2.57,0,0,1-2.6-2.6v-1.3H159v1.3A2.57,2.57,0,0,1,156.41,36.53ZM107.93,4.47a2.67,2.67,0,0,1,1.94-.82h46.54A2.57,2.57,0,0,1,159,6.24v24.9H138.09l2.46-4.84a.75.75,0,0,0-.33-1,.74.74,0,0,0-1,.33l-2.8,5.51H119.35l5.32-10.49a.74.74,0,0,0-.32-1,.76.76,0,0,0-1,.32l-5.66,11.17h-2.59l8.59-17.34a.74.74,0,0,0-.33-1,.75.75,0,0,0-1,.34l-8.92,18h-6.16V6.21A2.34,2.34,0,0,1,107.93,4.47Z"/>
    <path class="cls-1" d="M134,42V40.28a.75.75,0,0,0-.75-.75.74.74,0,0,0-.74.75V42a47.33,47.33,0,0,0-12.3,1.43.75.75,0,0,0-.5.93.74.74,0,0,0,.71.53.76.76,0,0,0,.21,0c.11,0,10.63-3,25.23,0a.75.75,0,0,0,.3-1.47A66.94,66.94,0,0,0,134,42Z"/>
    <path class="cls-1" d="M78.38,17.77a.8.8,0,0,0-.75-.54H73V10.1a.79.79,0,0,0-.79-.79H67.51a.8.8,0,0,0-.79.79v7.13H19.38a.79.79,0,0,0-.77.59l-6.2,24.23a.79.79,0,0,0,.14.68.8.8,0,0,0,.62.31h1.56l-5,5a.72.72,0,0,0-.21.52.78.78,0,0,0,.23.51l2.53,2.38a.7.7,0,0,0,.49.19.73.73,0,0,0,.51-.21L16.69,48V78.85H14.36a.72.72,0,0,0-.72.72V83.1a.71.71,0,0,0,.72.71H84.48a.71.71,0,0,0,.71-.71V79.57a.71.71,0,0,0-.71-.72h-2V42.51h3a.77.77,0,0,0,.64-.33.76.76,0,0,0,.11-.7Zm-6.92-6.88V21.43H68.3V10.89ZM12.77,50l-1.49-1.4L37.61,21.93,63.94,48.56,62.45,50,38.12,25.33a.74.74,0,0,0-1,0Zm51.56,7.75V54.1h4.76v3.61Zm6.34,0V54.1h4.58v3.61Zm4.58-5.19H70.67V48.71h4.58Zm-6.16,0H64.33V50.19s0,0,0,0l1.13-1.06a.77.77,0,0,0,.2-.39h3.44ZM18.27,46.43,37.61,26.86,57.24,46.73V78.85h-4V64.15a.71.71,0,0,0-.72-.71H40.22a.71.71,0,0,0-.72.71v14.7H18.27ZM51.85,78.85H40.93v-14H51.85Zm31.91,3.53H15.08v-2.1H83.76ZM58.82,78.85V48.33l3.1,3.13a.71.71,0,0,0,1,0v6.94a.72.72,0,0,0,.71.72H76a.72.72,0,0,0,.71-.72V48a.71.71,0,0,0-.71-.71H64.69L60,42.51h21V78.85ZM82,40.93a.5.5,0,0,0-.13,0,.7.7,0,0,0-.14,0H58.82c-.76,0-.23,0-.33.08L38.12,20.41a.74.74,0,0,0-1,0L16.27,41.48l-.11,0h-2L20,18.81H66.72v3.41a.8.8,0,0,0,.79.79h4.74a.79.79,0,0,0,.79-.79V18.81h4l7.37,22.12Z"/>
    <path class="cls-1" d="M49.43,73.25a.74.74,0,0,0,.75-.74V69.86a.75.75,0,1,0-1.49,0v2.65A.74.74,0,0,0,49.43,73.25Z"/>
    <path class="cls-1" d="M35.14,63.75H22.79a.71.71,0,0,0-.71.71V74.9a.71.71,0,0,0,.71.72H35.14a.72.72,0,0,0,.72-.72V64.46A.71.71,0,0,0,35.14,63.75Zm-.71,5.09H29.86V65.18h4.57Zm-6.15-3.66v3.66H23.51V65.18Zm-4.77,5.24h4.77v3.76H23.51Zm6.35,3.76V70.42h4.57v3.76Z"/>
    <path class="cls-1" d="M76,63.75H63.61a.71.71,0,0,0-.71.71V74.9a.71.71,0,0,0,.71.72H76a.71.71,0,0,0,.71-.72V64.46A.71.71,0,0,0,76,63.75Zm-.72,5.09H70.67V65.18h4.58Zm-6.16-3.66v3.66H64.33V65.18Zm-4.76,5.24h4.76v3.76H64.33Zm6.34,3.76V70.42h4.58v3.76Z"/>
    <path class="cls-1" d="M22.79,58.91H35.14a.72.72,0,0,0,.72-.72V47.75a.71.71,0,0,0-.72-.71H22.79a.71.71,0,0,0-.71.71V58.19A.71.71,0,0,0,22.79,58.91Zm.72-5.34h4.77v3.9H23.51Zm6.35,3.9v-3.9h4.57v3.9ZM34.43,52H29.86V48.47h4.57Zm-6.15-3.52V52H23.51V48.47Z"/>
    <path class="cls-1" d="M40.22,47a.71.71,0,0,0-.72.71V58.19a.72.72,0,0,0,.72.72H52.57a.72.72,0,0,0,.72-.72V47.75a.71.71,0,0,0-.72-.71Zm5.44,1.43V52H40.93V48.47Zm-4.73,5.1h4.73v3.9H40.93Zm6.31,3.9v-3.9h4.61v3.9ZM51.85,52H47.24V48.47h4.61Z"/>
    <path class="cls-1" d="M30.91,44.09H44.6a.79.79,0,0,0,0-1.58h-.52V34.87a.8.8,0,0,0-.79-.79H32.23a.79.79,0,0,0-.79.79v7.64h-.53a.79.79,0,0,0,0,1.58ZM42.5,42.51H38.81V35.66H42.5ZM33,35.66h4.21V38.3h-1a.79.79,0,0,0,0,1.58h1v2.63H33Z"/>
    <path class="cls-1" d="M156.28,53.85H109.7a4.22,4.22,0,0,0-3,1.28A3.84,3.84,0,0,0,105.61,58v8.26a.75.75,0,1,0,1.49,0V57.9a2.34,2.34,0,0,1,.66-1.74,2.67,2.67,0,0,1,1.94-.82h46.58a2.57,2.57,0,0,1,2.6,2.6V85.65a2.57,2.57,0,0,1-2.6,2.6H124.74a.75.75,0,1,0,0,1.49h31.54a4,4,0,0,0,4.09-4.09V57.94A4,4,0,0,0,156.28,53.85Z"/>
    <path class="cls-1" d="M124.74,66.71h13.75a.74.74,0,0,0,.74-.75V58.51a.75.75,0,0,0-.74-.75H124.74a.76.76,0,0,0-.75.75V66A.75.75,0,0,0,124.74,66.71Zm.75-7.45h12.25v6H125.49Z"/>
    <path class="cls-1" d="M155.76,57.76H142.19a.76.76,0,0,0-.75.75V66a.75.75,0,0,0,.75.75h13.57a.74.74,0,0,0,.74-.75V58.51A.75.75,0,0,0,155.76,57.76ZM155,65.22H142.94v-6H155Z"/>
    <path class="cls-1" d="M124,77.53a.75.75,0,0,0,.75.74h13.65a.75.75,0,0,0,.75-.74V70.07a.75.75,0,0,0-.75-.74H124.74a.75.75,0,0,0-.75.74Zm1.5-6.71h12.15v6H125.49Z"/>
    <path class="cls-1" d="M155.8,69.33H142.24a.74.74,0,0,0-.75.74v7.46a.74.74,0,0,0,.75.74H155.8a.74.74,0,0,0,.75-.74V70.07A.74.74,0,0,0,155.8,69.33Zm-.74,7.45H143v-6h12.08Z"/>
    <path class="cls-1" d="M138.39,85.82a.75.75,0,0,0,.75-.74V81.16a.76.76,0,0,0-.75-.75H124.74a.76.76,0,0,0-.75.75v3.92a.75.75,0,0,0,1.5,0V81.9h12.15v3.18A.75.75,0,0,0,138.39,85.82Z"/>
    <path class="cls-1" d="M155.8,80.41H142.24a.75.75,0,0,0-.75.75v3.92a.75.75,0,0,0,1.49,0V81.9h12.08v3.18a.75.75,0,0,0,1.49,0V81.16A.75.75,0,0,0,155.8,80.41Z"/>
    <path class="cls-1" d="M118.33,69.33H106.44a3.27,3.27,0,0,0-3.27,3.26V98.13a3.28,3.28,0,0,0,3.27,3.27h11.89a3.27,3.27,0,0,0,3.26-3.27V72.59A3.26,3.26,0,0,0,118.33,69.33Zm0,30.57H106.44a1.78,1.78,0,0,1-1.78-1.77V72.59a1.78,1.78,0,0,1,1.78-1.77h1.38c.16.37.31.75.44,1.06a1,1,0,0,0,.9.61h6a1,1,0,0,0,.91-.61c.12-.31.28-.69.43-1.06h1.86a1.77,1.77,0,0,1,1.77,1.77V98.13A1.77,1.77,0,0,1,118.33,99.9Z"/>
    <path class="cls-1" d="M146.08,95.15a66.28,66.28,0,0,0-12.16-1.39V92a.75.75,0,0,0-1.5,0v1.73a57.6,57.6,0,0,0-8,.57.75.75,0,0,0,.21,1.48,61.1,61.1,0,0,1,21.18.82h.15a.74.74,0,0,0,.73-.59A.75.75,0,0,0,146.08,95.15Z"/>
    <path class="cls-1" d="M120.74,61.56H110.11a.75.75,0,1,0,0,1.49h10.63a.75.75,0,1,0,0-1.49Z"/>
    <path class="cls-1" d="M110.15,65.35a.75.75,0,0,0,0,1.5h10.64a.75.75,0,0,0,0-1.5Z"/>
    <path class="cls-1" d="M120.68,57.76H110.07a.75.75,0,0,0,0,1.5h10.61a.75.75,0,0,0,0-1.5Z"/>
  </g>
</svg>
