<svg width="64" height="64" viewBox="0 0 64 64" fill="none" xmlns="http://www.w3.org/2000/svg">
<path d="M32 0C14.3552 0 0 14.3552 0 32C0 32.7797 0.631906 33.4118 1.41176 33.4118C2.19162 33.4118 2.82353 32.7797 2.82353 32C2.82353 15.9121 15.9119 2.82353 32 2.82353C48.0881 2.82353 61.1765 15.9121 61.1765 32C61.1765 48.0879 48.0881 61.1765 32 61.1765C26.0422 61.1765 20.3127 59.3929 15.4312 56.0188C10.6601 52.7211 7.01064 48.1408 4.8768 42.7733C4.5888 42.0488 3.76753 41.6949 3.04339 41.9829C2.31868 42.2709 1.96499 43.0918 2.25299 43.8163C4.59351 49.7033 8.59501 54.726 13.8257 58.3416C19.1812 62.0433 25.4658 64 32 64C49.6448 64 64 49.6448 64 32C64 14.3552 49.6448 0 32 0Z" fill="#272727"/>
<path d="M31.999 7.42688C18.4494 7.42688 7.42578 18.4503 7.42578 32.0001C7.42578 45.5498 18.4494 56.5732 31.999 56.5732C45.5485 56.5732 56.5721 45.5498 56.5721 32.0001C56.5721 24.6128 53.2935 17.6855 47.5767 12.9947C46.974 12.5002 46.0844 12.5875 45.5897 13.1906C45.0951 13.7934 45.1828 14.683 45.7855 15.1775C50.8462 19.3299 53.7486 25.4615 53.7486 32.0002C53.7486 43.9931 43.9918 53.7499 31.999 53.7499C20.0061 53.7499 10.2493 43.9929 10.2493 32.0001C10.2493 20.0072 20.0061 10.2504 31.999 10.2504C32.7788 10.2504 33.4107 9.61832 33.4107 8.83864C33.4107 8.05897 32.7788 7.42688 31.999 7.42688Z" fill="#272727"/>
<path d="M31.9977 14.6606C31.2178 14.6606 30.5859 15.2927 30.5859 16.0724V31.9999C30.5859 32.3743 30.7346 32.7335 30.9993 32.9981L37.1531 39.1519C37.4289 39.4275 37.7903 39.5655 38.1515 39.5655C38.5127 39.5655 38.8741 39.4277 39.1499 39.1519C39.7012 38.6006 39.7012 37.7067 39.1499 37.1555L33.4095 31.4153V16.0724C33.4095 15.2927 32.7776 14.6606 31.9977 14.6606Z" fill="#272727"/>
</svg>
