<svg width="25" height="24" viewBox="0 0 25 24" fill="none" xmlns="http://www.w3.org/2000/svg">
<path d="M0.372247 0.357247C-0.124031 0.833526 -0.124031 1.60579 0.372247 2.08207L10.7032 11.9999L0.372092 21.9179C-0.124031 22.3942 -0.124031 23.1665 0.372092 23.6428C0.868216 24.1191 1.67265 24.1191 2.16877 23.6428L12.5 13.7248L22.8312 23.6428C23.3273 24.1191 24.1317 24.1191 24.6278 23.6428C25.124 23.1665 25.1241 22.3942 24.6278 21.9179L14.2967 12L24.6278 2.08207C25.124 1.60579 25.124 0.833526 24.6278 0.35721C24.1316 -0.11907 23.3273 -0.11907 22.831 0.35721L12.4999 10.2751L2.16893 0.357247C1.67281 -0.11907 0.868371 -0.11907 0.372247 0.357247Z" fill="#C5C5C5"/>
</svg>
