<svg id="Layer_1" data-name="Layer 1" xmlns="http://www.w3.org/2000/svg" viewBox="0 0 184 104">
  <defs>
    <style>
      .cls-1 {
        fill: #231f20;
      }
    </style>
  </defs>
  <g>
    <path class="cls-1" d="M168.77,38.21a4,4,0,0,0-4.09-4.09H118.1a4.19,4.19,0,0,0-3,1.29A3.81,3.81,0,0,0,114,38.23v8.26a.75.75,0,1,0,1.49,0V38.17a2.34,2.34,0,0,1,.66-1.74,2.67,2.67,0,0,1,1.94-.82h46.58a2.57,2.57,0,0,1,2.6,2.6V65.92a2.57,2.57,0,0,1-2.6,2.6H133.14a.75.75,0,0,0,0,1.49h31.54a4.05,4.05,0,0,0,4.1-4.09Z"/>
    <path class="cls-1" d="M133.14,47h13.75a.74.74,0,0,0,.74-.74V38.78a.74.74,0,0,0-.74-.74H133.14a.74.74,0,0,0-.74.74v7.46A.74.74,0,0,0,133.14,47Zm.75-7.45h12.25v6H133.89Z"/>
    <path class="cls-1" d="M164.16,38H150.59a.75.75,0,0,0-.75.74v7.46a.75.75,0,0,0,.75.74h13.57a.74.74,0,0,0,.74-.74V38.78A.74.74,0,0,0,164.16,38Zm-.75,7.45H151.34v-6h12.07Z"/>
    <path class="cls-1" d="M132.4,57.8a.75.75,0,0,0,.74.75h13.65a.76.76,0,0,0,.75-.75V50.35a.75.75,0,0,0-.75-.75H133.14a.74.74,0,0,0-.74.75ZM146,51.09v6H133.89v-6Z"/>
    <path class="cls-1" d="M164.21,49.6H150.64a.75.75,0,0,0-.75.75V57.8a.76.76,0,0,0,.75.75h13.57a.75.75,0,0,0,.74-.75V50.35A.74.74,0,0,0,164.21,49.6Zm-.75,7.45H151.38v-6h12.08Z"/>
    <path class="cls-1" d="M146.79,66.09a.75.75,0,0,0,.75-.74V61.43a.76.76,0,0,0-.75-.75H133.14a.75.75,0,0,0-.74.75v3.92a.74.74,0,0,0,.74.74.75.75,0,0,0,.75-.74V62.18H146v3.17A.75.75,0,0,0,146.79,66.09Z"/>
    <path class="cls-1" d="M164.21,66.09a.74.74,0,0,0,.74-.74V61.43a.75.75,0,0,0-.74-.75H150.64a.76.76,0,0,0-.75.75v3.92a.75.75,0,0,0,.75.74.74.74,0,0,0,.74-.74V62.18h12.08v3.17A.74.74,0,0,0,164.21,66.09Z"/>
    <path class="cls-1" d="M126.73,49.6H114.84a3.27,3.27,0,0,0-3.27,3.26V78.41a3.27,3.27,0,0,0,3.27,3.26h11.89A3.26,3.26,0,0,0,130,78.41V52.86A3.26,3.26,0,0,0,126.73,49.6Zm0,30.58H114.84a1.77,1.77,0,0,1-1.77-1.77V52.86a1.77,1.77,0,0,1,1.77-1.77h1.38c.16.37.31.76.44,1.06a1,1,0,0,0,.9.61h6a1,1,0,0,0,.91-.61l.43-1.06h1.86a1.77,1.77,0,0,1,1.77,1.77V78.41A1.77,1.77,0,0,1,126.73,80.18Z"/>
    <path class="cls-1" d="M154.48,75.43A65.5,65.5,0,0,0,142.32,74V72.29a.76.76,0,0,0-.75-.75.75.75,0,0,0-.74.75V74a57.64,57.64,0,0,0-8,.57.75.75,0,0,0-.63.85.74.74,0,0,0,.84.63,61.35,61.35,0,0,1,21.18.82h.15a.74.74,0,0,0,.15-1.47Z"/>
    <path class="cls-1" d="M129.14,41.83H118.51a.75.75,0,0,0,0,1.5h10.63a.75.75,0,0,0,0-1.5Z"/>
    <path class="cls-1" d="M118.55,45.63a.75.75,0,0,0,0,1.49H129.2a.75.75,0,0,0,0-1.49Z"/>
    <path class="cls-1" d="M129.08,38H118.47a.75.75,0,1,0,0,1.49h10.61a.75.75,0,1,0,0-1.49Z"/>
    <path class="cls-1" d="M56.92,27.72a.75.75,0,0,0,.75-.74V23.16h3.81a.75.75,0,1,0,0-1.49H56.92a.75.75,0,0,0-.75.74V27A.75.75,0,0,0,56.92,27.72Z"/>
    <path class="cls-1" d="M56.92,38a.75.75,0,0,0,.75-.74V33.43h3.81a.75.75,0,0,0,.75-.75.74.74,0,0,0-.75-.74H56.92a.75.75,0,0,0-.75.74v4.57A.75.75,0,0,0,56.92,38Z"/>
    <path class="cls-1" d="M61.48,42.2H56.92a.76.76,0,0,0-.75.75v4.56a.75.75,0,1,0,1.5,0V43.7h3.81a.75.75,0,1,0,0-1.5Z"/>
    <path class="cls-1" d="M56.92,58.53a.76.76,0,0,0,.75-.75V54h3.81a.74.74,0,0,0,.75-.74.75.75,0,0,0-.75-.75H56.92a.76.76,0,0,0-.75.75v4.56A.76.76,0,0,0,56.92,58.53Z"/>
    <path class="cls-1" d="M61.48,62.74H56.92a.75.75,0,0,0-.75.75v4.56a.75.75,0,0,0,1.5,0V64.23h3.81a.75.75,0,1,0,0-1.49Z"/>
    <path class="cls-1" d="M61.48,73H56.92a.75.75,0,0,0-.75.74v4.57a.75.75,0,0,0,1.5,0V74.5h3.81a.75.75,0,1,0,0-1.49Z"/>
    <path class="cls-1" d="M26.15,48.47a.75.75,0,0,0,.75-.74V43.91h3.82a.75.75,0,0,0,0-1.49H26.15a.75.75,0,0,0-.75.74v4.57A.75.75,0,0,0,26.15,48.47Z"/>
    <path class="cls-1" d="M26.15,58.67a.75.75,0,0,0,.75-.74V54.11h3.82a.75.75,0,0,0,0-1.49H26.15a.75.75,0,0,0-.75.74v4.57A.75.75,0,0,0,26.15,58.67Z"/>
    <path class="cls-1" d="M25.4,68.13a.75.75,0,0,0,1.5,0V64.31h3.82a.75.75,0,0,0,.74-.75.74.74,0,0,0-.74-.74H26.15a.75.75,0,0,0-.75.74Z"/>
    <path class="cls-1" d="M30.72,73H26.15a.75.75,0,0,0-.75.74v4.57a.75.75,0,0,0,1.5,0V74.51h3.82a.75.75,0,0,0,.74-.75A.74.74,0,0,0,30.72,73Z"/>
    <path class="cls-1" d="M35.23,48.47a.75.75,0,0,0,.75-.74V43.91h3.81a.75.75,0,1,0,0-1.49H35.23a.75.75,0,0,0-.75.74v4.57A.75.75,0,0,0,35.23,48.47Z"/>
    <path class="cls-1" d="M35.23,58.67a.75.75,0,0,0,.75-.74V54.11h3.81a.75.75,0,1,0,0-1.49H35.23a.75.75,0,0,0-.75.74v4.57A.75.75,0,0,0,35.23,58.67Z"/>
    <path class="cls-1" d="M35.23,68.87a.75.75,0,0,0,.75-.74V64.31h3.81a.75.75,0,0,0,.75-.75.74.74,0,0,0-.75-.74H35.23a.75.75,0,0,0-.75.74v4.57A.75.75,0,0,0,35.23,68.87Z"/>
    <path class="cls-1" d="M39.79,73H35.23a.75.75,0,0,0-.75.74v4.57a.75.75,0,0,0,1.5,0V74.51h3.81a.75.75,0,0,0,.75-.75A.74.74,0,0,0,39.79,73Z"/>
    <path class="cls-1" d="M67.53,27.73a.75.75,0,0,0,.74-.75V23.16h3.82a.75.75,0,1,0,0-1.49H67.53a.74.74,0,0,0-.75.74V27A.75.75,0,0,0,67.53,27.73Z"/>
    <path class="cls-1" d="M72.09,31.94H67.53a.74.74,0,0,0-.75.74v4.57a.75.75,0,0,0,1.49,0V33.43h3.82a.76.76,0,0,0,.75-.75A.75.75,0,0,0,72.09,31.94Z"/>
    <path class="cls-1" d="M67.53,48.26a.74.74,0,0,0,.74-.75V43.7h3.82a.75.75,0,0,0,0-1.5H67.53a.75.75,0,0,0-.75.75v4.56A.74.74,0,0,0,67.53,48.26Z"/>
    <path class="cls-1" d="M72.09,52.47H67.53a.75.75,0,0,0-.75.75v4.56a.75.75,0,1,0,1.49,0V54h3.82a.75.75,0,0,0,.75-.74A.76.76,0,0,0,72.09,52.47Z"/>
    <path class="cls-1" d="M67.53,68.8a.75.75,0,0,0,.74-.75V64.23h3.82a.75.75,0,1,0,0-1.49H67.53a.74.74,0,0,0-.75.75v4.56A.75.75,0,0,0,67.53,68.8Z"/>
    <path class="cls-1" d="M72.09,73H67.53a.75.75,0,0,0-.75.74v4.57a.75.75,0,0,0,.75.74.74.74,0,0,0,.74-.74V74.5h3.82a.75.75,0,1,0,0-1.49Z"/>
    <path class="cls-1" d="M77.77,27.73a.76.76,0,0,0,.75-.75V23.16h3.81a.75.75,0,1,0,0-1.49H77.77a.75.75,0,0,0-.75.74V27A.76.76,0,0,0,77.77,27.73Z"/>
    <path class="cls-1" d="M77.77,38a.75.75,0,0,0,.75-.74V33.43h3.81a.75.75,0,0,0,.75-.75.74.74,0,0,0-.75-.74H77.77a.75.75,0,0,0-.75.74v4.57A.75.75,0,0,0,77.77,38Z"/>
    <path class="cls-1" d="M77.77,48.26a.75.75,0,0,0,.75-.75V43.7h3.81a.75.75,0,0,0,0-1.5H77.77A.76.76,0,0,0,77,43v4.56A.75.75,0,0,0,77.77,48.26Z"/>
    <path class="cls-1" d="M82.33,52.47H77.77a.76.76,0,0,0-.75.75v4.56a.75.75,0,1,0,1.5,0V54h3.81a.74.74,0,0,0,.75-.74A.75.75,0,0,0,82.33,52.47Z"/>
    <path class="cls-1" d="M77.77,68.8a.76.76,0,0,0,.75-.75V64.23h3.81a.75.75,0,1,0,0-1.49H77.77a.75.75,0,0,0-.75.75v4.56A.76.76,0,0,0,77.77,68.8Z"/>
    <path class="cls-1" d="M82.33,73H77.77a.75.75,0,0,0-.75.74v4.57a.75.75,0,0,0,1.5,0V74.5h3.81a.75.75,0,1,0,0-1.49Z"/>
    <path class="cls-1" d="M93.89,90.13H92.21V21.76a.74.74,0,0,0-.74-.75H88V15.57a.76.76,0,0,0-.75-.75H82.87V9.6a.76.76,0,0,0-.75-.75H56.49a.76.76,0,0,0-.75.75v5.22h-4a.76.76,0,0,0-.75.75V21H47.49a.74.74,0,0,0-.74.75V35.49H43.63V31.76a.74.74,0,0,0-.75-.74H22.36a.75.75,0,0,0-.75.74v3.73H17.75a.76.76,0,0,0-.75.75V90.13H16a.76.76,0,0,0-.75.75V94.4a.76.76,0,0,0,.75.75H93.89a.76.76,0,0,0,.75-.75V90.88A.76.76,0,0,0,93.89,90.13ZM90.72,22.5V90.13H88V22.5ZM57.24,10.35H81.37v4.47H57.24Zm29.22,6V90.13H74.24V82.72a.74.74,0,0,0-.74-.75H66.13a.75.75,0,0,0-.75.75v7.41H52.5V21.76h0V16.31ZM66.88,90.13V83.46h2.29v6.67Zm3.78,0V83.46h2.08v6.67ZM51,22.5V90.13H48.24V36.24h0V22.5ZM46.75,37V90.13H43.63V37Zm-4.61-4.48v3.73h0V90.13H37.4V82.72a.75.75,0,0,0-.75-.75H29.29a.74.74,0,0,0-.74.75v7.41H23.1V32.51ZM30,83.46h2.29v6.67H30Zm3.79,0h2.08v6.67H33.83ZM18.5,37h3.11V90.13H18.5ZM93.15,93.65H16.72v-2H93.15Z"/>
  </g>
</svg>
