<svg id="Layer_1" data-name="Layer 1" xmlns="http://www.w3.org/2000/svg" viewBox="0 0 184 104">
  <defs>
    <style>
      .cls-1 {
        fill: #231f20;
      }
    </style>
  </defs>
  <g>
    <path class="cls-1" d="M118.23,38.31h46.54a4,4,0,0,0,4.08-4.09V6.53a4,4,0,0,0-4.08-4.08H118.23a4.22,4.22,0,0,0-3,1.28,3.84,3.84,0,0,0-1.06,2.82V34.22A4,4,0,0,0,118.23,38.31Zm46.54-1.49H118.23a2.57,2.57,0,0,1-2.6-2.6v-1.3h51.73v1.3A2.57,2.57,0,0,1,164.77,36.82ZM116.28,4.76a2.71,2.71,0,0,1,2-.82h46.54a2.57,2.57,0,0,1,2.59,2.59v24.9H146.45l2.45-4.84a.74.74,0,1,0-1.33-.67l-2.8,5.51H127.71L133,20.94a.74.74,0,0,0-.33-1,.75.75,0,0,0-1,.32L126,31.43h-2.59L132,14.09a.75.75,0,1,0-1.34-.66l-8.92,18h-6.15V6.5A2.37,2.37,0,0,1,116.28,4.76Z"/>
    <path class="cls-1" d="M141.64,39.82a.75.75,0,0,0-.75.75v1.72a47.3,47.3,0,0,0-12.29,1.43.75.75,0,1,0,.42,1.43c.1,0,10.65-3,25.22,0a.47.47,0,0,0,.16,0,.75.75,0,0,0,.15-1.48,66.94,66.94,0,0,0-12.17-1.4V40.57A.74.74,0,0,0,141.64,39.82Z"/>
    <g>
      <path class="cls-1" d="M56.84,26.91a.75.75,0,0,0,.75-.75V22.35h3.82a.75.75,0,0,0,0-1.5H56.84a.75.75,0,0,0-.74.75v4.56A.74.74,0,0,0,56.84,26.91Z"/>
      <path class="cls-1" d="M56.84,37.18a.76.76,0,0,0,.75-.75V32.61h3.82a.74.74,0,0,0,.74-.74.75.75,0,0,0-.74-.75H56.84a.75.75,0,0,0-.74.75v4.56A.75.75,0,0,0,56.84,37.18Z"/>
      <path class="cls-1" d="M61.41,41.39H56.84a.74.74,0,0,0-.74.75V46.7a.75.75,0,0,0,.74.75.76.76,0,0,0,.75-.75V42.88h3.82a.75.75,0,0,0,0-1.49Z"/>
      <path class="cls-1" d="M56.84,57.71a.75.75,0,0,0,.75-.74V53.15h3.82a.75.75,0,0,0,0-1.49H56.84a.74.74,0,0,0-.74.74V57A.74.74,0,0,0,56.84,57.71Z"/>
      <path class="cls-1" d="M61.41,61.93H56.84a.74.74,0,0,0-.74.74v4.57a.74.74,0,0,0,.74.74.75.75,0,0,0,.75-.74V63.42h3.82a.75.75,0,0,0,.74-.75A.74.74,0,0,0,61.41,61.93Z"/>
      <path class="cls-1" d="M61.41,72.19H56.84a.75.75,0,0,0-.74.75V77.5a.74.74,0,0,0,.74.75.75.75,0,0,0,.75-.75V73.69h3.82a.75.75,0,0,0,0-1.5Z"/>
      <path class="cls-1" d="M26.07,47.66a.75.75,0,0,0,.75-.75V43.09h3.82a.74.74,0,0,0,.74-.74.75.75,0,0,0-.74-.75H26.07a.75.75,0,0,0-.74.75v4.56A.74.74,0,0,0,26.07,47.66Z"/>
      <path class="cls-1" d="M30.64,51.8H26.07a.75.75,0,0,0-.74.75v4.56a.75.75,0,0,0,.74.75.76.76,0,0,0,.75-.75V53.29h3.82a.74.74,0,0,0,.74-.74A.75.75,0,0,0,30.64,51.8Z"/>
      <path class="cls-1" d="M26.07,68.06a.76.76,0,0,0,.75-.75V63.49h3.82a.74.74,0,0,0,.74-.74.75.75,0,0,0-.74-.75H26.07a.75.75,0,0,0-.74.75v4.56A.75.75,0,0,0,26.07,68.06Z"/>
      <path class="cls-1" d="M30.64,72.2H26.07a.75.75,0,0,0-.74.75v4.56a.75.75,0,0,0,.74.75.76.76,0,0,0,.75-.75V73.69h3.82a.74.74,0,0,0,.74-.74A.75.75,0,0,0,30.64,72.2Z"/>
      <path class="cls-1" d="M35.15,47.66a.75.75,0,0,0,.75-.75V43.09h3.82a.74.74,0,0,0,.74-.74.75.75,0,0,0-.74-.75H35.15a.75.75,0,0,0-.74.75v4.56A.74.74,0,0,0,35.15,47.66Z"/>
      <path class="cls-1" d="M40.46,52.55a.75.75,0,0,0-.74-.75H35.15a.75.75,0,0,0-.74.75v4.56a.75.75,0,0,0,.74.75.76.76,0,0,0,.75-.75V53.29h3.82A.74.74,0,0,0,40.46,52.55Z"/>
      <path class="cls-1" d="M39.72,62H35.15a.75.75,0,0,0-.74.75v4.56a.75.75,0,0,0,.74.75.76.76,0,0,0,.75-.75V63.49h3.82a.74.74,0,0,0,.74-.74A.75.75,0,0,0,39.72,62Z"/>
      <path class="cls-1" d="M39.72,72.2H35.15a.75.75,0,0,0-.74.75v4.56a.75.75,0,0,0,.74.75.76.76,0,0,0,.75-.75V73.69h3.82a.74.74,0,0,0,.74-.74A.75.75,0,0,0,39.72,72.2Z"/>
      <path class="cls-1" d="M67.45,26.91a.74.74,0,0,0,.74-.75V22.35H72a.75.75,0,0,0,0-1.5H67.45a.76.76,0,0,0-.75.75v4.56A.75.75,0,0,0,67.45,26.91Z"/>
      <path class="cls-1" d="M72.76,31.87a.76.76,0,0,0-.75-.75H67.45a.76.76,0,0,0-.75.75v4.56a.76.76,0,0,0,.75.75.75.75,0,0,0,.74-.75V32.61H72A.75.75,0,0,0,72.76,31.87Z"/>
      <path class="cls-1" d="M72,41.39H67.45a.75.75,0,0,0-.75.75V46.7a.76.76,0,0,0,.75.75.75.75,0,0,0,.74-.75V42.88H72a.75.75,0,1,0,0-1.49Z"/>
      <path class="cls-1" d="M72.76,52.4a.75.75,0,0,0-.75-.74H67.45a.75.75,0,0,0-.75.74V57a.75.75,0,0,0,.75.74.74.74,0,0,0,.74-.74V53.15H72A.75.75,0,0,0,72.76,52.4Z"/>
      <path class="cls-1" d="M72,61.93H67.45a.75.75,0,0,0-.75.74v4.57a.75.75,0,0,0,.75.74.74.74,0,0,0,.74-.74V63.42H72a.75.75,0,1,0,0-1.49Z"/>
      <path class="cls-1" d="M72,72.19H67.45a.76.76,0,0,0-.75.75V77.5a.75.75,0,0,0,.75.75.74.74,0,0,0,.74-.75V73.69H72a.75.75,0,0,0,0-1.5Z"/>
      <path class="cls-1" d="M77.69,26.91a.75.75,0,0,0,.75-.75V22.35h3.82a.75.75,0,0,0,0-1.5H77.69a.75.75,0,0,0-.74.75v4.56A.74.74,0,0,0,77.69,26.91Z"/>
      <path class="cls-1" d="M83,31.87a.75.75,0,0,0-.74-.75H77.69a.75.75,0,0,0-.74.75v4.56a.75.75,0,0,0,.74.75.76.76,0,0,0,.75-.75V32.61h3.82A.74.74,0,0,0,83,31.87Z"/>
      <path class="cls-1" d="M82.26,41.39H77.69a.74.74,0,0,0-.74.75V46.7a.75.75,0,0,0,.74.75.76.76,0,0,0,.75-.75V42.88h3.82a.75.75,0,0,0,0-1.49Z"/>
      <path class="cls-1" d="M77.69,57.71a.75.75,0,0,0,.75-.74V53.15h3.82a.75.75,0,0,0,0-1.49H77.69a.74.74,0,0,0-.74.74V57A.74.74,0,0,0,77.69,57.71Z"/>
      <path class="cls-1" d="M77,67.24a.74.74,0,0,0,.74.74.75.75,0,0,0,.75-.74V63.42h3.82a.75.75,0,0,0,.74-.75.74.74,0,0,0-.74-.74H77.69a.74.74,0,0,0-.74.74Z"/>
      <path class="cls-1" d="M82.26,72.19H77.69a.75.75,0,0,0-.74.75V77.5a.74.74,0,0,0,.74.75.75.75,0,0,0,.75-.75V73.69h3.82a.75.75,0,0,0,0-1.5Z"/>
      <path class="cls-1" d="M93.81,89.32H92.14V20.94a.74.74,0,0,0-.74-.74H87.88V14.75a.75.75,0,0,0-.75-.74H82.79V8.78A.75.75,0,0,0,82,8H56.41a.74.74,0,0,0-.74.74V14h-4a.74.74,0,0,0-.74.74V20.2H47.41a.74.74,0,0,0-.74.74V34.68H43.55V31a.75.75,0,0,0-.74-.75H22.28a.76.76,0,0,0-.75.75v3.73H17.67a.74.74,0,0,0-.74.74v53.9h-1a.74.74,0,0,0-.74.74v3.53a.74.74,0,0,0,.74.74H93.81a.74.74,0,0,0,.75-.74V90.06A.74.74,0,0,0,93.81,89.32ZM90.64,21.69V89.32H87.88V21.69Zm-54.81,61v6.67H33.75V82.65Zm-3.57,0v6.67H30V82.65Zm40.4,0v6.67H70.58V82.65Zm-3.57,6.67H66.8V82.65h2.29ZM57.16,9.53H81.3V14H57.16Zm29.23,6v5.44h0V89.32H74.16V81.9a.76.76,0,0,0-.75-.75H66.05a.75.75,0,0,0-.74.75v7.42H52.42V15.5ZM50.93,21.69V89.32H48.16V21.69ZM46.67,36.17V89.32H43.55V36.17Zm-4.61-4.48v3.73h0v53.9H37.32V81.9a.75.75,0,0,0-.75-.75H29.21a.75.75,0,0,0-.74.75v7.42H23V31.69ZM18.42,36.17h3.11V89.32H18.42ZM93.07,92.84H16.64v-2H93.07Z"/>
    </g>
    <path class="cls-1" d="M164.61,54H118a4.17,4.17,0,0,0-3,1.29,3.81,3.81,0,0,0-1.07,2.82v8.27a.75.75,0,0,0,1.5,0V58.05a2.33,2.33,0,0,1,.66-1.73A2.67,2.67,0,0,1,118,55.5h46.59a2.57,2.57,0,0,1,2.59,2.59V85.8a2.57,2.57,0,0,1-2.59,2.6H133.06a.75.75,0,0,0,0,1.5h31.55a4.05,4.05,0,0,0,4.09-4.1V58.09A4.05,4.05,0,0,0,164.61,54Z"/>
    <path class="cls-1" d="M133.06,66.87h13.75a.76.76,0,0,0,.75-.75V58.67a.76.76,0,0,0-.75-.75H133.06a.75.75,0,0,0-.74.75v7.45A.75.75,0,0,0,133.06,66.87Zm.75-7.46h12.25v6H133.81Z"/>
    <path class="cls-1" d="M164.08,57.92H150.51a.76.76,0,0,0-.75.75v7.45a.75.75,0,0,0,.74.75h13.57a.76.76,0,0,0,.75-.75V58.67A.76.76,0,0,0,164.08,57.92Zm-.75,7.45H151.26v-6h12.07Z"/>
    <path class="cls-1" d="M132.32,77.68a.75.75,0,0,0,.74.75h13.65a.75.75,0,0,0,.75-.75V70.23a.75.75,0,0,0-.75-.75H133.06a.75.75,0,0,0-.74.75ZM146,71v6H133.81V71Z"/>
    <path class="cls-1" d="M164.13,69.48H150.56a.76.76,0,0,0-.75.75v7.45a.76.76,0,0,0,.75.75h13.57a.75.75,0,0,0,.74-.75V70.23A.75.75,0,0,0,164.13,69.48Zm-.75,7.46H151.31V71h12.07Z"/>
    <path class="cls-1" d="M146.71,86a.75.75,0,0,0,.75-.75V81.31a.74.74,0,0,0-.75-.74H133.06a.74.74,0,0,0-.74.74v3.92a.75.75,0,1,0,1.49,0V82.06H146v3.17A.75.75,0,0,0,146.71,86Z"/>
    <path class="cls-1" d="M164.13,86a.75.75,0,0,0,.74-.75V81.31a.74.74,0,0,0-.74-.74H150.56a.75.75,0,0,0-.75.74v3.92a.75.75,0,1,0,1.5,0V82.06h12.07v3.17A.76.76,0,0,0,164.13,86Z"/>
    <path class="cls-1" d="M126.65,69.48H114.76a3.28,3.28,0,0,0-3.27,3.27V98.29a3.27,3.27,0,0,0,3.27,3.26h11.89a3.27,3.27,0,0,0,3.27-3.26V72.75A3.28,3.28,0,0,0,126.65,69.48Zm0,30.58H114.76A1.77,1.77,0,0,1,113,98.29V72.75A1.77,1.77,0,0,1,114.76,71h1.38c.16.37.31.75.44,1a1,1,0,0,0,.9.61h6a1,1,0,0,0,.9-.61c.13-.3.28-.68.44-1h1.85a1.77,1.77,0,0,1,1.77,1.77V98.29A1.77,1.77,0,0,1,126.65,100.06Z"/>
    <path class="cls-1" d="M154.41,95.31a65.61,65.61,0,0,0-12.17-1.39V92.17a.75.75,0,0,0-1.49,0V93.9a57.46,57.46,0,0,0-8,.58.74.74,0,0,0,.21,1.47,61.35,61.35,0,0,1,21.18.82l.15,0a.75.75,0,0,0,.16-1.48Z"/>
    <path class="cls-1" d="M129.06,61.72H118.43a.74.74,0,0,0-.74.74.75.75,0,0,0,.74.75h10.63a.76.76,0,0,0,.75-.75A.75.75,0,0,0,129.06,61.72Z"/>
    <path class="cls-1" d="M118.48,65.51a.75.75,0,1,0,0,1.49h10.64a.75.75,0,0,0,0-1.49Z"/>
    <path class="cls-1" d="M129,57.92H118.39a.76.76,0,0,0-.75.75.75.75,0,0,0,.75.74H129a.74.74,0,0,0,.74-.74A.75.75,0,0,0,129,57.92Z"/>
  </g>
</svg>
