<?xml version="1.0" encoding="utf-8"?>
<!-- Generator: Adobe Illustrator 27.3.1, SVG Export Plug-In . SVG Version: 6.00 Build 0)  -->
<svg version="1.1" id="Layer_1" xmlns="http://www.w3.org/2000/svg" xmlns:xlink="http://www.w3.org/1999/xlink" x="0px" y="0px"
	 width="87.6px" height="73.7px" viewBox="0 0 87.6 73.7" style="enable-background:new 0 0 87.6 73.7;" xml:space="preserve">
<style type="text/css">
	.st0{fill:#FFFFFF;}
</style>
<g>
	<path class="st0" d="M44.3,18.2c-3.8-1.7-7.7-3.3-11.8-0.6c-1.6,0.9-3.2,1.7-4.8,2.4c-0.7,0.3-1.6,0.4-2.3,0.5
		c-0.6,0.1-1.1-0.2-1.1-0.8c0-0.5,0.3-0.9,0.8-0.9c1.7-0.2,3.1-0.8,4.5-1.7c0.8-0.4,1.6-0.8,2.4-1.4c2.7-1.5,5.6-1.9,8.4-0.8
		c1.9,0.6,3.7,1.5,5.6,2.2c0.3,0.1,0.8,0.2,1.2,0.1c3.8-1.6,7.5-1.3,10.8,1.1c1.7,1.2,3.6,1.9,5.7,1.9c0.4,0,0.7-0.1,0.8-0.6
		c0.2-1.2,0.9-1.9,2-2.4c6.4-3.2,13-6.3,19.4-9.4c1.1-0.5,1.6-0.1,1.6,0.9c0,9.7,0,19.4,0,29.2c0,0.6-0.3,1.1-0.8,1.4
		c-2.4,1.2-4.7,2.4-7.2,3.6c-2.1,1.1-4.1,0.4-5.2-1.8c-2.9-6.2-6-12.2-9.1-18.3c-0.3-0.6-0.6-0.8-1.3-0.7c-2.4,0.1-4.6-0.5-6.6-1.9
		c-3.2-2.3-6.3-2.5-9.9-0.9c-4.5,2.1-9.3,3.7-14.3,4.5c-0.6,0.1-1.4,0.2-2,0.2c-0.6,0-0.8,0.3-0.7,0.9c0.5,3.4,3.5,5.4,6.7,4.6
		c1.2-0.2,2.3-0.6,3.5-0.8c2.6-0.5,5.1,0.2,6.8,2.2c3.2,3.5,6.9,6.1,11.1,8.4c3.2,1.7,6.2,3.4,9.4,5.1c0.7,0.4,1.5,0.8,2.2,1.4
		c0.1-0.5,0.2-1.1,0.4-1.6c0.2-0.6,0.4-1.4,0.8-1.9c0.2-0.3,0.7-0.7,1.3-0.4c0.5,0.3,0.4,0.8,0.3,1.2c-1.3,2.2-1.2,4.7-1.4,7.2
		c-0.3,3.8-4.1,5.8-7.4,4c-2.8-1.5-5.7-3.2-8.6-4.7c-0.6-0.3-0.9-0.7-0.6-1.4s0.9-0.5,1.5-0.2c2.7,1.5,5.5,3.1,8.2,4.5
		c1.9,1.1,3.8,0.6,4.7-0.9c0.9-1.7,0.3-3.8-1.5-4.8c-3.4-1.9-6.8-3.7-10.3-5.6c-4.1-2.2-7.8-4.8-11.1-8.1c-0.1-0.1-0.3-0.3-0.4-0.4
		c-1.8-1.9-4-2.4-6.5-1.7c-1.4,0.4-2.7,0.7-4.1,0.7c-3.7,0.1-6.9-3.1-7.1-6.8c-0.1-1.4,0.9-2.4,2.5-2.6c1.8-0.2,3.7-0.4,5.4-0.9
		c2.6-0.7,5.3-1.6,7.8-2.4C44.4,18.4,44.3,18.3,44.3,18.2z M85.9,9.7c-0.3,0.1-0.4,0.2-0.6,0.2c-5.9,2.8-11.8,5.7-17.7,8.6
		c-1.3,0.6-1.5,1.5-0.8,2.7c3.1,6.2,6.2,12.3,9.3,18.5c0.6,1.4,1.6,1.7,2.8,0.9c2-0.9,4-2,6.1-2.9c0.6-0.3,0.8-0.6,0.8-1.4
		c0-8.6,0-17.2,0-25.8C85.9,10.4,85.9,10.1,85.9,9.7z"/>
	<path class="st0" d="M57.2,58.7c-2.6-1.5-5.2-2.8-7.7-4.3c-0.3-0.1-0.6-0.6-0.4-1.3c0.2-0.6,0.8-0.6,1.1-0.5c2.6,1.5,5.4,3.1,8,4.5
		c2,1.2,3.7,0.8,5.3-0.8c0.4-0.4,0.8-0.6,1.4-0.2c0.5,0.4,0.4,0.9,0,1.5c-1.3,1.6-2.9,2.3-5.1,2.1c-0.6-0.1-0.9,0.1-1.4,0.5
		c-2.3,2.4-5.2,3.2-8.4,2.5c-0.3-0.1-0.8,0-1.1,0.2c-1.7,1.5-3.5,2.2-5.7,2.1c-0.6-0.1-1.1,0.1-1.5,0.6c-0.3,0.4-0.7,0.8-1.1,1.3
		c-2.3,2.3-6.2,1.2-7.1-2c-0.1-0.3-0.1-0.5-0.2-0.8c-3.8,0.7-5.9-0.8-6.3-4.8c-2.9,0-4.1-0.7-5.1-3.3c-0.9,0-2,0.2-2.8,0
		c-2.9-0.7-4.1-4.1-2.2-6.5c0.5-0.7,1.2-1.4,1.7-2c2.2-2.5,5.9-2,7.2,1.2c0.1,0.1,0.1,0.2,0.2,0.4c2.8-2.9,6.7-1.5,7.6,1.9
		c1.2-1.4,2.4-2.4,4.3-2.3c1.2,0,2.2,0.4,3.1,1.2c1.9,1.7,2.2,3.9,0.7,6.5c1.5,0.4,2.6,1.3,3.2,2.8c0.5,1.6,0.2,2.9-0.8,4.3
		c1.5-0.1,2.5-0.6,3.6-1.5c-0.5-0.3-0.9-0.6-1.4-0.9c-0.4-0.3-0.6-0.7-0.3-1.3c0.3-0.5,0.8-0.5,1.3-0.2c0.5,0.3,1.1,0.6,1.6,0.9
		C51.5,61.7,55.1,61.2,57.2,58.7z M31.9,62.6c0.6-0.3,1.4-0.5,1.9-0.9c2.2-2.2,4.3-4.4,6.4-6.7c1.1-1.2,0.8-2.8-0.3-3.9
		c-1.2-1.1-2.8-1.3-4-0.1c-2.2,2.3-4.3,4.6-6.4,6.9c-0.7,0.8-0.7,2-0.3,2.9C29.8,61.8,30.6,62.4,31.9,62.6z M26.5,57.4
		c0.3-0.1,0.9-0.3,1.3-0.6c1.3-1.3,2.4-2.6,3.6-4c0.7-0.9,0.5-2.3-0.3-3.2s-2.3-0.8-3.2,0c-1.3,1.3-2.5,2.7-3.7,4.1
		c-0.6,0.7-0.5,1.6-0.1,2.4C24.6,57,25.3,57.3,26.5,57.4z M43.5,60.3c-0.1-1.1-0.7-1.9-1.6-2.3c-0.8-0.3-1.8-0.1-2.5,0.5
		c-1.1,1.2-2.2,2.3-3.3,3.6c-0.9,1.1-0.9,2.5,0,3.5c0.9,0.9,2.4,0.8,3.5-0.2c1.1-1.2,2.1-2.3,3.1-3.5C43,61.4,43.2,60.8,43.5,60.3z
		 M20.3,54.3c0.5-0.2,1.2-0.3,1.5-0.7c0.8-0.8,1.6-1.7,2.2-2.6c0.6-0.9,0.3-2.1-0.4-2.8c-0.8-0.7-2.1-0.9-2.9-0.2
		c-0.9,0.8-1.8,1.9-2.4,2.9C17.3,52.4,18.5,54.2,20.3,54.3z"/>
	<path class="st0" d="M12.6,40.4c-1.7,1.6-3.4,1.6-5.3,0.6c-2.1-1.2-4.3-2.2-6.5-3.3C0.3,37.4,0,37,0,36.3c0-9.8,0-19.6,0-29.4
		c0-1.3,0.5-1.7,1.7-1.1c6.1,2.8,12.2,5.7,18.2,8.6c2.6,1.3,3.4,3.2,2.1,5.8c-2.6,5.9-5.4,11.7-8,17.6c-0.1,0.3-0.2,0.5-0.4,0.9
		c1.8,1.6,2.7,3.7,3.7,5.9c0.2,0.6,0.4,1.2-0.3,1.5c-0.7,0.3-1.1-0.2-1.4-0.7c-0.7-1.5-1.6-2.8-2.3-4.3C13.2,40.9,13,40.7,12.6,40.4
		z M1.9,7.9c0,0.2-0.1,0.3-0.1,0.4c0,9.1,0,18.1,0,27.3c0,0.3,0.3,0.7,0.5,0.8c2,1.1,4,2.1,6,3.1c1.5,0.7,2.5,0.4,3.3-1.2
		c2.8-6.3,5.8-12.5,8.6-18.8c0.7-1.7,0.4-2.5-1.3-3.4c-3.7-1.8-7.4-3.5-10.9-5.3C6.1,9.8,4.1,8.9,1.9,7.9z"/>
</g>
</svg>
