<?xml version="1.0" encoding="utf-8"?>
<!-- Generator: Adobe Illustrator 27.2.0, SVG Export Plug-In . SVG Version: 6.00 Build 0)  -->
<svg version="1.1" id="Layer_1" xmlns="http://www.w3.org/2000/svg" xmlns:xlink="http://www.w3.org/1999/xlink" x="0px" y="0px"
	 width="100px" height="100px" viewBox="0 0 100 100" style="enable-background:new 0 0 100 100;" xml:space="preserve">
<style type="text/css">
	.st0{fill:none;stroke:#FFFFFF;stroke-width:1.8;stroke-linecap:round;stroke-linejoin:round;stroke-miterlimit:10;}
</style>
<g>
	
		<image style="overflow:visible;" width="59" height="58" xlink:href="331B897A.png"  transform="matrix(0.24 0 0 0.24 37.68 47.68)">
	</image>
	
		<image style="overflow:visible;" width="43" height="35" xlink:href="331B897C.png"  transform="matrix(0.24 0 0 0.24 36.72 55.36)">
	</image>
	
		<image style="overflow:visible;" width="36" height="30" xlink:href="331B8973.png"  transform="matrix(0.24 0 0 0.24 43.68 48.4)">
	</image>
</g>
<g>
	<g>
		<path class="st0" d="M28.9,74.1c2.9,3.7,3.5,4,7.7,4.3l11.2,0.5c5,0.2,6.8-1.1,9.1-9.3c1-3.7,4.2-17.3,4.8-20.6
			c1.4-7.2,0.5-6.9-4.7-10.3"/>
		<g>
			<g>
				<path class="st0" d="M47.4,38.5c0.5-2.2,2.8-10.8,15.9-10.6"/>
			</g>
			<g>
				<path class="st0" d="M58,46.1c1.3-6.9,0.1-7.9-4.4-7.7l-10.3,0.5c-4.2,0.2-5.8,1.3-8.1,7.8c-1.1,3.1-5,16-5.9,19.4
					c-2,7.7-1.1,9.1,3.5,9.3L44,76c5,0.2,6.8-1.1,9.1-9.3C54.2,63.1,57.3,49.4,58,46.1z"/>
			</g>
			<g>
				<path class="st0" d="M66,29.9c0,0-0.7,0.1-1.4,0.1c-0.3,0-0.7-0.2-0.8-0.4c-0.3-0.4-0.6-1.2-0.3-2.4c0.4-2.1,0.8-3.2,0.9-3.4
					c0.1-0.2,0.2-0.5,0.8-0.5c0.8-0.1,1.6-0.2,1.6-0.2"/>
				<path class="st0" d="M76.3,21.4l-8.4,0.7c0,0-0.7,0-0.9,0.8c-0.2,0.9-1.2,4.6-1.2,4.6s-0.3,1.8,0.4,2.9c0.2,0.3,0.5,0.4,0.8,0.4
					l8.6-0.5"/>
				<path class="st0" d="M76.3,29.7c-0.1,0.5-0.7,0.7-1,0.3v0c-0.7-0.7-1-1.7-0.7-2.6l1.3-5.6c0.1-0.4,0.6-0.6,0.9-0.2l0.2,0.2"/>
				<polyline class="st0" points="75.1,29.1 80.3,29 81.4,23.1 80.8,22.2 75.9,22.5 				"/>
			</g>
			<g>
				<path class="st0" d="M51.3,38.4c0-2.2,1.4-13.9,12.5-13.8"/>
			</g>
		</g>
	</g>
</g>
</svg>
