<svg width="0" height="0" version="1.1" xmlns="http://www.w3.org/2000/svg">
    <defs>
        <symbol id="arrow" viewBox="0 0 7 12" xmlns="http://www.w3.org/2000/svg">
            <path d="M0.430615 1.89862C0.275992 1.74246 0.189254 1.53159 0.189254 1.31183C0.189254 1.09207 0.275992 0.881186 0.430615 0.725025C0.506543 0.647925 0.597048 0.586697 0.696862 0.544905C0.796675 0.503112 0.903804 0.48159 1.01201 0.48159C1.12022 0.48159 1.22735 0.503112 1.32717 0.544905C1.42698 0.586697 1.51749 0.647925 1.59341 0.725025L6.18941 5.41462C6.34382 5.57114 6.43039 5.78216 6.43039 6.00203C6.43039 6.22189 6.34382 6.43291 6.18941 6.58943L1.59342 11.279C1.51749 11.3561 1.42698 11.4174 1.32717 11.4591C1.22735 11.5009 1.12023 11.5225 1.01202 11.5225C0.903805 11.5225 0.796676 11.5009 0.696862 11.4591C0.597048 11.4174 0.506543 11.3561 0.430615 11.279C0.275993 11.1229 0.189255 10.912 0.189255 10.6922C0.189255 10.4725 0.275993 10.2616 0.430615 10.1054L4.19981 6.00022L0.430615 1.89862Z" fill=""/>
        </symbol>
    </defs>
</svg>

