<svg width="24" height="24" viewBox="0 0 24 24" fill="none" xmlns="http://www.w3.org/2000/svg">
<g id="user">
<g id="Group">
<path id="Vector" d="M20 22C19.4 22 19 21.6 19 21V19C19 17.3 17.7 16 16 16H8C6.3 16 5 17.3 5 19V21C5 21.6 4.6 22 4 22C3.4 22 3 21.6 3 21V19C3 16.2 5.2 14 8 14H16C18.8 14 21 16.2 21 19V21C21 21.6 20.6 22 20 22Z" fill="white"/>
</g>
<g id="Group_2">
<path id="Vector_2" d="M12 12C9.2 12 7 9.8 7 7C7 4.2 9.2 2 12 2C14.8 2 17 4.2 17 7C17 9.8 14.8 12 12 12ZM12 4C10.3 4 9 5.3 9 7C9 8.7 10.3 10 12 10C13.7 10 15 8.7 15 7C15 5.3 13.7 4 12 4Z" fill="white"/>
</g>
</g>
</svg>
