<svg width="34" height="34" viewBox="0 0 34 34" fill="none" xmlns="http://www.w3.org/2000/svg">
<circle cx="17" cy="17" r="17" fill="#4C82B4"/>
<path d="M24.8716 23.5708C24.7692 23.5838 24.6662 23.5999 24.5631 23.6005C23.553 23.6024 22.5429 23.5999 21.5333 23.6036C21.3929 23.6042 21.2739 23.5517 21.1696 23.467C20.9587 23.2934 20.7415 23.1222 20.5471 22.9294C20.0417 22.4246 19.5492 21.9055 19.0476 21.3957C18.8912 21.2369 18.7243 21.0905 18.56 20.9403C18.4747 20.8594 18.368 20.8421 18.2576 20.8439C18.1098 20.8476 17.9877 20.915 17.9295 21.0528C17.8761 21.1776 17.832 21.3129 17.8178 21.4464C17.7933 21.688 17.7921 21.9309 17.7872 22.1725C17.7817 22.4431 17.7737 22.7156 17.6982 22.9789C17.6645 23.095 17.6167 23.2131 17.5572 23.3181C17.4529 23.4985 17.2886 23.5968 17.0794 23.6011C16.1975 23.6215 15.3149 23.6345 14.4342 23.5764C14.271 23.564 14.1208 23.5121 13.9754 23.4398C13.1536 23.0332 12.4317 22.4932 11.8043 21.8196C11.0407 21.0009 10.3476 20.1228 9.65458 19.2447C8.72172 18.0608 7.9152 16.794 7.19026 15.4729C6.92531 14.9915 6.66955 14.5033 6.47943 13.9849C6.38559 13.7291 6.38559 13.4726 6.45612 13.2149C6.47636 13.1383 6.51254 13.0636 6.55425 12.9962C6.61374 12.8973 6.70635 12.8423 6.82472 12.8399C6.86643 12.8392 6.90997 12.838 6.95168 12.838C7.86798 12.838 8.78305 12.8417 9.69873 12.8349C9.87966 12.8337 10.0183 12.8949 10.1397 13.0184C10.3654 13.2458 10.5408 13.5109 10.6984 13.7865C10.8702 14.0868 11.0419 14.389 11.1934 14.7005C11.5264 15.3857 11.9349 16.0247 12.3673 16.6475C12.5783 16.951 12.8064 17.2426 13.0254 17.5398C13.1272 17.6783 13.2682 17.7308 13.4308 17.7351C13.589 17.7407 13.6534 17.6758 13.6595 17.5164C13.6614 17.478 13.6608 17.4404 13.6608 17.402C13.6608 16.3602 13.6608 15.3196 13.6595 14.2784C13.6595 14.1975 13.6595 14.1159 13.6516 14.0356C13.6332 13.8496 13.5357 13.7408 13.3529 13.705C13.2701 13.6889 13.1855 13.6815 13.1014 13.6704C12.8438 13.6364 12.7371 13.5264 12.7101 13.2656C12.6703 12.872 12.8573 12.5649 13.2235 12.4271C13.3811 12.3678 13.5442 12.3548 13.7111 12.3554C14.5274 12.3566 15.3437 12.3554 16.16 12.356C16.3256 12.356 16.4912 12.3474 16.6556 12.3622C16.828 12.3789 17.0021 12.4018 17.1696 12.4512C17.5265 12.555 17.7332 12.7997 17.7737 13.1766C17.7841 13.2669 17.7866 13.3571 17.7866 13.4473C17.7878 14.0794 17.7878 14.7116 17.7878 15.3437C17.7878 16.0142 17.7872 16.6846 17.789 17.3551C17.789 17.4206 17.7945 17.4892 17.8123 17.5516C17.8706 17.7549 18.0902 17.8222 18.2748 17.6943C18.8188 17.3168 19.1757 16.7909 19.4505 16.2057C19.7044 15.665 19.9234 15.1077 20.162 14.5596C20.3527 14.1252 20.5483 13.6932 20.7477 13.2625C20.7961 13.1556 20.8679 13.0586 20.9347 12.961C20.9955 12.8732 21.0752 12.8349 21.1874 12.8349C22.373 12.8386 23.5561 12.838 24.741 12.8368C25.0311 12.8368 25.2611 12.9554 25.442 13.1773C25.5058 13.2563 25.5322 13.349 25.5487 13.451C25.6193 13.9212 25.4592 14.3309 25.2359 14.7258C25.0243 15.099 24.7729 15.4432 24.4993 15.7701C23.9326 16.4461 23.377 17.1302 22.8912 17.8686C22.7661 18.0583 22.6594 18.2603 22.5453 18.4562C22.4613 18.5996 22.4723 18.7374 22.5778 18.8653C22.7919 19.1248 22.9992 19.3918 23.2243 19.6396C23.7591 20.2303 24.3074 20.8068 24.8453 21.3945C25.0176 21.5836 25.1734 21.7863 25.3335 21.9865C25.3862 22.0526 25.4255 22.1298 25.477 22.1972C25.8787 22.7199 25.3782 23.5035 24.8716 23.5708Z" fill="white"/>
</svg>
