<svg width="62" height="62" viewBox="0 0 62 62" fill="none" xmlns="http://www.w3.org/2000/svg">
<g clip-path="url(#clip0_1_376)">
<path d="M4.60003 4H52.9C54.2 4 55.4 4.5 56.2 5.4C57 6.3 57.4 7.4 57.4 8.5V18.6C57 18.5 56.7 18.5 56.3 18.5H55.4V8.4C55.4 7.8 55.2 7.2 54.8 6.7C54.3 6.2 53.6 5.9 52.9 5.9H4.60003C3.20003 5.9 2.10003 7 2.10003 8.4V37.4C2.10003 38.8 3.20003 39.9 4.60003 39.9H38.6V41.9H29.7V47.1H38C38.6 47.1 39 47.5 39 48.1C39 48.7 38.6 49.1 38 49.1H19.7C19.1 49.1 18.7 48.7 18.7 48.1C18.7 47.5 19.1 47.1 19.7 47.1H27.7V41.9H4.70003C2.20003 41.9 0.200027 39.9 0.200027 37.4V8.4C0.100029 6 2.10003 4 4.60003 4Z" fill="white"/>
<path d="M43.9 20.2H56.4C58.4 20.2 60 21.8 60 23.8V50.6C60 52.6 58.4 54.2 56.4 54.2H44C42 54.2 40.4 52.6 40.4 50.6V23.8C40.3 21.8 41.9 20.2 43.9 20.2ZM42.3 50.6C42.3 51.5 43 52.2 43.9 52.2H56.4C57.3 52.2 58 51.5 58 50.6V23.8C58 22.9 57.3 22.2 56.4 22.2H54.8C54.7 22.5 54.5 22.8 54.4 23.1C54.2 23.5 53.9 23.7 53.5 23.7H50.4H47.3C46.9 23.7 46.5 23.4 46.4 23.1C46.3 22.8 46.2 22.5 46 22.2H44C43.1 22.2 42.4 22.9 42.4 23.8V50.6H42.3Z" fill="white"/>
</g>
<defs>
<clipPath id="clip0_1_376">
<rect width="61" height="62" fill="white" transform="matrix(-1 0 0 1 61.5 0)"/>
</clipPath>
</defs>
</svg>
