<svg width="82" height="82" viewBox="0 0 82 82" fill="none" xmlns="http://www.w3.org/2000/svg">
<path fill-rule="evenodd" clip-rule="evenodd" d="M40.9971 20.169C41.1724 20.1464 48.0584 19.5716 52.5117 23.6417C54.9066 25.8286 56.1217 28.9017 56.1217 32.7739C56.1217 36.6461 54.9066 39.7192 52.5117 41.9061C49.0958 45.0271 44.2492 45.4153 42.0446 45.4153C41.3753 45.4153 40.9492 45.38 40.8812 45.3737L33.433 45.3762V50.4207H42.2564V52.9417H33.433V60.5046H30.912V52.9417H25.8701V50.4207H30.912V45.3775L25.8701 45.3788V42.8578H30.912V20.169H40.9971ZM41.0051 42.8584C41.3058 42.8806 47.2386 43.3192 50.8226 40.0368C52.6667 38.3465 53.602 35.9024 53.6007 32.7739C53.6007 29.6403 52.6629 27.1925 50.8113 25.5022C47.1685 22.177 41.1698 22.6787 41.1106 22.685L33.433 22.6888V42.8578H40.9971L41.0051 42.8584Z" fill="white"/>
<path fill-rule="evenodd" clip-rule="evenodd" d="M81.634 40.817C81.634 63.3596 63.3596 81.634 40.817 81.634C18.2744 81.634 0 63.3596 0 40.817C0 18.2744 18.2744 0 40.817 0C63.3596 0 81.634 18.2744 81.634 40.817ZM79.7132 40.817C79.7132 62.2988 62.2988 79.7132 40.817 79.7132C19.3352 79.7132 1.9208 62.2988 1.9208 40.817C1.9208 19.3352 19.3352 1.9208 40.817 1.9208C62.2988 1.9208 79.7132 19.3352 79.7132 40.817Z" fill="white"/>
</svg>
