<svg width="69" height="81" viewBox="0 0 69 81" fill="none" xmlns="http://www.w3.org/2000/svg">
<g opacity="0.9">
<path d="M46.9365 65.5469C46.4386 65.5469 46.0351 65.9518 46.0351 66.4511C46.0351 67.8365 44.9127 68.9635 43.5327 68.9635H39.0858C37.7059 68.9635 36.5826 67.8367 36.5826 66.4511C36.5826 65.0662 37.7057 63.9394 39.0858 63.9394H43.5327C44.0306 63.9394 44.4341 63.5345 44.4341 63.0352C44.4341 62.5356 44.0306 62.1308 43.5327 62.1308H39.0858C37.0222 62.1308 35.2946 63.5958 34.8775 65.5432C18.3077 65.3808 1.80242 60.2076 1.80242 50.4607C1.80242 26.9409 11.8271 1.80861 39.961 1.80861C40.459 1.80861 40.8625 1.40378 40.8625 0.904203C40.8625 0.404626 40.459 0 39.961 0C25.773 0 15.0402 5.88797 8.06243 17.5007C1.04739 29.1751 0 43.1622 0 50.461C0 55.7403 3.95596 60.1579 11.4399 63.2354C17.7108 65.8142 26.0062 67.2647 34.8744 67.3477C35.2872 69.3013 37.0176 70.7725 39.086 70.7725H43.5329C45.9071 70.7725 47.8379 68.8346 47.8379 66.4518C47.8377 65.9522 47.4342 65.5469 46.9365 65.5469Z" fill="white"/>
<path d="M40.2816 81C33.4783 81 27.3956 78.5596 22.2025 73.7459C21.8368 73.4069 21.8143 72.8349 22.152 72.4683C22.4895 72.1015 23.0598 72.0784 23.4254 72.4176C28.2747 76.9124 33.9461 79.1916 40.2814 79.1916C54.0789 79.1916 65.1049 65.5719 66.7468 52.851C66.8109 52.3562 67.2608 52.0068 67.7564 52.0705C68.25 52.135 68.5982 52.5885 68.5343 53.0835C66.795 66.565 55.0269 81 40.2816 81Z" fill="white"/>
<path d="M12.7102 55.5338C12.8665 55.8549 13.1873 56.0421 13.5211 56.0421C13.6535 56.0421 13.7883 56.0125 13.9162 55.9507C14.3636 55.7318 14.5493 55.1902 14.3312 54.7413C12.4459 50.861 12.2952 43.1084 15.0763 37.752C16.7153 34.5957 19.0597 32.755 22.0448 32.2815C27.1419 31.4725 29.7557 27.1567 31.8554 23.6888C33.0789 21.6684 34.2347 19.7598 35.5802 19.0224C35.7728 18.9169 35.9287 18.8705 36.0099 18.8962C36.3645 19.0076 36.8929 20.0665 37.3595 21.0015L37.3604 21.0033C39.1057 24.5021 42.3544 31.0145 54.4242 31.433C55.3549 31.4654 56.2215 31.4898 57.0278 31.5122C65.5208 31.7484 66.6117 31.7788 67.2011 38.5772C67.2444 39.0747 67.6749 39.4467 68.177 39.3995C68.6728 39.3565 69.0398 38.9181 68.9965 38.4204C68.2677 30.0155 65.6739 29.9433 57.0783 29.7042L56.8496 29.6977C56.1121 29.6769 55.3253 29.6547 54.4863 29.6258C43.4867 29.2444 40.77 23.7983 38.9723 20.1945L38.9703 20.1905C38.2234 18.6937 37.6334 17.5114 36.5478 17.1705C35.9782 16.991 35.3615 17.0803 34.7157 17.4349C32.9451 18.4054 31.6675 20.5152 30.3149 22.7488L30.3129 22.7522C28.3069 26.0641 26.0337 29.8173 21.7625 30.4946C18.2323 31.055 15.3673 33.2755 13.477 36.9161C10.3464 42.9466 10.6416 51.2753 12.7102 55.5338Z" fill="white"/>
</g>
</svg>
