<?xml version="1.0" encoding="utf-8"?>
<!-- Generator: Adobe Illustrator 25.2.0, SVG Export Plug-In . SVG Version: 6.00 Build 0)  -->
<svg version="1.1" id="Layer_1" xmlns="http://www.w3.org/2000/svg" xmlns:xlink="http://www.w3.org/1999/xlink" x="0px" y="0px"
	 viewBox="0 0 100 100" style="enable-background:new 0 0 100 100;" xml:space="preserve">
<style type="text/css">
	.st0{fill:#FFFFFF;}
</style>
<g>
	<path class="st0" d="M54.8,67.1l-9.9,0c-0.5,0-0.9,0.5-0.9,0.9c0,0.5,0.5,0.9,0.9,0.9h9.9c0.5,0,0.9-0.5,0.9-0.9
		S55.3,67.1,54.8,67.1z"/>
	<path class="st0" d="M50,58.1c1.4,0,2.8-1.1,2.8-2.8s-1.1-2.8-2.8-2.8c-1.4,0-2.8,1.1-2.8,2.8C47.2,57,48.6,58.1,50,58.1z"/>
	<path class="st0" d="M50,50.5c0.7,0,1.4-0.7,1.4-1.4s-0.7-1.4-1.4-1.4c-0.7,0-1.4,0.7-1.4,1.4C48.6,49.9,49.3,50.5,50,50.5z"/>
	<path class="st0" d="M46.8,41.1l6.4,0c1.4,0,2.8-1.1,2.8-2.8v-2.8c0-0.5-0.5-0.9-0.9-0.9l-9.9,0c-0.5,0-0.9,0.5-0.9,0.9l0,2.8
		C44.3,40,45.4,41.1,46.8,41.1z M45.9,36.7l8.3,0l0,1.8c0,0.5-0.5,0.9-0.9,0.9l-6.4,0c-0.5,0-0.9-0.5-0.9-0.9
		C45.9,38.6,45.9,36.7,45.9,36.7z"/>
	<path class="st0" d="M54.8,63.6l-9.9,0c-0.5,0-0.9,0.5-0.9,0.9s0.5,0.9,0.9,0.9h9.9c0.5,0,0.9-0.5,0.9-0.9S55.3,63.6,54.8,63.6z"/>
	<path class="st0" d="M45.2,33.1h9.9c0.5,0,0.9-0.5,0.9-0.9c0-0.5-0.5-0.9-0.9-0.9l-9.9,0c-0.5,0-0.9,0.5-0.9,0.9
		C44.3,32.6,44.7,33.1,45.2,33.1z"/>
	<path class="st0" d="M47.2,61.4h5.5c1.6,0,3-1.4,3-3l0-12c0-1.6-1.4-3-3-3H47c-1.6,0-3,1.4-3,3l0,12C44.3,60,45.4,61.4,47.2,61.4z
		 M45.9,46.4c0-0.7,0.5-1.1,1.1-1.1l5.7,0c0.7,0,1.1,0.5,1.1,1.1l0,12c0,0.7-0.5,1.1-1.1,1.1l-5.7,0c-0.7,0-1.1-0.5-1.1-1.1
		L45.9,46.4z"/>
	<path class="st0" d="M65.6,24.3c0-0.7-0.5-0.9-2.8-1.6C54.4,20,44.9,20,36.4,23.2c-1.4,0.2-2.1,0.5-2.1,1.1c0,6.7,0,13.3,0,20
		l0,4.4c0,8.3,0,27.8,0,27.8c0,0.5,0.2,0.7,0.7,0.9c4.8,1.4,9.9,2.1,14.9,2.1c4.8,0,9.7-0.7,14.3-1.8h0.7c0.5,0,0.7-0.5,0.7-0.9
		C65.6,76.5,65.6,40.9,65.6,24.3z M36.2,48.7v-4.4c0-4.8,0-9.9,0-14.7H39l0,41.6h-2.8C36.2,65,36.2,54.2,36.2,48.7z M59.2,71.2H40.8
		l0-41.6l18.4,0L59.2,71.2z M61,29.6h2.8c0,13.3,0,32.6,0,41.8H61L61,29.6z M36.9,24.6c8-2.8,17-3,25.3-0.2c0.7,0.2,1.4,0.5,1.6,0.5
		c0,0.9,0,1.8,0,3l-3.7,0l-20.2,0l-3.7,0c0-0.9,0-1.8,0-2.8C36.4,24.8,36.7,24.8,36.9,24.6z M36.2,75.8c0-0.7,0-1.4,0-2.8l27.6,0
		c0,1.1,0,2.1,0,2.8C54.8,78.1,45.2,78.1,36.2,75.8z"/>
</g>
</svg>
