<svg width="34" height="34" viewBox="0 0 34 34" fill="none" xmlns="http://www.w3.org/2000/svg">
<circle cx="17" cy="17" r="17" fill="#C62121"/>
<path d="M24.8493 17.1206C24.6503 16.2557 23.9428 15.6178 23.0914 15.5228C21.0755 15.2976 19.0342 15.2965 17.0028 15.2976C14.9706 15.2965 12.9297 15.2976 10.9132 15.5228C10.0622 15.618 9.35521 16.2559 9.15636 17.1206C8.87297 18.3521 8.86957 19.6964 8.86957 20.9644C8.86957 22.2325 8.86957 23.5766 9.15296 24.8081C9.35181 25.6728 10.0588 26.3107 10.9103 26.4059C12.9263 26.6313 14.9672 26.6321 16.9992 26.6313C19.0314 26.6323 21.0719 26.6313 23.0886 26.4059C23.9396 26.3107 24.6471 25.6728 24.8459 24.8081C25.1291 23.5766 25.1306 22.2325 25.1306 20.9644C25.1304 19.6962 25.1325 18.3521 24.8493 17.1206ZM13.5078 18.075H12.3309V24.3289H11.2376V18.075H10.0822V17.0507H13.5078V18.075ZM16.477 24.3291H15.4937V23.7374C15.103 24.1852 14.7321 24.4036 14.3707 24.4036C14.054 24.4036 13.836 24.2753 13.7376 24.0006C13.6841 23.8366 13.651 23.577 13.651 23.1942V18.9059H14.6335V22.8987C14.6335 23.129 14.6335 23.2486 14.6424 23.2809C14.666 23.4334 14.7406 23.5108 14.8723 23.5108C15.0694 23.5108 15.2755 23.3589 15.4934 23.0506V18.9059H16.4768L16.477 24.3291ZM20.2103 22.7014C20.2103 23.2029 20.1765 23.5643 20.1108 23.7941C19.9795 24.1976 19.7168 24.4036 19.3259 24.4036C18.9762 24.4036 18.6388 24.2095 18.3102 23.8037V24.3293H17.3277V17.0507H18.3102V19.4277C18.6276 19.037 18.9645 18.8394 19.3259 18.8394C19.7168 18.8394 19.9798 19.0453 20.1108 19.4512C20.1769 19.6694 20.2103 20.028 20.2103 20.5415V22.7014ZM23.9188 21.7966H21.9535V22.7579C21.9535 23.2599 22.1178 23.5105 22.4555 23.5105C22.6975 23.5105 22.8384 23.379 22.8944 23.1165C22.9036 23.0631 22.9165 22.8448 22.9165 22.4507H23.919V22.5941C23.919 22.9108 23.9069 23.129 23.898 23.2271C23.8651 23.4447 23.7877 23.642 23.6686 23.8158C23.3964 24.2097 22.9932 24.4038 22.48 24.4038C21.9659 24.4038 21.5745 24.2188 21.2905 23.8485C21.0821 23.577 20.975 23.1496 20.975 22.5733V20.6738C20.975 20.0941 21.07 19.67 21.2788 19.396C21.5627 19.0249 21.9538 18.84 22.4557 18.84C22.9488 18.84 23.3397 19.0249 23.615 19.396C23.8209 19.67 23.9192 20.0941 23.9192 20.6738V21.7966H23.9188Z" fill="white"/>
<path d="M22.4466 19.7242C22.1182 19.7242 21.9535 19.9751 21.9535 20.4765V20.9783H22.9361V20.4765C22.9358 19.9751 22.7716 19.7242 22.4466 19.7242Z" fill="white"/>
<path d="M18.7999 19.7245C18.6381 19.7245 18.4741 19.801 18.3098 19.9635V23.2688C18.4738 23.4333 18.6381 23.511 18.7999 23.511C19.0833 23.511 19.2274 23.2688 19.2274 22.7792V20.4644C19.2274 19.9754 19.0833 19.7245 18.7999 19.7245Z" fill="white"/>
<path d="M19.349 14.7979C19.7112 14.7979 20.0881 14.5778 20.4834 14.1249V14.7227H21.4766V9.24194H20.4834V13.4308C20.2633 13.7418 20.0547 13.8957 19.8561 13.8957C19.7231 13.8957 19.6449 13.8171 19.6233 13.663C19.6112 13.6305 19.6112 13.5097 19.6112 13.277V9.24194H18.6212V13.5757C18.6212 13.9628 18.6543 14.2247 18.7091 14.3906C18.809 14.6683 19.0293 14.7979 19.349 14.7979Z" fill="white"/>
<path d="M12.4352 11.744V14.7226H13.5365V11.744L14.8613 7.36816H13.7477L12.9963 10.2563L12.2145 7.36816H11.0557C11.2879 8.04988 11.5294 8.735 11.7616 9.41736C12.1149 10.443 12.3354 11.2163 12.4352 11.744Z" fill="white"/>
<path d="M16.3373 14.7978C16.8348 14.7978 17.2215 14.6106 17.4957 14.2367C17.7041 13.9624 17.804 13.5303 17.804 12.9478V11.0287C17.804 10.4427 17.7043 10.0145 17.4957 9.73765C17.2215 9.3627 16.835 9.17554 16.3373 9.17554C15.8423 9.17554 15.4559 9.3627 15.181 9.73765C14.97 10.0145 14.8702 10.4427 14.8702 11.0287V12.9478C14.8702 13.5303 14.97 13.9624 15.181 14.2367C15.4557 14.6106 15.8423 14.7978 16.3373 14.7978ZM15.8633 10.8296C15.8633 10.3225 16.0171 10.0697 16.3373 10.0697C16.6574 10.0697 16.8108 10.3223 16.8108 10.8296V13.135C16.8108 13.6421 16.6574 13.8957 16.3373 13.8957C16.0171 13.8957 15.8633 13.6421 15.8633 13.135V10.8296Z" fill="white"/>
</svg>
