<svg width="8" height="12" viewBox="0 0 8 12" fill="none" xmlns="http://www.w3.org/2000/svg">
<path d="M2.31311 6.35354L1.95956 5.99999L2.31311 5.64644L6.72978 1.22977C6.86785 1.0917 6.86785 0.908281 6.72978 0.77021C6.59171 0.632139 6.40829 0.632139 6.27022 0.77021L1.27022 5.77021C1.13215 5.90828 1.13215 6.0917 1.27022 6.22977L6.27022 11.2298C6.32404 11.2836 6.35798 11.3041 6.38015 11.3139C6.40015 11.3228 6.43334 11.3333 6.5 11.3333C6.56666 11.3333 6.59985 11.3228 6.61985 11.3139C6.64201 11.3041 6.67596 11.2836 6.72978 11.2298C6.86785 11.0917 6.86785 10.9083 6.72978 10.7702L2.31311 6.35354Z" fill="white" stroke="white"/>
</svg>
