<svg width="47" height="29" viewBox="0 0 47 29" fill="none" xmlns="http://www.w3.org/2000/svg">
<path d="M29.3381 3.05273H16.8496V25.4923H29.3381V3.05273Z" fill="#FF5F00"/>
<path d="M17.6424 14.2725C17.6424 9.71325 19.7833 5.66937 23.0739 3.05274C20.6555 1.14974 17.6028 0 14.2725 0C6.38299 0 0 6.38299 0 14.2725C0 22.1621 6.38299 28.5451 14.2725 28.5451C17.6028 28.5451 20.6555 27.3953 23.0739 25.4923C19.7833 22.9153 17.6424 18.8318 17.6424 14.2725Z" fill="#EB001B"/>
<path d="M46.1872 14.2725C46.1872 22.1621 39.8042 28.5451 31.9147 28.5451C28.5844 28.5451 25.5317 27.3953 23.1133 25.4923C26.4435 22.8757 28.5448 18.8318 28.5448 14.2725C28.5448 9.71325 26.4039 5.66937 23.1133 3.05274C25.5317 1.14974 28.5844 0 31.9147 0C39.8042 0 46.1872 6.42264 46.1872 14.2725Z" fill="#F79E1B"/>
</svg>
