<?xml version="1.0" encoding="utf-8"?>
<!-- Generator: Adobe Illustrator 25.2.0, SVG Export Plug-In . SVG Version: 6.00 Build 0)  -->
<svg version="1.1" id="Layer_1" xmlns="http://www.w3.org/2000/svg" xmlns:xlink="http://www.w3.org/1999/xlink" x="0px" y="0px"
	 viewBox="0 0 110 110" style="enable-background:new 0 0 110 110;" xml:space="preserve">
<style type="text/css">
	.st0{fill:#FFFFFF;}
</style>
<g>
	<path class="st0" d="M46.6,46.3h14.2c0.6,0,1-0.4,1-1v-7.8c0-0.6-0.4-1-1-1H46.6c-0.6,0-1,0.4-1,1v7.8C45.6,45.9,46,46.3,46.6,46.3
		z M47.6,38.5h12.2v5.8H47.6V38.5z"/>
	<path class="st0" d="M78.6,36.5H64.4c-0.6,0-1,0.4-1,1v7.8c0,0.6,0.4,1,1,1h14.2c0.6,0,1-0.4,1-1v-7.8
		C79.6,36.9,79.2,36.5,78.6,36.5z M77.6,44.3H65.4v-5.8h12.2V44.3z"/>
	<path class="st0" d="M42.3,36.5H31.2c-0.6,0-1,0.4-1,1s0.4,1,1,1h11.1c0.6,0,1-0.4,1-1S42.9,36.5,42.3,36.5z"/>
	<path class="st0" d="M42.4,40.5H31.3c-0.6,0-1,0.4-1,1s0.4,1,1,1h11.1c0.6,0,1-0.4,1-1S43,40.5,42.4,40.5z"/>
	<path class="st0" d="M31.3,44.4c-0.6,0-1,0.4-1,1s0.4,1,1,1h11.1c0.6,0,1-0.4,1-1s-0.4-1-1-1H31.3z"/>
	<path class="st0" d="M45.5,57.4c0,0.6,0.4,1,1,1h14.2c0.6,0,1-0.4,1-1v-7.8c0-0.6-0.4-1-1-1H46.5c-0.6,0-1,0.4-1,1V57.4z
		 M47.5,50.6h12.2v5.8H47.5V50.6z"/>
	<path class="st0" d="M79.7,49.6c0-0.6-0.4-1-1-1H64.5c-0.6,0-1,0.4-1,1v7.8c0,0.6,0.4,1,1,1h14.2c0.6,0,1-0.4,1-1V49.6z M77.7,56.4
		H65.5v-5.8h12.2V56.4z"/>
	<path class="st0" d="M45.5,65.3c0,0.6,0.4,1,1,1s1-0.4,1-1v-3.1h12.2v3.1c0,0.6,0.4,1,1,1s1-0.4,1-1v-4.1c0-0.6-0.4-1-1-1H46.5
		c-0.6,0-1,0.4-1,1V65.3z"/>
	<path class="st0" d="M78.7,66.3c0.6,0,1-0.4,1-1v-4.1c0-0.6-0.4-1-1-1H64.5c-0.6,0-1,0.4-1,1v4.1c0,0.6,0.4,1,1,1s1-0.4,1-1v-3.1
		h12.2v3.1C77.7,65.9,78.1,66.3,78.7,66.3z"/>
	<path class="st0" d="M79.2,32.4H30.9c-1.3,0-2.5,0.5-3.3,1.4s-1.2,2-1.2,3.1V47c0.4-0.1,0.7-0.1,1.1-0.1h0.9V36.8
		c0-0.6,0.2-1.2,0.6-1.7c0.5-0.5,1.2-0.8,1.9-0.8h48.3c1.4,0,2.5,1.1,2.5,2.5v29c0,1.4-1.1,2.5-2.5,2.5h-34v2h8.9v5.2h-8.3
		c-0.6,0-1,0.4-1,1s0.4,1,1,1h18.3c0.6,0,1-0.4,1-1s-0.4-1-1-1h-8v-5.2h23c2.5,0,4.5-2,4.5-4.5v-29C83.7,34.4,81.7,32.4,79.2,32.4z"
		/>
	<path class="st0" d="M39.9,48.6H27.4c-2,0-3.6,1.6-3.6,3.6V79c0,2,1.6,3.6,3.6,3.6h12.4c2,0,3.6-1.6,3.6-3.6V52.2
		C43.5,50.2,41.9,48.6,39.9,48.6z M41.5,79c0,0.9-0.7,1.6-1.6,1.6H27.4c-0.9,0-1.6-0.7-1.6-1.6V52.2c0-0.9,0.7-1.6,1.6-1.6H29
		c0.1,0.3,0.3,0.6,0.4,0.9c0.2,0.4,0.5,0.6,0.9,0.6h3.1h3.1c0.4,0,0.8-0.3,0.9-0.6c0.1-0.3,0.2-0.6,0.4-0.9h2c0.9,0,1.6,0.7,1.6,1.6
		V79H41.5z"/>
</g>
</svg>
