<svg width="65" height="65" viewBox="0 0 65 65" fill="none" xmlns="http://www.w3.org/2000/svg">
<path d="M63.2789 32.3334C63.2789 15.2252 49.4108 1.35706 32.3026 1.35706C15.1943 1.35706 1.32623 15.2252 1.32623 32.3334C1.32623 49.4416 15.1943 63.3097 32.3026 63.3097" stroke="white" stroke-width="2" stroke-linecap="round" stroke-linejoin="round"/>
<path d="M35.4002 1.51196C35.4002 1.51196 44.6931 13.7476 44.6931 32.3334M29.2049 63.1549C29.2049 63.1549 19.912 50.9192 19.912 32.3334C19.912 13.7476 29.2049 1.51196 29.2049 1.51196M3.27771 43.1751H32.3025M3.27771 21.4917H61.3274" stroke="white" stroke-width="2" stroke-linecap="round" stroke-linejoin="round"/>
<path d="M62.9041 50.6621C64.4343 51.6038 64.3383 53.8929 62.7647 54.0726L54.8131 54.974L51.2477 62.1357C50.5414 63.5575 48.3576 62.8606 47.9952 61.1011L44.1077 42.156C43.801 40.6691 45.1392 39.7336 46.4309 40.5297L62.9041 50.6621Z" stroke="white" stroke-width="2"/>
</svg>
