<?xml version="1.0" encoding="UTF-8" standalone="no"?>
<svg id="svg2" xmlns:rdf="http://www.w3.org/1999/02/22-rdf-syntax-ns#" xmlns="http://www.w3.org/2000/svg" xml:space="preserve" height="100%" width="100%" version="1.1" xmlns:cc="http://creativecommons.org/ns#" xmlns:dc="http://purl.org/dc/elements/1.1/" viewBox="0 0 20 23.90625"><metadata id="metadata15"><rdf:RDF><cc:Work rdf:about=""><dc:format>image/svg+xml</dc:format><dc:type rdf:resource="http://purl.org/dc/dcmitype/StillImage"/><dc:title/></cc:Work></rdf:RDF></metadata><g id="icons" transform="translate(-2,0)"><g id="delete"><path id="path7" fill="#c66c58" d="M11,0c-1.1,0-2,0.9-2,2h-5c-1.1,0-2,0.9-2,2v1c0,0.6,0.4,1,1,1h18c0.6,0,1-0.4,1-1v-1c0-1.1-0.9-2-2-2h-5c0-1.1-0.9-2-2-2h-2zm-5.9062,8c-0.6,0-1.1,0.49375-1,1.0938l1.5937,13.094c0.1,1,1,1.7188,2,1.7188h8.5c1,0,1.9-0.71875,2-1.7188l1.624-13.094c0.1-0.6-0.306-1.0938-0.906-1.0938h-13.812z"/></g></g></svg>
