<svg width="8" height="12" viewBox="0 0 8 12" fill="none" xmlns="http://www.w3.org/2000/svg">
<path d="M5.68691 6.35354L6.04046 5.99999L5.68691 5.64644L1.27024 1.22977C1.13217 1.0917 1.13217 0.908281 1.27024 0.77021C1.40831 0.632139 1.59173 0.632139 1.7298 0.77021L6.7298 5.77021C6.86787 5.90828 6.86787 6.0917 6.7298 6.22977L1.7298 11.2298C1.67598 11.2836 1.64204 11.3041 1.61987 11.3139C1.59987 11.3228 1.56668 11.3333 1.50002 11.3333C1.43336 11.3333 1.40017 11.3228 1.38017 11.3139C1.358 11.3041 1.32406 11.2836 1.27024 11.2298C1.13217 11.0917 1.13217 10.9083 1.27024 10.7702L5.68691 6.35354Z" fill="white" stroke="white"/>
</svg>
