<svg width="61" height="62" viewBox="0 0 61 62" fill="none" xmlns="http://www.w3.org/2000/svg">
<path fill-rule="evenodd" clip-rule="evenodd" d="M46.2382 39.9644L46.2254 39.9512C45.3342 39.0232 44.3745 38.6311 43.4491 38.6311C42.5281 38.6311 41.5439 39.0182 40.5945 39.9676L37.1741 43.3771C36.2367 44.3116 34.8149 44.5115 33.6644 43.9212C33.5676 43.8715 33.4671 43.8199 33.3667 43.7678L33.3401 43.7544C32.9206 43.5448 32.4257 43.2974 31.9846 43.0236L31.9758 43.0181L31.967 43.0126C28.0641 40.5337 24.55 37.3224 21.2156 33.2254L21.2069 33.2147L21.1983 33.2039C19.7808 31.4121 18.7264 29.8148 17.9177 28.1926C17.3036 26.9606 17.6469 25.5573 18.551 24.7002C19.2524 24.0352 19.9201 23.3578 20.5993 22.6685C20.6889 22.5776 20.7787 22.4865 20.8688 22.3952L20.8782 22.3856C21.0457 22.2182 21.2142 22.0467 21.39 21.8678L21.393 21.8648C21.5657 21.6889 21.7457 21.5057 21.9267 21.3247C22.9263 20.3251 23.3068 19.3096 23.3068 18.4202C23.3068 17.5308 22.9263 16.5153 21.9267 15.5157L18.5086 12.0976C18.1322 11.7212 17.718 11.307 17.3247 10.888C16.584 10.1228 15.8336 9.36159 15.0695 8.65623L15.0439 8.63263L15.0192 8.60815C14.1332 7.73131 13.1745 7.35181 12.2446 7.35181C11.3139 7.35181 10.326 7.73247 9.3996 8.6163L9.3932 8.62269L5.1463 12.9071C3.88188 14.1715 3.17568 15.6785 3.01629 17.467C2.75584 20.6547 3.69615 23.7047 4.49644 25.863C6.42574 31.0674 9.3177 35.9284 13.7054 41.2037C18.9927 47.5164 25.3431 52.4909 32.5922 55.9962C35.4104 57.3315 38.9487 58.7966 42.8248 59.0486C43.0859 59.061 43.3085 59.0705 43.499 59.0705C45.8166 59.0705 47.6794 58.2724 49.1734 56.6808C49.1775 56.6759 49.1815 56.6711 49.1855 56.6664C49.1922 56.6585 49.1987 56.6509 49.2051 56.6436L49.2085 56.6395C49.8847 55.8202 50.6507 55.0799 51.3577 54.3967C51.4203 54.3362 51.4824 54.2762 51.544 54.2165L51.5495 54.2112L51.5551 54.2059C52.0806 53.7048 52.6052 53.1918 53.1119 52.6615L53.1159 52.6573C54.0514 51.6841 54.4426 50.6653 54.4426 49.7245C54.4426 48.7836 54.0497 47.7917 53.1133 46.8645L53.1036 46.855L46.2382 39.9644ZM42.7127 61.0455C38.4314 60.7709 34.5995 59.1608 31.7287 57.8002C24.2147 54.168 17.6368 49.0131 12.1698 42.4851C7.66384 37.068 4.64324 32.0129 2.6212 26.5583C1.7974 24.3366 0.723966 20.9416 1.02353 17.2969C1.22324 15.0377 2.13441 13.0905 3.73207 11.4928L7.97588 7.21159L8.00084 7.18663C9.24902 5.98838 10.7219 5.35181 12.2446 5.35181C13.7674 5.35181 15.2153 5.98838 16.426 7.18663C17.2374 7.93553 18.0237 8.73437 18.7726 9.50824C19.1471 9.90766 19.5465 10.3071 19.9334 10.694L23.341 14.1015C25.9621 16.7227 25.9621 20.1178 23.341 22.7389C23.1662 22.9137 22.9914 23.0916 22.8167 23.2694C22.6419 23.4473 22.4672 23.6251 22.2925 23.7999C22.2034 23.8902 22.1141 23.9808 22.0245 24.0718C21.3476 24.7587 20.6548 25.4616 19.927 26.1516C19.6132 26.4491 19.5148 26.9133 19.7077 27.3003C20.4384 28.7663 21.4088 30.2464 22.7668 31.963C25.9871 35.9197 29.3447 38.9777 33.0393 41.3243C33.4013 41.549 33.8256 41.7612 34.275 41.9858C34.3747 42.0377 34.4756 42.0895 34.5774 42.1417C34.9698 42.343 35.4498 42.272 35.7622 41.9607L39.1803 38.5533C40.441 37.2927 41.9138 36.6311 43.4491 36.6311C44.9968 36.6311 46.4572 37.3052 47.6679 38.5658L54.5204 45.4433C55.7811 46.6915 56.4426 48.1768 56.4426 49.7245C56.4426 51.2598 55.7936 52.7576 54.5579 54.0432C54.0212 54.6049 53.472 55.1416 52.9352 55.6534C52.877 55.7098 52.8189 55.7659 52.7611 55.8218C52.0385 56.5206 51.3519 57.1845 50.7509 57.9126C50.7447 57.9251 50.7353 57.9344 50.726 57.9438C50.7166 57.9531 50.7073 57.9625 50.701 57.975C48.8038 60.0345 46.3823 61.0705 43.499 61.0705C43.2494 61.0705 42.9748 61.058 42.7127 61.0455Z" fill="white"/>
<path fill-rule="evenodd" clip-rule="evenodd" d="M32.4904 12.5108C32.5832 11.9664 33.0997 11.6002 33.6442 11.6929C37.8071 12.4021 41.6022 14.3728 44.6056 17.3763C47.6091 20.3797 49.5798 24.1748 50.2889 28.3377C50.3817 28.8822 50.0155 29.3987 49.4711 29.4914C48.9266 29.5842 48.4101 29.218 48.3173 28.6736C47.6784 24.9231 45.9046 21.5037 43.1914 18.7905C40.4782 16.0772 37.0588 14.3034 33.3083 13.6645C32.7639 13.5718 32.3977 13.0553 32.4904 12.5108Z" fill="white"/>
<path fill-rule="evenodd" clip-rule="evenodd" d="M32.9524 1.78863C33.0452 1.2442 33.5618 0.878105 34.1062 0.970929C40.8274 2.11688 46.9442 5.28561 51.8077 10.1491C56.6712 15.0126 59.8399 21.1294 60.9859 27.8506C61.0787 28.395 60.7126 28.9116 60.1682 29.0044C59.6237 29.0973 59.1072 28.7312 59.0143 28.1867C57.9385 21.877 54.9662 16.136 50.3935 11.5633C45.8208 6.99059 40.0798 4.01828 33.7701 2.94248C33.2256 2.84965 32.8596 2.33306 32.9524 1.78863Z" fill="white"/>
</svg>
