<?xml version="1.0" encoding="utf-8"?>
<!-- Generator: Adobe Illustrator 25.2.0, SVG Export Plug-In . SVG Version: 6.00 Build 0)  -->
<svg version="1.1" id="Layer_1" xmlns="http://www.w3.org/2000/svg" xmlns:xlink="http://www.w3.org/1999/xlink" x="0px" y="0px"
	 viewBox="0 0 110 110" style="enable-background:new 0 0 110 110;" xml:space="preserve">
<style type="text/css">
	.st0{fill:#FFFFFF;}
</style>
<g>
	<path class="st0" d="M81.6,62.9l-6.5-3c-0.7-0.3-1.5-0.3-2.1,0.1c-0.6,0.4-1,1.1-1,1.9v4.8l-6.4,1.6v-0.7c0,0,0,0,0,0c0,0,0,0,0,0
		c0-0.6-0.3-1.6-1.9-2.2v-4.1c0-0.1,0-0.2-0.1-0.3c0.5-0.1,1-0.2,1.5-0.3c0,0,0,0,0,0c0,0,0,0,0,0c2.5-0.5,4.8-1.2,6.3-1.6
		c5.9-1.7,8.7-5.5,8.4-11.1c0.7-0.1,1.2-0.2,1.5-0.3c1.3-0.3,2.1-1.5,2-2.8c-0.6-4.6-3.1-15.4-12.1-15.9c-0.6,0-1.2,0-1.9,0.1
		C65.5,29.6,32,34.7,26,35.9c-0.2,0-0.3,0.1-0.4,0.1c0,0-0.1,0-0.1,0c-0.1,0-0.1,0-0.2,0.1c-3.3,0.9-5.3,2.8-5.9,5.6
		c-0.1,0.5,0.2,1,0.7,1.1c0.5,0.1,1-0.2,1.1-0.7c0.5-2.2,2.1-3.6,4.7-4.3c1-0.1,1.9,0,2.8,0.2c-3.5,3.3-4.2,9.9-2,16.2l-1.9,0.4
		c-0.4-0.6-1.2-1.9-1.9-3.6c-0.2-0.5-0.8-0.7-1.2-0.5c-0.5,0.2-0.7,0.8-0.5,1.2c1.1,2.4,2.3,4.3,2.6,4.5l0.3,0.3l0.5-0.1
		c0,0,0,0,0,0l2.8-0.6c2.8,6.4,7.1,9.7,12.4,9.7c0.8,0,1.7-0.1,2.6-0.3c0,0,0,0,0,0c0,0,0,0,0,0c0.1,0,6.9-1.5,14-3c0,0,0,0,0,0
		l0,2.8c-1.6,0.7-1.9,1.7-1.9,2.2v0.1v1v8.2c0,2.1,3,2.8,5.5,2.8c1.3,0,2.6-0.2,3.5-0.5c1.8-0.7,2-1.7,2-2.3v-0.5l6.4-1.6
		c0.1,0.8,0.5,1.5,1.3,1.8l6.5,3c0.3,0.1,0.6,0.2,1,0.2c0.4,0,0.8-0.1,1.2-0.3c0.6-0.4,1-1.1,1-1.9v-4.1c0-0.5-0.4-0.9-0.9-0.9
		s-0.9,0.4-0.9,0.9v4.1c0,0.2-0.1,0.3-0.2,0.3c-0.1,0-0.2,0.1-0.4,0l-6.5-3c-0.1-0.1-0.2-0.2-0.2-0.3v-0.2l3.5-0.9
		c1.1-0.2,1.9-1.1,2.2-2.3c0.5-1.6,0-3.5-1-4.5c-0.8-0.8-1.9-1.1-3-0.7l-1.6,0.4v-4.4c0-0.2,0.1-0.3,0.2-0.3c0.1,0,0.2-0.1,0.4,0
		l6.5,3c0.1,0.1,0.2,0.2,0.2,0.3V66c0,0.5,0.4,0.9,0.9,0.9s0.9-0.4,0.9-0.9v-1.1C82.9,64.1,82.4,63.3,81.6,62.9z M28.6,54.1
		c-2.3-5.9-1.7-12,1.5-14.9c0,0,0.2-0.2,0.4-0.3c1.6,1.1,2.9,2.7,4.2,4.7c-0.6,1.7-0.5,4,0.4,6.3c1.5,3.9,4.9,6.3,7.6,5.2
		c0.5-0.2,0.8-0.5,1.2-0.8c0.3,0.1,0.7,0.2,1.1,0.3c-0.2,3-1.4,5.3-3.4,6c-1.6,0.6-3.4,0.3-5.3-1c-1.9-1.3-3.6-3.5-4.6-6.1
		c-0.2-0.5-0.7-0.7-1.2-0.5c-0.5,0.2-0.7,0.7-0.5,1.2c1.2,3,3,5.4,5.3,7c1.6,1.1,3.2,1.6,4.7,1.6c0.8,0,1.5-0.1,2.3-0.4
		c2.7-1,4.4-3.9,4.6-7.7c0.3,0,0.7-0.1,1-0.1c1.5-0.3,3.3-0.7,5.2-1.1c0.5-0.1,0.8-0.6,0.7-1.1c-0.1-0.5-0.6-0.8-1.1-0.7
		c-1.9,0.4-3.7,0.8-5.2,1.1c-2.1,0.5-3.7-0.3-5.2-1.8l-1.5-1.8c-0.9-1.2-1.7-2.5-2.6-3.9c-2-3.2-4.2-6.7-7.2-8.3
		c11-1.8,35.7-5.6,38.9-6.1c0.6-0.1,1.1-0.1,1.5-0.1c7.7,0.4,9.8,10.1,10.4,14.3c0,0.3-0.2,0.6-0.5,0.7c-1.8,0.4-12.2,2.5-13.8,2.8
		c-0.5,0.1-0.8,0.6-0.7,1.1c0.1,0.4,0.5,0.7,0.9,0.7c0.1,0,0.1,0,0.2,0c1.1-0.2,6.7-1.4,10.5-2.1c0.1,3.1-0.8,7.1-7.1,9
		c-1.5,0.4-3.8,1.1-6.2,1.6c-8.6,1.8-22.4,4.7-22.7,4.8C34.6,65.1,30.6,59.3,28.6,54.1z M61.8,61.4v5.8c-0.2,0.1-0.8,0.4-1.8,0.4
		c-1,0-1.5-0.2-1.8-0.4l0-4.7c0-0.1,0-0.3-0.1-0.4C59.4,61.9,60.6,61.6,61.8,61.4z M63.7,76.8c0,0.3-1.3,1-3.7,1
		c-2.4,0-3.7-0.7-3.7-1v-8.2v-1v-0.1c0,0,0-0.1,0.1-0.1c0.1,1.3,1.8,2,3.6,2c1.8,0,3.5-0.6,3.6-2c0,0.1,0.1,0.1,0.1,0.1c0,0,0,0,0,0
		c0,0,0,0,0,0V76.8z M75.9,67.6c0.5-0.2,0.9-0.1,1.2,0.3c0.6,0.6,0.8,1.8,0.5,2.7c-0.1,0.4-0.3,0.9-0.8,1l-4.1,1
		c-0.1,0-0.2,0-0.2,0.1l-7,1.7v-4.2L75.9,67.6z"/>
	<path class="st0" d="M82,68.1c-0.5,0-0.9,0.4-0.9,0.9v1.6c0,0.5,0.4,0.9,0.9,0.9s0.9-0.4,0.9-0.9V69C82.9,68.5,82.5,68.1,82,68.1z"
		/>
	<path class="st0" d="M21.7,47.9c-0.3-0.9-0.5-1.8-0.6-2.5c-0.1-0.5-0.5-0.9-1.1-0.8c-0.5,0.1-0.9,0.5-0.8,1.1
		c0.1,0.9,0.3,1.8,0.7,2.8c0.1,0.4,0.5,0.7,0.9,0.7c0.1,0,0.2,0,0.3,0C21.6,49,21.8,48.4,21.7,47.9z"/>
	<path class="st0" d="M58.4,52.3c0.1,0,0.1,0,0.2,0c1.3-0.3,2.7-0.6,4.1-0.9c0.5-0.1,0.8-0.6,0.7-1.1c-0.1-0.5-0.6-0.8-1.1-0.7
		c-1.4,0.3-2.7,0.6-4.1,0.9c-0.5,0.1-0.8,0.6-0.7,1.1C57.6,52,58,52.3,58.4,52.3z"/>
</g>
</svg>
