<svg width="69" height="66" viewBox="0 0 69 66" fill="none" xmlns="http://www.w3.org/2000/svg">
<path d="M34.4997 9.73785C19.61 9.73785 7.53955 21.8083 7.53955 36.698C7.57753 38.7478 7.52632 40.5368 8.49771 43.8984M40.1891 63.0567C52.3465 60.4451 61.4598 49.6358 61.4598 36.698C61.4598 32.0009 60.4171 27.6729 58.3051 23.8274" stroke="white" stroke-width="2" stroke-linecap="round"/>
<path d="M8.81207 28.4147H7.70654C4.39283 28.4147 1.70654 31.101 1.70654 34.4147V37.8883C1.70654 41.202 4.39283 43.8883 7.70654 43.8883H8.81207" stroke="white" stroke-width="2"/>
<path d="M60.1874 28.4147H61.293C64.6067 28.4147 67.293 31.101 67.293 34.4147V37.8883C67.293 41.202 64.6067 43.8883 61.293 43.8883H60.1874" stroke="white" stroke-width="2"/>
<rect x="29.2324" y="61.1443" width="10.4562" height="3.82484" rx="1" stroke="white" stroke-width="2"/>
<path d="M58.5147 10.7228L58.5151 10.7239C59.1381 12.2446 60.6066 13.2228 62.2474 13.2526C62.3289 14.0978 62.3278 14.9478 62.2432 15.7854L62.2397 15.7853H62.2264C60.5951 15.7853 59.0849 16.7831 58.4548 18.2872C57.8141 19.8148 58.172 21.5754 59.3303 22.7404C58.7904 23.3911 58.1859 23.9889 57.5288 24.5213C56.4034 23.42 54.5817 23.0346 53.1084 23.6364L53.1077 23.6366C51.5957 24.2555 50.6042 25.7331 50.5789 27.357C50.1735 27.3956 49.7679 27.4147 49.3621 27.4147C48.9326 27.4147 48.5047 27.3934 48.079 27.3506C48.0863 25.7076 47.1051 24.2026 45.5756 23.5624C44.0982 22.9426 42.2565 23.3259 41.1239 24.4399C40.4831 23.9065 39.8919 23.3093 39.3661 22.6609C40.5046 21.5029 40.8625 19.7605 40.2423 18.2472L40.2418 18.246C39.6097 16.7093 38.1149 15.7115 36.5099 15.7171C36.4287 14.8701 36.4302 14.0173 36.515 13.1784C38.1633 13.1198 39.6668 12.1959 40.3007 10.6856L40.301 10.6852C40.9414 9.15733 40.5862 7.39684 39.4271 6.23069C39.9643 5.58241 40.5696 4.98442 41.2284 4.45041C42.3551 5.5539 44.1831 5.93436 45.6475 5.33611L45.6484 5.33575C47.1624 4.71556 48.1513 3.23782 48.178 1.61458C49.0108 1.53544 49.8473 1.53792 50.6788 1.62079C50.6711 3.26352 51.6525 4.7677 53.1772 5.40922L53.1799 5.41038C54.6595 6.02766 56.5017 5.64596 57.6326 4.53248C58.2699 5.06059 58.8605 5.65704 59.3917 6.31023C58.2539 7.46756 57.897 9.21044 58.5147 10.7228Z" stroke="white" stroke-width="2"/>
<circle cx="49.3798" cy="14.4859" r="4.32512" stroke="white" stroke-width="2"/>
</svg>
