<svg width="20" height="19" viewBox="0 0 20 19" fill="none" xmlns="http://www.w3.org/2000/svg">
<path fill-rule="evenodd" clip-rule="evenodd" d="M19.875 9.5C19.875 14.7454 15.6238 18.9979 10.379 19H10.3754C5.12865 19 0.875 14.7467 0.875 9.5C0.875 4.25329 5.12829 0 10.375 0C15.6217 0 19.875 4.25329 19.875 9.5ZM12.0757 15.5384C11.3303 17.1285 10.6181 17.4 10.3754 17.4C10.1326 17.4 9.42044 17.1285 8.67498 15.5384C8.08464 14.2791 7.65609 12.5228 7.54832 10.5H13.2024C13.0946 12.5228 12.6661 14.2791 12.0757 15.5384ZM13.2194 8.9H7.53134C7.60075 6.70889 8.04606 4.80322 8.67498 3.46162C9.42044 1.87145 10.1326 1.6 10.3754 1.6C10.6181 1.6 11.3303 1.87145 12.0757 3.46162C12.7047 4.80322 13.15 6.70889 13.2194 8.9ZM14.8045 10.5C14.6781 13.0757 14.0693 15.3452 13.1743 16.8897C15.8566 15.8731 17.8412 13.4379 18.2123 10.5H14.8045ZM18.2526 8.9H14.8201C14.74 6.15976 14.1154 3.73432 13.1743 2.1103C15.9775 3.17274 18.0186 5.78435 18.2526 8.9ZM5.93061 8.9C6.01068 6.15957 6.6354 3.73397 7.5766 2.10996C4.77299 3.17217 2.73144 5.78401 2.49744 8.9H5.93061ZM2.53769 10.5C2.90884 13.4382 4.89382 15.8736 7.5766 16.89C6.68146 15.3455 6.07258 13.0759 5.94625 10.5H2.53769Z" fill="black"/>
</svg>
