<?xml version="1.0" encoding="utf-8"?>
<!-- Generator: Adobe Illustrator 25.4.1, SVG Export Plug-In . SVG Version: 6.00 Build 0)  -->
<svg version="1.1" id="Layer_1" xmlns="http://www.w3.org/2000/svg" xmlns:xlink="http://www.w3.org/1999/xlink" x="0px" y="0px"
	 width="110px" height="110px" viewBox="0 0 110 110" style="enable-background:new 0 0 110 110;" xml:space="preserve">
<style type="text/css">
	.st0{fill:none;stroke:#F9F9F9;stroke-width:2;stroke-linecap:round;stroke-linejoin:round;stroke-miterlimit:10;}
</style>
<g>
	<path class="st0" d="M23.6,85.2l4.1-4l8.8,3.9l5.4-4.3l-3.6-3.7l2.1-1.5l4.4,2.9l1.5-1.2l-2.7-3.9l2.2-1.7l3.8,3l1.6-1.3L48.2,69
		l2.6-1.5l3.7,3.1l12-9.4c0,0-2.1-2.1-4.8-4.8"/>
	<path class="st0" d="M61.8,56.5C58.2,52.9,48.1,42.8,48,42.7l-9.3,11.1l2.8,4.1l-1.4,2.3l-4.4-3l-1.3,1.5l2.7,3.7l-1.7,2.3
		l-3.9-2.8l-1.3,1.5l2.7,4.3l-1.6,2.2l-3.6-3.7l-4.5,5.2l2.5,5.6"/>
	<path class="st0" d="M84.8,36.8L66.3,52.3l-9.1-9.5l9.6-10.6c-4.3,2.3-18.4,4.5-24.7,3.8l-0.1-3.4c18.7-1.8,31.3-9,34.1-12.6
		l12.7,13.2L84.8,36.8"/>
	<line class="st0" x1="43.8" y1="48" x2="61" y2="65.2"/>
</g>
</svg>
