<svg width="83" height="73" viewBox="0 0 83 73" fill="none" xmlns="http://www.w3.org/2000/svg">
<path fill-rule="evenodd" clip-rule="evenodd" d="M40.9716 44.8722C41.2543 45.2022 41.7474 45.2008 42.0276 44.8731L42.0285 44.8721C44.2842 42.239 48.3395 37.3138 51.822 32.0716C53.5639 29.4496 55.1406 26.7807 56.2766 24.3027C57.4273 21.7928 58.0563 19.6257 58.0563 17.9648C58.0563 8.94243 50.6601 1.6 41.5 1.6C32.3399 1.6 24.9438 8.94243 24.9438 17.9648C24.9438 19.6257 25.5727 21.7928 26.7234 24.3027C27.8594 26.7807 29.4361 29.4496 31.178 32.0716C34.6605 37.3138 38.7159 42.2392 40.9716 44.8722ZM3.48801 32.2775C2.92712 32.4995 2.44909 32.8815 2.11363 33.3716C1.77838 33.8615 1.60021 34.4376 1.6 35.0257C1.6 35.0259 1.6 35.0256 1.6 35.0257V70.7159C1.6 71.1671 2.0682 71.527 2.54761 71.3563L21.4556 62.8408V31.0568C20.5357 29.384 19.7322 27.7298 19.0738 26.1091L3.48801 32.2775ZM2.89924 30.7897C2.04356 31.1284 1.31003 31.7129 0.793269 32.4679C0.276506 33.223 0.000204936 34.1139 0 35.0257V70.7159C0 72.3299 1.64703 73.4334 3.16149 72.8346L23.0556 63.875V30.6429C22.0781 28.8945 21.2372 27.1814 20.5616 25.5203C20.3568 25.0168 20.1671 24.518 19.9935 24.0244L2.89924 30.7897ZM79.5123 63.5349C80.0732 63.3131 80.5512 62.9311 80.8866 62.441C81.2219 61.9512 81.4 61.375 81.4 60.7867V25.0966C81.4 24.6454 80.9318 24.2855 80.4524 24.4562L61.5444 32.9717V70.646L79.5123 63.5349ZM80.1008 65.0228C80.9566 64.6843 81.6902 64.0998 82.207 63.3447C82.7238 62.5897 83 61.6987 83 60.7868V25.0966C83 23.4826 81.353 22.3791 79.8385 22.9779L59.9444 31.9375V73L80.1008 65.0228ZM41.5 25.5531C37.2893 25.5531 33.8479 22.1723 33.8479 17.9648C33.8479 13.7574 37.2893 10.3766 41.5 10.3766C45.7107 10.3766 49.1521 13.7574 49.1521 17.9648C49.1521 22.1723 45.7107 25.5531 41.5 25.5531ZM35.0238 49.9037C33.1417 47.7062 31.1776 45.3041 29.2667 42.8014V62.7165L53.7333 70.7861V42.8026C51.8229 45.305 49.8592 47.7076 47.976 49.9054C46.3556 51.7968 43.9933 52.8811 41.5 52.8811C39.0067 52.8811 36.6443 51.7968 35.0238 49.9037ZM46.761 48.8644C49.0507 46.1922 51.4561 43.2195 53.7333 40.1394C54.275 39.4067 54.8094 38.668 55.3333 37.9258V72.9986L27.6667 63.8736V37.9244C28.1905 38.6668 28.725 39.4056 29.2667 40.1383C31.5442 43.2189 33.9504 46.1907 36.239 48.8629C37.5546 50.3999 39.4726 51.2811 41.5 51.2811C43.5274 51.2811 45.4454 50.3999 46.761 48.8644ZM23.3438 17.9648C23.3438 8.04283 31.4723 0 41.5 0C51.5277 0 59.6562 8.04283 59.6562 17.9648C59.6562 25.9863 47.7898 40.6062 43.2436 45.913C42.3242 46.988 40.6772 46.988 39.7564 45.913C35.2102 40.6062 23.3438 25.9863 23.3438 17.9648ZM35.4479 17.9648C35.4479 21.2727 38.1569 23.9531 41.5 23.9531C44.8431 23.9531 47.5521 21.2727 47.5521 17.9648C47.5521 14.657 44.8431 11.9766 41.5 11.9766C38.1569 11.9766 35.4479 14.657 35.4479 17.9648Z" fill="white"/>
</svg>
