<?xml version="1.0" encoding="UTF-8"?>
<svg id="Layer_1" data-name="Layer 1" xmlns="http://www.w3.org/2000/svg" width="38.81mm" height="38.81mm" viewBox="0 0 110 110">
  <defs>
    <style>
      .cls-1 {
        fill: #fff;
      }
    </style>
  </defs>
  <path class="cls-1" d="M26.23,62.85c.11-.43,.2-.87,.32-1.3,.62-2.3,1.95-4.09,3.99-5.32,2.04-1.23,4.12-2.4,6.19-3.58,.24-.14,.61-.25,.85-.17,.42,.14,.66-.03,.95-.26,4.22-3.33,7.99-7.08,10.82-11.69,.82-1.34,1.47-2.78,2.18-4.19,.1-.19,.11-.47,.06-.69-.54-2.42,.62-4.74,2.83-5.63,2.22-.89,4.69-.05,5.94,2.08,1.5,2.56,2.97,5.14,4.46,7.71,.1,.18,.21,.35,.34,.56,1.47-.7,2.97-.8,4.48-.2,1.14,.45,2.02,1.22,2.63,2.28,1.39,2.39,.82,4.8-1.74,7.26,.31,.54,.62,1.09,.94,1.64,1.27,2.2,2.56,4.38,3.8,6.59,1.55,2.76,.25,6.09-2.7,6.98-1.69,.51-3.24,.16-4.57-1.01-.35-.31-.7-.45-1.14-.5-4.8-.54-9.49,.11-14.1,1.41-2.09,.59-4.13,1.35-6.28,2.06,.19,.27,.31,.44,.43,.6,1.91,2.51,3.82,5.02,5.74,7.54,1.17,1.54,1.06,2.84-.38,4.16-.5,.46-1,.92-1.5,1.36-1.32,1.16-3.01,1.01-4.09-.39-2.1-2.73-4.18-5.46-6.27-8.19-.12-.16-.26-.32-.3-.37-1.2,.39-2.31,.88-3.47,1.09-4.78,.9-9.5-2.49-10.29-7.31-.03-.16-.08-.32-.12-.49,0-.68,0-1.35,0-2.03Zm26.83-24.31c-3.26,6.57-8.15,11.61-13.8,15.99l6.05,10.48c6.65-2.73,13.44-4.41,20.74-3.96-4.35-7.54-8.65-14.99-13-22.51Zm18,24.33c.97,0,1.66-.35,2.14-1.04,.68-.97,.61-1.95,.02-2.96-4.91-8.48-9.8-16.97-14.71-25.45-.11-.19-.23-.39-.37-.56-.64-.75-1.46-1.06-2.42-.87-.99,.19-1.65,.8-1.93,1.77-.22,.76-.05,1.47,.34,2.16,2.55,4.4,5.09,8.81,7.63,13.21,2.36,4.1,4.73,8.19,7.09,12.29,.52,.9,1.25,1.43,2.19,1.45Zm-27.37,3.85c-2.27-3.92-4.48-7.75-6.71-11.62-1.82,1.06-3.61,2.04-5.34,3.12-2.98,1.85-4,5.63-2.4,8.73,1.6,3.09,5.32,4.53,8.51,3.08,2.04-.93,3.93-2.17,5.95-3.3Zm-1.66,3.54c.02,.08,.02,.13,.05,.15,2.13,2.79,4.26,5.57,6.39,8.36,.25,.32,.51,.35,.81,.08,.47-.43,.95-.86,1.42-1.29,.61-.56,.62-.59,.13-1.24-1.36-1.79-2.73-3.58-4.09-5.37-.6-.79-1.2-1.57-1.81-2.37-.89,.51-1.73,1-2.58,1.49-.1,.06-.19,.12-.31,.19Zm27.32-22.61c1.44-.93,1.81-2.83,.87-4.24-.87-1.31-2.73-1.79-3.9-.99l3.02,5.24Z"/>
  <path class="cls-1" d="M80.56,49.86c-.86,0-1.73,0-2.59,0-.76,0-1.24-.43-1.26-1.08-.02-.66,.47-1.16,1.24-1.17,1.76-.02,2.3-.02,4.06,0,.77,0,1.26,.51,1.23,1.17-.03,.65-.5,1.06-1.27,1.07-.88,.01-.53,0-1.41,0Z"/>
  <path class="cls-1" d="M73.28,30.33c-.05,.11-.12,.37-.24,.59-.85,1.48-1.7,2.96-2.56,4.44-.4,.69-1.02,.9-1.6,.58-.61-.33-.76-.99-.35-1.7,.88-1.53,1.75-3.06,2.65-4.58,.31-.53,.82-.71,1.35-.54,.46,.15,.76,.57,.76,1.22Z"/>
  <path class="cls-1" d="M84.05,35.06c.81,.29,.89,1.42,.23,1.97-.03,.03-.07,.05-.1,.07-1.45,.89-5.41,2.99-6.89,3.83-.61,.35-1.25,.18-1.57-.37-.33-.55-.18-1.2,.42-1.56,1.5-.89,5.47-3.02,7-3.87,.31-.17,.63-.19,.92-.08Z"/>
</svg>