<?xml version="1.0" encoding="utf-8"?>
<!-- Generator: Adobe Illustrator 26.1.0, SVG Export Plug-In . SVG Version: 6.00 Build 0)  -->
<svg version="1.1" id="Layer_1" xmlns="http://www.w3.org/2000/svg" xmlns:xlink="http://www.w3.org/1999/xlink" x="0px" y="0px"
	 viewBox="0 0 110 110" style="enable-background:new 0 0 110 110;" xml:space="preserve">
<style type="text/css">
	.st0{fill:none;stroke:#FFFFFF;stroke-width:2.1;stroke-miterlimit:10;}
	.st1{fill:none;stroke:#FFFFFF;stroke-width:2.1;stroke-linecap:round;stroke-linejoin:round;stroke-miterlimit:10;}
</style>
<ellipse class="st0" cx="56.4" cy="47.3" rx="14.5" ry="19.9"/>
<polygon class="st1" points="28.9,59.4 25.6,65.8 32.9,65.9 "/>
<path class="st1" d="M28.8,68.1c3.5,5.3-1.4,8.9-0.5,13.1c0.9,4.3,2.2,5,0,7"/>
<path class="st1" d="M96.7,40.9c0,9.6-6.5,17.5-14.5,17.5c-3.4,0-6.5-1.4-9-3.7c1.3-6.5,2-14.7-3.6-22.7c2.5-5.1,7.2-8.5,12.5-8.5
	C90.2,23.4,96.7,31.3,96.7,40.9z"/>
<path class="st1" d="M15.9,40.9c0,9.6,6.5,17.5,14.5,17.5c3.4,0,6.5-1.4,9-3.7c-1.2-6.5-2-14.6,3.6-22.7c-2.5-5.1-7.2-8.5-12.5-8.5
	C22.4,23.4,15.9,31.3,15.9,40.9z"/>
<polygon class="st1" points="82,58.5 78.6,64.9 85.9,65.1 "/>
<path class="st1" d="M81.2,87.5c0.8-0.3,4.3-2.4,3.2-5.4c-1.1-3-5.2-2.9-3.1-6.7c1.9-3.4,2.2-5,0-7"/>
<polygon class="st1" points="55.4,68.2 52,74.5 59.4,74.7 "/>
<path class="st1" d="M53.8,95.3c4.9-3.5,2.3-6.1,1.3-10.3c-1-4.3-0.8-5.8,1.4-7.9"/>
<path class="st1" d="M52.5,32.5c-0.2,0.2-7.2,6.2-6.2,16.4"/>
<path class="st1" d="M25.5,27.7c-0.1,0.2-4.6,4-5.9,10.7"/>
<path class="st1" d="M93.7,42.7c0-0.2,0.5-6.1-3.4-11.7"/>
</svg>
