<svg width="66" height="30" viewBox="0 0 66 30" fill="none" xmlns="http://www.w3.org/2000/svg">
<path opacity="0.99" d="M66 0H0V30H66V0Z" fill="#4DB45E"/>
<path opacity="0.99" d="M58.4819 3.39575H7.5175C5.77662 3.39575 4.36536 4.78118 4.36536 6.49018V23.5099C4.36536 25.2189 5.77662 26.6043 7.5175 26.6043H58.4819C60.2228 26.6043 61.6341 25.2189 61.6341 23.5099V6.49018C61.6341 4.78118 60.2228 3.39575 58.4819 3.39575Z" fill="white"/>
<path fill-rule="evenodd" clip-rule="evenodd" d="M22.6736 8.52881V8.53457C22.6678 8.53457 20.8202 8.52881 20.3275 10.2619C19.8759 11.8511 18.6031 16.2386 18.5679 16.3596H18.216C18.216 16.3596 16.9139 11.8741 16.4564 10.2562C15.9638 8.52305 14.1103 8.52881 14.1103 8.52881H9.88733V21.7144H14.1103V13.8837H14.4623L16.9257 21.7144H19.8583L22.3217 13.8894H22.6736V21.7144H26.8967V8.52881H22.6736Z" fill="#4DB45E"/>
<path fill-rule="evenodd" clip-rule="evenodd" d="M38.0994 8.52881C38.0994 8.52881 36.8618 8.63821 36.2811 9.9107L33.2898 16.3596H32.9379V8.52881H28.7149V21.7144H32.7033C32.7033 21.7144 33.9995 21.5992 34.5802 20.3325L37.5128 13.8837H37.8647V21.7144H42.0878V8.52881H38.0994Z" fill="#4DB45E"/>
<path fill-rule="evenodd" clip-rule="evenodd" d="M43.9646 14.517V21.7143H48.1876V17.5111H52.7626C54.7568 17.5111 56.446 16.2616 57.0735 14.517H43.9646Z" fill="#4DB45E"/>
<path fill-rule="evenodd" clip-rule="evenodd" d="M52.7626 8.52881H43.3723C43.8415 11.0393 45.7594 13.0545 48.2404 13.7109C48.8035 13.8606 49.3959 13.9412 50.0059 13.9412H57.2437C57.3082 13.6418 57.3375 13.3367 57.3375 13.02C57.3375 10.5383 55.2905 8.52881 52.7626 8.52881Z" fill="url(#paint0_linear)"/>
<defs>
<linearGradient id="paint0_linear" x1="43.3734" y1="11.235" x2="57.3375" y2="11.235" gradientUnits="userSpaceOnUse">
<stop offset="0.3" stop-color="#00B4E6"/>
<stop offset="1" stop-color="#088CCB"/>
</linearGradient>
</defs>
</svg>
