<?xml version="1.0" encoding="UTF-8"?>
<svg id="Layer_1" data-name="Layer 1" xmlns="http://www.w3.org/2000/svg" xmlns:xlink="http://www.w3.org/1999/xlink" viewBox="0 0 34 34">
  <defs>
    <style>
      .cls-1 {
        fill: #fff;
      }

      .cls-2 {
        fill: url(#linear-gradient);
      }

      .cls-3 {
        opacity: .07;
      }

      .cls-3, .cls-4 {
        isolation: isolate;
      }

      .cls-4 {
        opacity: .05;
      }
    </style>
    <linearGradient id="linear-gradient" x1="4.98" y1="28.91" x2="29.02" y2="4.87" gradientTransform="translate(0 33.89) scale(1 -1)" gradientUnits="userSpaceOnUse">
      <stop offset="0" stop-color="#33bef0"/>
      <stop offset="1" stop-color="#0a85d9"/>
    </linearGradient>
  </defs>
  <path class="cls-2" d="M34,17c0,9.39-7.61,17-17,17S0,26.39,0,17,7.61,0,17,0s17,7.61,17,17Z"/>
  <path class="cls-4" d="M5.2,16.55c6.93-3.14,15.07-6.55,16.33-7.04,2.76-1.09,3.97,.02,3.78,1.8-.23,2.17-1.33,8.49-2.01,13.02-.4,2.65-1.83,3.46-3.45,2.43-1.23-.78-5.45-3.54-6.56-4.49-.76-.64-1.29-1.37-.75-2.1,.16-.22,.56-.65,.78-.86,1.12-1.09,.97-1.32-.39-.35-.16,.12-1.1,.79-1.48,1.05-.94,.63-1.81,.66-3.28,.16-1.2-.41-2.36-.72-3.09-1.04-1.01-.44-1.39-1.89,.12-2.58Z"/>
  <path class="cls-3" d="M5.81,16.65c6.44-2.88,14.35-6.17,15.51-6.64,2.77-1.12,3.8-.46,3.5,1.71-.28,2-1.26,8.21-1.95,12.36-.41,2.45-1.59,2.99-3.14,1.99-.97-.62-4.86-3.19-5.81-3.94-.73-.58-1.49-1.24-.6-2.21,.3-.32,1.93-1.9,3.15-3.07,.71-.68,.46-1.02-.4-.43-1.57,1.07-4.13,2.77-4.59,3.08-.87,.59-1.69,.73-3.11,.28-1.12-.35-2.21-.7-2.77-.92-1.26-.49-1.28-1.54,.22-2.21Z"/>
  <path class="cls-1" d="M6.42,16.76c5.94-2.61,13.63-5.8,14.69-6.24,2.78-1.15,3.64-.93,3.21,1.62-.31,1.84-1.19,7.92-1.89,11.71-.42,2.25-1.35,2.51-2.83,1.54-.71-.47-4.28-2.83-5.06-3.39-.71-.51-1.68-1.11-.46-2.31,.44-.43,3.29-3.16,5.52-5.28,.29-.28-.07-.74-.41-.51-3,1.99-7.16,4.75-7.69,5.11-.8,.54-1.57,.79-2.95,.4-1.04-.3-2.06-.66-2.46-.79-1.53-.52-1.16-1.2,.32-1.85Z"/>
</svg>