<?xml version="1.0" encoding="utf-8"?>
<!-- Generator: Adobe Illustrator 25.2.0, SVG Export Plug-In . SVG Version: 6.00 Build 0)  -->
<svg version="1.0" id="Layer_1" xmlns="http://www.w3.org/2000/svg" xmlns:xlink="http://www.w3.org/1999/xlink" x="0px" y="0px"
	 width="27px" height="17px" viewBox="0 0 27 17" enable-background="new 0 0 27 17" xml:space="preserve">
<path d="M8.1,17H4.6V0h3.5V17z"/>
<path d="M14.9,11v6h-3.5V0H18c1.2,0,2.3,0.2,3.4,0.7c0.9,0.4,1.7,1.1,2.2,2s0.8,1.9,0.8,2.9c0.1,1.5-0.6,3-1.7,3.9
	c-1.4,1-3,1.5-4.7,1.4h-3.1V11z M14.9,8.2H18c0.8,0.1,1.5-0.2,2.1-0.7c0.5-0.5,0.8-1.2,0.7-1.9c0-0.7-0.2-1.5-0.7-2s-1.3-0.8-2-0.8
	h-3.2C14.9,2.8,14.9,8.2,14.9,8.2z"/>
</svg>
