<?xml version="1.0" encoding="utf-8"?>
<!-- Generator: Adobe Illustrator 24.2.3, SVG Export Plug-In . SVG Version: 6.00 Build 0)  -->
<svg version="1.1" id="Layer_1" xmlns="http://www.w3.org/2000/svg" xmlns:xlink="http://www.w3.org/1999/xlink" x="0px" y="0px"
	 viewBox="0 0 64 64" style="enable-background:new 0 0 64 64;" xml:space="preserve">
<style type="text/css">
	.st0{fill:#272727;}
	.st1{fill-rule:evenodd;clip-rule:evenodd;fill:#272727;}
</style>
<path class="st0" d="M31.5,60c1.4,0,2.5-1.1,2.5-2.5S32.9,55,31.5,55c-1.4,0-2.5,1.1-2.5,2.5S30.1,60,31.5,60z"/>
<path class="st1" d="M12,3c0-1.7,1.3-3,3-3h34c1.7,0,3,1.3,3,3v58c0,1.7-1.3,3-3,3H15c-1.7,0-3-1.3-3-3V3z M15,3h34v4H15V3z M15,9
	v43h34V9H15z M15,61v-7h34v7H15z"/>
</svg>
