<svg id="Layer_1" data-name="Layer 1" xmlns="http://www.w3.org/2000/svg" width="5.85mm" height="5.76mm" viewBox="0 0 16.58 16.33">
  <defs>
    <style>
      .cls-1 {
        fill: #fff;
      }
    </style>
  </defs>
  <path d="M9.25,1.3c0,.21.09.4.14.58s.11.41.15.6L9.63,3l.5.25.38.16.21.09.57.28.53-.35.76-.5.11-.08,1,1L13.53,4l-.06.08,0,.08a3.36,3.36,0,0,1-.32.51L12.89,5v.37a1.36,1.36,0,0,0,.11.53l.06.18v.63l.79.22.55.16a3.54,3.54,0,0,0,.84.2V8.58h0a1.38,1.38,0,0,1-.49.1h-.32l-.26.18-.5.33-.23.16-.13.25a5,5,0,0,0-.33.75l-.17.52.32.46c.2.29.39.6.57.92l-1,1-.11-.07-.76-.51-.53-.35-.57.28-.21.09c-.14.06-.27.11-.38.17l-.41.2-.14.43-.17.5a4.78,4.78,0,0,0-.2.85H7.88a1.55,1.55,0,0,1,0-.21,4.08,4.08,0,0,0-.11-.49c-.05-.22-.12-.45-.19-.66l0-.07,0-.06a1.49,1.49,0,0,0-1.09-.76h0l-.54-.27-.54.39a3.5,3.5,0,0,1-.54.29l-.1,0-.09.06-.11.08-1-1,.23-.38c.12-.19.24-.39.34-.59l.25-.49L4,10.23,3.94,10c0-.13-.11-.27-.16-.37l-.25-.5L3,9a6,6,0,0,1-1-.26l-.11-.06-.15-.07V7.4c.24-.05.46-.11.65-.17s.41-.11.61-.14L3.52,7l.25-.5A2.16,2.16,0,0,0,3.94,6V6l.25-.49L3.94,5c-.17-.35-.41-.75-.65-1.15l1-1L4.42,3a3.17,3.17,0,0,0,1,.63l.19.07h.2a1.55,1.55,0,0,0,.57-.11,1.52,1.52,0,0,0,.52-.22l.07,0L7.5,3l.09-.56a3.26,3.26,0,0,1,.26-.91l.09-.21V1.3H9.25M9.41.2H7.76c-.5,0-.84.17-.92.67v.26A4.36,4.36,0,0,0,6.5,2.3c-.17.09-.25.17-.34.17s-.17.09-.33.09a2,2,0,0,1-.76-.51l-.34-.17a1,1,0,0,0-.49-.14.94.94,0,0,0-.69.31L2.45,3.14a.85.85,0,0,0-.17,1.18c.26.42.51.84.68,1.18-.09.17-.09.34-.17.51-.51.08-.93.25-1.43.33h0a.85.85,0,0,0-.75.93V8.79a.85.85,0,0,0,.76.92l.16.08a7.93,7.93,0,0,0,1.27.34c.08.17.17.42.25.59-.17.33-.42.67-.59,1a.9.9,0,0,0,.17,1.17L3.72,14a.86.86,0,0,0,1.18.17L5.15,14a3.76,3.76,0,0,0,.76-.42c.17.08.5.08.59.25a5.72,5.72,0,0,1,.17.59c.08.25.08.5.17.76a1,1,0,0,0,.67.75h2.1a1,1,0,0,0,.68-.75,3.11,3.11,0,0,1,.16-.85l.17-.5.59-.25.76.5.25.17a.88.88,0,0,0,.49.15.9.9,0,0,0,.69-.32L14.49,13a.92.92,0,0,0,.17-1.18A11,11,0,0,0,14,10.72a3.87,3.87,0,0,1,.25-.59l.5-.34a2.48,2.48,0,0,0,.85-.17c.42-.08.67-.25.75-.59V6.76a1.34,1.34,0,0,0-.75-.59A2.72,2.72,0,0,1,14.74,6l-.58-.17c0-.09-.09-.17-.09-.26S14,5.42,14,5.33a4.19,4.19,0,0,0,.42-.67l.25-.34a.92.92,0,0,0-.17-1.18L13.4,2.05a.84.84,0,0,0-1.18-.17L12,2.05l-.76.51c-.17-.09-.42-.17-.59-.26-.08-.5-.25-.92-.33-1.43A.91.91,0,0,0,9.41.2Z"/>
  <path d="M8.52,11.56A3.42,3.42,0,0,1,5.07,8.19V8.11a3.34,3.34,0,0,1,1-2.44,3.47,3.47,0,0,1,2.44-1.1h0A3.47,3.47,0,0,1,12,8h0a3.38,3.38,0,0,1-1,2.44A3.7,3.7,0,0,1,8.52,11.56Z"/>
  <path class="cls-1" d="M8.52,5.68A2.32,2.32,0,0,0,6.17,8V8A2.43,2.43,0,0,0,8.6,10.45h0a2.35,2.35,0,0,0,1.67-4A2.24,2.24,0,0,0,8.52,5.68Z"/>
</svg>
