<?xml version="1.0" encoding="utf-8"?>
<!-- Generator: Adobe Illustrator 24.2.3, SVG Export Plug-In . SVG Version: 6.00 Build 0)  -->
<svg version="1.1" id="Слой_1" xmlns="http://www.w3.org/2000/svg" xmlns:xlink="http://www.w3.org/1999/xlink" x="0px" y="0px"
	 viewBox="0 0 184.3 104.3" style="enable-background:new 0 0 184.3 104.3;" xml:space="preserve">
<style type="text/css">
	.st0{fill:#010202;}
</style>
<g>
	<g>
		<path class="st0" d="M43.3,42.6c-0.2,0-0.5-0.1-0.7-0.2c-0.5-0.4-0.6-1.1-0.3-1.6c1.9-2.7,3.3-6,4.1-9.4c0.1-0.3,0.3-0.6,0.6-0.8
			c0.3-0.2,0.7-0.2,1,0c0.4,0.2,0.8,0.2,1.2,0.2c1.7,0,3.1-1.4,3.1-3.1c0-1.7-1.4-3.1-3.1-3.1c-0.1,0-0.2,0-0.3,0
			c-0.5-0.1-0.9-0.4-1-0.9c-0.1-0.6,0.2-1.2,0.8-1.3c0.3-0.1,0.5-0.1,0.6,0c3,0,5.3,2.4,5.3,5.4c0,3-2.4,5.4-5.4,5.4
			c-0.3,0-0.5,0-0.8-0.1c-0.9,3.3-2.3,6.4-4.2,9.1C44,42.4,43.7,42.6,43.3,42.6z"/>
		<path class="st0" d="M27.1,50.4c-0.1,0-0.1,0-0.2,0C19.6,49,13.3,42.1,10.9,33c-0.2,0-0.5,0.1-0.7,0.1c-3,0-5.4-2.4-5.4-5.4
			s2.4-5.4,5.4-5.4c0.1-0.1,0.5-0.2,1-0.1c0.6,0.1,1,0.7,0.9,1.4C12,24,11.5,24.4,11,24.4h0c-0.2,0.1-0.4,0.2-0.7,0.2
			c-1.7,0-3.1,1.4-3.1,3.1c0,2.1,2.2,3.7,4.2,2.9c0.3-0.1,0.7-0.1,1,0.1c0.3,0.2,0.5,0.4,0.6,0.8c2,8.7,7.8,15.4,14.4,16.7
			c0.6,0.1,1,0.7,0.9,1.3C28.1,50,27.6,50.4,27.1,50.4z"/>
		<path class="st0" d="M10.2,24.6c-0.5,0-1-0.4-1.1-0.9C9,23,9.4,22.4,10,22.3l0.8-0.2c3.3-0.7,6-2.7,7.6-5.7
			c0.2-0.4,0.7-0.6,1.1-0.6l3.1,0.3c4.8,0.4,9.6-0.1,14.2-1.7l4.6-1.6c0.6-0.2,1.3,0.1,1.5,0.7c0.2,0.6-0.1,1.3-0.7,1.5l-4.6,1.6
			c-4.9,1.7-10,2.3-15.2,1.8L20,18.2c-2,3.2-5.1,5.4-8.8,6.2l-0.8,0.2C10.4,24.5,10.3,24.6,10.2,24.6z"/>
		<path class="st0" d="M24.7,59.2c-0.2,0-0.5-0.1-0.7-0.2c-3.3-2.4-4.9-4.9-4.9-7.4v-5.4c0-0.6,0.5-1.1,1.1-1.1s1.1,0.5,1.1,1.1v5.4
			c0,2.1,2.2,4.2,4,5.6c0.5,0.4,0.6,1.1,0.2,1.6C25.4,59,25,59.2,24.7,59.2z"/>
		<path class="st0" d="M13,103.6c-0.6,0-1.1-0.5-1.1-1.1V70.2c0-0.6,0.5-1.1,1.1-1.1s1.1,0.5,1.1,1.1v32.2
			C14.2,103.1,13.6,103.6,13,103.6z"/>
		<path class="st0" d="M1.3,103.6c-0.6,0-1.1-0.5-1.1-1.1c0-2.7-0.1-10.8-0.1-18.9C0.1,75.6,0,67.5,0,64.8c0-2-0.1-4.7,1.4-6.8
			c1.9-2.7,5.6-3.8,8.6-4.6c0.6-0.2,1.1-0.3,1.6-0.5l8.2-2.5c0.6-0.2,1.2,0.2,1.4,0.8c0.2,0.6-0.2,1.2-0.8,1.4l-8.2,2.5
			c-0.5,0.2-1.1,0.3-1.7,0.5c-2.8,0.8-5.9,1.6-7.3,3.7c-1,1.4-1,3.3-1,5.5c0,2.7,0.1,10.8,0.1,18.9c0,8.1,0.1,16.1,0.1,18.8
			C2.5,103.1,2,103.6,1.3,103.6C1.4,103.6,1.4,103.6,1.3,103.6z"/>
		<path class="st0" d="M80.8,59.2c-8.3,0-16-7.3-18.7-17.6c-0.9,0.1-1.9,0-2.8-0.4c-1.6-0.7-2.9-2.2-3.2-3.9c-0.5-2.7,1-5.4,3.6-6.2
			c0.7-0.2,1.3-0.3,1.9-0.4c0.5-0.1,0.9-0.2,1.4-0.3c1.1-0.3,2.1-0.7,3-1.2c2.6-1.3,4.5-2.9,5.4-4.5c0.2-0.3,0.4-0.5,0.7-0.6
			c0.3-0.1,0.6,0,0.9,0.2c0.1,0,4.9,3.3,8.1,4.4c4.1,1.5,6.7,1.6,8.7,1.7c1.9,0.1,3.5,0.2,5.2,1.4l0,0c0.5,0.4,1.1,0.8,1.5,1.4
			c2.8,3.1,3.5,7.8,1.8,11.9C94.8,53.7,88,59.2,80.8,59.2z M62.9,39.1c0.2,0,0.4,0,0.5,0.1c0.3,0.2,0.5,0.4,0.6,0.8
			c2.2,9.8,9.3,17,16.8,17c6.3,0,12.3-5,15.4-12.7c1.4-3.4,0.8-7.1-1.3-9.6c-0.4-0.4-0.8-0.8-1.2-1.1c-1.1-0.8-2.2-0.8-3.9-0.9
			c-2.1-0.1-5-0.2-9.4-1.8c-2.6-0.9-6-3-7.7-4.1c-1.6,2.2-4.2,3.7-5.7,4.4c-1,0.5-2.1,0.9-3.4,1.3c-0.5,0.2-1.1,0.3-1.7,0.3
			c-0.6,0.1-1.1,0.2-1.6,0.3c-1.3,0.4-2.4,1.8-2.1,3.6c0.2,1,0.9,1.8,1.8,2.2c0.8,0.3,1.6,0.3,2.3,0C62.6,39.1,62.7,39.1,62.9,39.1z
			"/>
		<path class="st0" d="M80.8,79.8c-0.6,0-1.1-0.5-1.1-1.1s0.5-1.1,1.1-1.1c7.1,0,13.1-4.2,15.2-10.7c0.2-0.6,0.8-0.9,1.4-0.7
			c0.6,0.2,0.9,0.8,0.7,1.4C95.8,74.8,88.8,79.8,80.8,79.8z"/>
		<path class="st0" d="M72.8,60.6c-0.6,0-1.1-0.5-1.1-1.1v-3.6c0-0.6,0.5-1.1,1.1-1.1s1.1,0.5,1.1,1.1v3.6
			C74,60.1,73.5,60.6,72.8,60.6z"/>
		<path class="st0" d="M101,32.8c-0.6,0-1.1-0.4-1.1-1c-0.1-1-0.2-1.9-0.2-2.7c-0.2-2.2-0.3-3.7-1.1-6.6c-0.2-0.6,0.2-1.2,0.8-1.4
			c0.6-0.2,1.2,0.2,1.4,0.8c0.9,3.1,1,4.8,1.2,7.1c0.1,0.8,0.1,1.6,0.2,2.7C102.2,32.1,101.7,32.7,101,32.8
			C101,32.8,101,32.8,101,32.8z"/>
		<path class="st0" d="M60,33.4c0,0-0.1,0-0.1,0c-0.6-0.1-1.1-0.6-1-1.3c0.1-1.1,0.2-2,0.2-2.9c0.1-1.9,0.3-3.7,0.8-6
			c0.2-1,0.8-2.7,1-3.6c0.2-0.6,0.8-0.9,1.4-0.7c0.6,0.2,0.9,0.8,0.7,1.4c-0.3,1-0.8,2.5-1,3.3c-0.5,2.2-0.6,3.8-0.7,5.7
			c-0.1,0.9-0.1,1.9-0.2,3C61,33,60.5,33.4,60,33.4z"/>
		<path class="st0" d="M108.7,86.2l-11.7,0c-0.6,0-1.1-0.5-1.1-1.1v-6.3c0-0.6,0.5-1.1,1.1-1.1s1.1,0.5,1.1,1.1v5.1l9.5,0
			c0.1-2.3-0.1-8.3-0.2-9c-0.7-4.1-4-5.1-7.8-6.1c-0.7-0.2-1.3-0.3-1.9-0.6l-1.3-0.4c-1.1-0.3-2.6-0.7-4.1-1
			c-1.5-0.3-3.1-0.7-4.3-1.1c-0.5-0.2-0.8-0.6-0.8-1.1v-8.8c0-0.6,0.5-1.1,1.1-1.1s1.1,0.5,1.1,1.1v7.9c1,0.3,2.2,0.5,3.3,0.8
			c1.5,0.3,3.1,0.7,4.3,1.1l1.3,0.4c0.6,0.2,1.3,0.4,1.9,0.5c4,1.1,8.6,2.3,9.5,7.9c0,0.1,0.6,10.4-0.2,11.3
			C109.4,86.1,109,86.2,108.7,86.2z"/>
		<path class="st0" d="M98,103.6c-0.6,0-1.1-0.5-1.1-1.1V85.1c0-0.6,0.5-1.1,1.1-1.1s1.1,0.5,1.1,1.1v17.3
			C99.1,103.1,98.6,103.6,98,103.6z"/>
		<path class="st0" d="M105.2,103.6c-0.6,0-1.1-0.5-1.1-1.1V85.1c0-0.6,0.5-1.1,1.1-1.1s1.1,0.5,1.1,1.1v17.3
			C106.4,103.1,105.8,103.6,105.2,103.6z"/>
		<path class="st0" d="M70.4,11.5c-0.1,0-0.2,0-0.2,0c-0.6-0.1-1-0.7-0.9-1.3c1-5.2,5.7-9,11-9c5.7,0,10.1,3.4,10.9,8.4
			c0.1,0.6-0.3,1.2-0.9,1.3c-0.6,0.1-1.2-0.3-1.3-0.9c-0.7-3.9-4.1-6.5-8.7-6.5c-4.2,0-7.9,3-8.7,7.1C71.4,11.1,70.9,11.5,70.4,11.5
			z"/>
		<path class="st0" d="M15.6,67.5c-0.3,0-0.5-0.1-0.8-0.3c-0.3-0.3-0.5-0.7-0.4-1.1l3.2-12.8c0.1-0.6,0.8-1,1.4-0.8
			c0.6,0.2,1,0.8,0.8,1.4l-2.7,10.6l6.5-2.4c0.6-0.2,1.3,0.1,1.5,0.7c0.2,0.6-0.1,1.3-0.7,1.5L16,67.4
			C15.8,67.4,15.7,67.5,15.6,67.5z"/>
		<path class="st0" d="M40.9,78c-6.3,0-12-5.3-14.1-13c-2.5,0.2-4.6-1.8-4.6-4.3c0-2.3,1.9-4.2,4.2-4.3c0.2-0.1,0.5-0.2,0.9-0.1
			c0.6,0.1,1,0.7,0.9,1.4c-0.1,0.5-0.6,0.9-1.1,0.9c-0.2,0.1-0.3,0.1-0.6,0.1c-1.1,0-2,0.9-2,2c0,1.3,1.4,2.4,2.8,1.9
			c0.3-0.1,0.7-0.1,1,0.1c0.3,0.2,0.5,0.4,0.6,0.8c1.6,7.2,6.7,12.3,12.2,12.3s10.5-5.2,12.2-12.4c0.1-0.3,0.3-0.6,0.6-0.8
			c0.3-0.2,0.7-0.2,1-0.1c1.3,0.5,2.8-0.5,2.8-1.9c0-1.1-0.9-2-2-2c-0.1,0-0.1,0-0.2,0c-0.5,0-1-0.4-1.1-0.9
			c-0.1-0.6,0.2-1.2,0.8-1.3c0.2,0,0.3,0,0.5,0v0c2.4,0,4.3,1.9,4.3,4.3c0,2.5-2.2,4.5-4.7,4.3C52.9,72.7,47.2,78,40.9,78z
			 M54.1,57.8c0.2,0.5,0.6,0.8,1,0.8C54.7,58.5,54.3,58.2,54.1,57.8z"/>
		<path class="st0" d="M26.5,58.6c-0.5,0-1-0.4-1.1-0.9c-0.1-0.6,0.3-1.2,0.9-1.3l0.6-0.1c2.3-0.5,4.3-2,5.5-4.1
			c0.2-0.4,0.7-0.6,1.1-0.6l2.3,0.2c3.5,0.3,7.1-0.1,10.4-1.3l3.4-1.2c0.6-0.2,1.3,0.1,1.5,0.7c0.2,0.6-0.1,1.3-0.7,1.4l-3.4,1.2
			c-3.7,1.3-7.5,1.7-11.4,1.4L33.9,54c-1.5,2.3-3.9,4-6.6,4.5l-0.6,0.1C26.6,58.6,26.5,58.6,26.5,58.6z"/>
		<path class="st0" d="M40.9,85.7c-3.9,0-7.1-3.2-7.1-7.1v-3.4c0-0.6,0.5-1.1,1.1-1.1s1.1,0.5,1.1,1.1v3.4c0,2.7,2.2,4.9,4.9,4.9
			s4.9-2.2,4.9-4.9v-3.4c0-0.6,0.5-1.1,1.1-1.1s1.1,0.5,1.1,1.1v3.4C48.1,82.5,44.9,85.7,40.9,85.7z"/>
		<path class="st0" d="M23,98.4c-0.6,0-1.1-0.5-1.1-1.1L21.7,87c0-1.3,0-3.1,1-4.6c1.3-1.9,3.7-2.5,5.7-3.1c0.4-0.1,0.7-0.2,1-0.3
			l5.2-1.6c0.6-0.2,1.2,0.2,1.4,0.8c0.2,0.6-0.2,1.2-0.8,1.4L30,81.3c-0.3,0.1-0.7,0.2-1.1,0.3c-1.7,0.5-3.6,1-4.4,2.2
			C24,84.5,24,85.7,24,87l0.1,9.2h5.1v-5.7c0-0.6,0.5-1.1,1.1-1.1s1.1,0.5,1.1,1.1v6.9c0,0.6-0.5,1.1-1.1,1.1L23,98.4L23,98.4z"/>
		<path class="st0" d="M24.1,104.3c-0.6,0-1.1-0.5-1.1-1.1v-5.8c0-0.6,0.5-1.1,1.1-1.1c0.6,0,1.1,0.5,1.1,1.1v5.8
			C25.3,103.8,24.7,104.3,24.1,104.3z"/>
		<path class="st0" d="M29.2,104.3c-0.6,0-1.1-0.5-1.1-1.1v-5.8c0-0.6,0.5-1.1,1.1-1.1s1.1,0.5,1.1,1.1v5.8
			C30.4,103.8,29.9,104.3,29.2,104.3z"/>
		<path class="st0" d="M57,98.4L57,98.4l-6,0c-0.6,0-1.1-0.5-1.1-1.1v-6.9c0-0.6,0.5-1.1,1.1-1.1s1.1,0.5,1.1,1.1v5.7H57
			c0.6,0,1.1,0.5,1.1,1.1C58.2,97.9,57.7,98.4,57,98.4z"/>
		<path class="st0" d="M58.5,91.6L58.5,91.6c-0.6,0-1.2-0.5-1.1-1.2l0-3.5c0-1.3,0-2.4-0.6-3.2c-0.8-1.2-2.7-1.7-4.4-2.2
			c-0.4-0.1-0.7-0.2-1.1-0.3c-0.9-0.3-1.7-0.5-2.4-0.8c-0.7-0.3-1.5-0.5-2.3-0.8c-0.6-0.2-1-0.8-0.8-1.4c0.2-0.6,0.8-0.9,1.4-0.8
			c0.9,0.3,1.7,0.5,2.4,0.8c0.7,0.3,1.5,0.5,2.3,0.8c0.3,0.1,0.7,0.2,1,0.3c2,0.5,4.4,1.2,5.7,3.1c1,1.4,1,3.2,1,4.6l0,3.5
			C59.6,91.1,59.1,91.6,58.5,91.6z"/>
		<path class="st0" d="M52.1,104.3c-0.6,0-1.1-0.5-1.1-1.1v-5.8c0-0.6,0.5-1.1,1.1-1.1s1.1,0.5,1.1,1.1v5.8
			C53.3,103.8,52.8,104.3,52.1,104.3z"/>
		<g>
			<path class="st0" d="M71.1,87.9c-4.9,0-9.3-4.1-11.1-10c0,0,0,0,0,0c-2,0-3.6-1.6-3.6-3.6c0-1.9,1.5-3.5,3.4-3.6
				c0.2-0.1,0.5-0.1,0.8-0.1c0.6,0.1,1,0.7,0.9,1.4c-0.1,0.5-0.5,0.9-1,0.9C60.4,73,60.2,73,60,73c-0.7,0-1.3,0.6-1.3,1.3
				c0,0.9,0.9,1.6,1.8,1.2c0.3-0.1,0.7-0.1,1,0.1c0.3,0.2,0.5,0.4,0.6,0.8c1.2,5.4,5,9.3,9.1,9.3s7.9-3.9,9.1-9.3
				c0.1-0.3,0.3-0.6,0.6-0.8c0.3-0.2,0.7-0.2,1-0.1c0.9,0.4,1.8-0.3,1.8-1.2c0-0.7-0.6-1.3-1.3-1.3c-0.1,0-0.1,0-0.2,0
				c-0.5,0-1-0.4-1.1-0.9c-0.1-0.6,0.2-1.2,0.8-1.4c0.6-0.1,1.3,0.2,1.4,0.8c-0.2-0.6-0.7-0.8-1-0.8c2,0,3.6,1.6,3.6,3.6
				s-1.6,3.6-3.6,3.6c0,0-0.1,0-0.1,0C80.5,83.8,76.1,87.9,71.1,87.9z"/>
			<path class="st0" d="M71.2,93.9c-3.2,0-5.8-2.6-5.8-5.8v-2.6c0-0.6,0.5-1.1,1.1-1.1s1.1,0.5,1.1,1.1v2.6c0,1.9,1.6,3.5,3.5,3.5
				c1.9,0,3.5-1.6,3.5-3.5v-2.6c0-0.6,0.5-1.1,1.1-1.1s1.1,0.5,1.1,1.1v2.6C76.9,91.3,74.3,93.9,71.2,93.9z"/>
			<path class="st0" d="M57.3,103.7c-0.6,0-1.1-0.5-1.1-1.1l-0.1-8c0-1.1,0-2.5,0.8-3.7c1-1.5,3-2,4.5-2.5c0.3-0.1,0.5-0.1,0.8-0.2
				l4-1.2c0.6-0.2,1.2,0.2,1.4,0.8c0.2,0.6-0.2,1.2-0.8,1.4l-4,1.2c-0.3,0.1-0.6,0.2-0.8,0.2c-1.3,0.3-2.7,0.7-3.3,1.6
				c-0.4,0.5-0.4,1.4-0.4,2.3l0.1,6.8h3.4v-4.1c0-0.6,0.5-1.1,1.1-1.1s1.1,0.5,1.1,1.1v5.3c0,0.6-0.5,1.1-1.1,1.1L57.3,103.7
				L57.3,103.7z"/>
			<path class="st0" d="M84.6,103.7L84.6,103.7l-5.7,0c-0.6,0-1.1-0.5-1.1-1.1v-5.3c0-0.6,0.5-1.1,1.1-1.1s1.1,0.5,1.1,1.1v4.1h3.4
				l0.1-6.8c0-1,0-1.8-0.4-2.3c-0.6-0.8-2-1.2-3.3-1.6c-0.3-0.1-0.6-0.2-0.8-0.2c-0.7-0.2-1.3-0.4-1.9-0.6c-0.6-0.2-1.1-0.4-1.8-0.6
				c-0.6-0.2-0.9-0.8-0.8-1.4c0.2-0.6,0.8-0.9,1.4-0.8c0.7,0.2,1.3,0.4,1.9,0.6c0.6,0.2,1.1,0.4,1.8,0.6c0.3,0.1,0.5,0.1,0.8,0.2
				c1.6,0.4,3.5,1,4.5,2.5c0.8,1.2,0.8,2.6,0.8,3.7l-0.1,8C85.7,103.2,85.2,103.7,84.6,103.7z"/>
		</g>
		<path class="st0" d="M100.4,41.7c-0.7,0-1.4-0.1-2-0.4c-0.6-0.2-0.9-0.9-0.6-1.5c0.2-0.6,0.9-0.9,1.5-0.6c0.4,0.2,0.8,0.2,1.2,0.2
			c1.7,0,3.1-1.4,3.1-3.1c0-1.5-1.2-3-2.8-3.2c-0.6-0.1-1.1-0.7-0.9-1.3c0.1-0.6,0.7-1.1,1.3-0.9c2.6,0.4,4.7,2.8,4.7,5.5
			C105.8,39.3,103.4,41.7,100.4,41.7z"/>
		<path class="st0" d="M98,37.5c-0.3,0-0.7-0.2-0.9-0.5c-0.4-0.5-0.2-1.3,0.3-1.6c0,0,0.1-0.1,0.2-0.1c0.2-0.1,1-0.6,1.4-1.4
			c0.6-1.1,0.7-3.3,0.7-4c0-0.6,0.5-1.1,1.1-1.1h0c0.6,0,1.1,0.5,1.1,1.2c0,0.3-0.1,3.2-0.9,5c-0.7,1.4-1.9,2.1-2.4,2.4
			C98.4,37.4,98.2,37.5,98,37.5z"/>
		<path class="st0" d="M48.1,24.6c-0.1,0-0.1,0-0.2,0c-0.6-0.1-1-0.7-0.9-1.3c0.5-2.9-0.3-6.3-0.8-8.1c-0.8-2.6-2.1-5-3.8-6.9
			c-3.4-3.8-8.3-6-13.4-6c-10,0-18.1,8.1-18.1,18.1c0,1,0,1.7,0.2,2.7c0.1,0.6-0.3,1.2-0.9,1.3s-1.2-0.3-1.3-0.9
			c-0.2-1.1-0.2-1.9-0.2-3.1C8.6,9.1,17.7,0,29,0c5.8,0,11.3,2.5,15.1,6.7c2,2.2,3.5,4.9,4.3,7.8c0.6,2,1.4,5.7,0.9,9.1
			C49.2,24.2,48.7,24.6,48.1,24.6z"/>
		<path class="st0" d="M99.6,23.3c-0.5,0-0.9-0.3-1.1-0.8c-1-3.3-2.1-5.6-3.7-7.4c-3.6-4-8.7-6.3-14.1-6.3c-6.9,0-13.5,3.8-16.8,9.6
			c-0.4,0.7-0.8,1.4-1.1,2.2c-0.2,0.6-0.9,0.9-1.5,0.6c-0.6-0.2-0.9-0.9-0.6-1.5c0.3-0.8,0.7-1.6,1.2-2.4c3.8-6.7,11-10.8,18.8-10.8
			c6,0,11.8,2.6,15.8,7c2.3,2.6,3.5,5.8,4.2,8.3c0.2,0.6-0.2,1.2-0.8,1.4C99.8,23.2,99.7,23.3,99.6,23.3z"/>
		<path class="st0" d="M54.5,58.6c-0.1,0-0.1,0-0.2,0c-0.6-0.1-1-0.7-0.9-1.3c0.3-1.5,0-3.6-0.6-5.8c-0.5-1.8-1.5-3.6-2.7-4.9
			c-2.5-2.7-6-4.3-9.6-4.3c-7.1,0-13,5.8-13,12.9c0,0.7,0,1.2,0.1,1.9c0.1,0.6-0.3,1.2-0.9,1.3c-0.6,0.1-1.2-0.3-1.3-0.9
			c-0.1-0.8-0.2-1.5-0.2-2.3c0-8.4,6.8-15.2,15.2-15.2c4.3,0,8.4,1.8,11.3,5c1.5,1.6,2.6,3.7,3.2,5.8c0.5,1.8,1,4.4,0.6,6.8
			C55.6,58.2,55.1,58.6,54.5,58.6z"/>
		<path class="st0" d="M81.8,73.1c-0.1,0-0.1,0-0.2,0c-0.6-0.1-1-0.7-0.9-1.3c0.2-1.1,0-2.6-0.4-4.3c-0.4-1.4-1.1-2.6-2-3.6
			c-1.8-2-4.4-3.2-7.1-3.2c-5.3,0-9.6,4.3-9.6,9.6c0,0.5,0,0.9,0.1,1.4c0.1,0.6-0.3,1.2-0.9,1.3c-0.6,0.1-1.2-0.3-1.3-0.9
			c-0.1-0.7-0.1-1.1-0.1-1.8c0-6.5,5.3-11.9,11.9-11.9c3.3,0,6.6,1.4,8.8,3.9c1.2,1.3,2,2.8,2.5,4.5c0.4,1.4,0.8,3.4,0.5,5.3
			C82.8,72.7,82.3,73.1,81.8,73.1z"/>
		<path class="st0" d="M61,72.9c-0.5,0-1-0.4-1.1-0.9c-0.1-0.6,0.3-1.2,0.9-1.3l0.4-0.1c1.6-0.3,2.9-1.3,3.6-2.7
			c0.2-0.4,0.7-0.6,1.1-0.6l1.6,0.2c2.5,0.2,4.9-0.1,7.2-0.9l2.4-0.8c0.6-0.2,1.3,0.1,1.4,0.7c0.2,0.6-0.1,1.3-0.7,1.4l-2.4,0.8
			c-2.6,0.9-5.4,1.2-8.2,1l-0.9-0.1c-1.1,1.6-2.8,2.8-4.8,3.2l-0.4,0.1C61.2,72.9,61.1,72.9,61,72.9z"/>
	</g>
	<g>
		<g>
			<path class="st0" d="M162.2,61.4h-28.7c-0.3,0-0.5-0.2-0.5-0.5V41.7c0-0.3,0.2-0.5,0.5-0.5h28.7c0.3,0,0.5,0.2,0.5,0.5v19.2
				C162.7,61.2,162.4,61.4,162.2,61.4z M133.9,60.4h27.7V42.2h-27.7V60.4z"/>
			<path class="st0" d="M160.3,50.9c-0.3,0-0.5-0.2-0.5-0.5v-5.5h-23.4v5.5c0,0.3-0.2,0.5-0.5,0.5s-0.5-0.2-0.5-0.5v-6
				c0-0.3,0.2-0.5,0.5-0.5h24.4c0.3,0,0.5,0.2,0.5,0.5v6C160.7,50.7,160.5,50.9,160.3,50.9z"/>
			<path class="st0" d="M160.3,59.2h-24.4c-0.3,0-0.5-0.2-0.5-0.5v-6c0-0.3,0.2-0.5,0.5-0.5s0.5,0.2,0.5,0.5v5.5h23.4v-5.5
				c0-0.3,0.2-0.5,0.5-0.5s0.5,0.2,0.5,0.5v6C160.7,59,160.5,59.2,160.3,59.2z"/>
			<path class="st0" d="M148.1,66.4h-17.2c-0.2,0-0.3-0.1-0.4-0.2s-0.1-0.3,0-0.5l2.5-5.1c0.1-0.3,0.4-0.3,0.7-0.2
				c0.3,0.1,0.3,0.4,0.2,0.7l-2.2,4.3h16.4c0.3,0,0.5,0.2,0.5,0.5S148.4,66.4,148.1,66.4z"/>
			<path class="st0" d="M164.7,66.4h-17.2c-0.3,0-0.5-0.2-0.5-0.5s0.2-0.5,0.5-0.5h16.4l-2.2-4.3c-0.1-0.2,0-0.5,0.2-0.7
				s0.5,0,0.7,0.2l2.5,5.1c0.1,0.2,0.1,0.3,0,0.5C165,66.3,164.8,66.4,164.7,66.4z"/>
			<path class="st0" d="M143.7,66.4c-0.1,0-0.1,0-0.2,0c-0.3-0.1-0.4-0.4-0.3-0.6l1.1-3.3c0.1-0.2,0.3-0.3,0.5-0.3h3
				c0.3,0,0.5,0.2,0.5,0.5c0,0.3-0.2,0.5-0.5,0.5h-2.6l-1,3C144.1,66.3,143.9,66.4,143.7,66.4z"/>
			<path class="st0" d="M152.6,66.4c-0.2,0-0.4-0.1-0.5-0.3l-1-3h-4.4c-0.3,0-0.5-0.2-0.5-0.5c0-0.3,0.2-0.5,0.5-0.5h4.7
				c0.2,0,0.4,0.1,0.5,0.3l1.1,3.3c0.1,0.3-0.1,0.5-0.3,0.6C152.7,66.4,152.7,66.4,152.6,66.4z"/>
			<path class="st0" d="M148.1,68.6h-17.2c-0.3,0-0.5-0.2-0.5-0.5v-2.2c0-0.3,0.2-0.5,0.5-0.5c0.3,0,0.5,0.2,0.5,0.5v1.7h16.7
				c0.3,0,0.5,0.2,0.5,0.5S148.4,68.6,148.1,68.6z"/>
			<path class="st0" d="M164.7,68.6h-17.2c-0.3,0-0.5-0.2-0.5-0.5s0.2-0.5,0.5-0.5h16.7v-1.7c0-0.3,0.2-0.5,0.5-0.5
				c0.3,0,0.5,0.2,0.5,0.5v2.2C165.1,68.4,164.9,68.6,164.7,68.6z"/>
		</g>
		<g>
			<path class="st0" d="M182.5,104h-8c-1,0-1.8-0.8-1.8-1.8V84.7c0-1,0.8-1.8,1.8-1.8h8c1,0,1.8,0.8,1.8,1.8v17.5
				C184.3,103.2,183.5,104,182.5,104z M174.5,84c-0.4,0-0.8,0.3-0.8,0.8v17.5c0,0.4,0.3,0.8,0.8,0.8h8c0.4,0,0.8-0.3,0.8-0.8V84.7
				c0-0.4-0.3-0.8-0.8-0.8H174.5z"/>
			<path class="st0" d="M183.8,86.3h-10.6c-0.3,0-0.5-0.2-0.5-0.5s0.2-0.5,0.5-0.5h10.6c0.3,0,0.5,0.2,0.5,0.5
				S184.1,86.3,183.8,86.3z"/>
			<path class="st0" d="M183.8,100.7h-10.6c-0.3,0-0.5-0.2-0.5-0.5c0-0.3,0.2-0.5,0.5-0.5h10.6c0.3,0,0.5,0.2,0.5,0.5
				S184.1,100.7,183.8,100.7z"/>
			<path class="st0" d="M179.4,84.9h-1.8c-0.2,0-0.3-0.1-0.3-0.3c0-0.2,0.1-0.3,0.3-0.3h1.8c0.2,0,0.3,0.1,0.3,0.3
				C179.7,84.8,179.6,84.9,179.4,84.9z"/>
			<circle class="st0" cx="178.5" cy="101.9" r="0.9"/>
		</g>
		<g>
			<path class="st0" d="M182.5,79.8h-8c-1,0-1.8-0.8-1.8-1.8V60.6c0-1,0.8-1.8,1.8-1.8h8c1,0,1.8,0.8,1.8,1.8v17.5
				C184.3,79,183.5,79.8,182.5,79.8z M174.5,59.8c-0.4,0-0.8,0.3-0.8,0.8v17.5c0,0.4,0.3,0.8,0.8,0.8h8c0.4,0,0.8-0.3,0.8-0.8V60.6
				c0-0.4-0.3-0.8-0.8-0.8H174.5z"/>
			<path class="st0" d="M183.8,62.1h-10.6c-0.3,0-0.5-0.2-0.5-0.5s0.2-0.5,0.5-0.5h10.6c0.3,0,0.5,0.2,0.5,0.5
				S184.1,62.1,183.8,62.1z"/>
			<path class="st0" d="M183.8,76.6h-10.6c-0.3,0-0.5-0.2-0.5-0.5c0-0.3,0.2-0.5,0.5-0.5h10.6c0.3,0,0.5,0.2,0.5,0.5
				S184.1,76.6,183.8,76.6z"/>
			<path class="st0" d="M179.4,60.7h-1.7c-0.2,0-0.3-0.1-0.3-0.3c0-0.1,0.1-0.3,0.3-0.3h1.7c0.2,0,0.3,0.1,0.3,0.3
				S179.5,60.7,179.4,60.7z"/>
			<circle class="st0" cx="178.5" cy="77.7" r="0.9"/>
		</g>
		<g>
			<path class="st0" d="M182.5,55.7h-8c-1,0-1.8-0.8-1.8-1.8V36.4c0-1,0.8-1.8,1.8-1.8h8c1,0,1.8,0.8,1.8,1.8v17.5
				C184.3,54.9,183.5,55.7,182.5,55.7z M174.5,35.7c-0.4,0-0.8,0.3-0.8,0.8v17.5c0,0.4,0.3,0.8,0.8,0.8h8c0.4,0,0.8-0.3,0.8-0.8
				V36.4c0-0.4-0.3-0.8-0.8-0.8L174.5,35.7L174.5,35.7z"/>
			<path class="st0" d="M183.8,38h-10.6c-0.3,0-0.5-0.2-0.5-0.5c0-0.3,0.2-0.5,0.5-0.5h10.6c0.3,0,0.5,0.2,0.5,0.5
				C184.3,37.8,184.1,38,183.8,38z"/>
			<path class="st0" d="M183.8,52.4h-10.6c-0.3,0-0.5-0.2-0.5-0.5s0.2-0.5,0.5-0.5h10.6c0.3,0,0.5,0.2,0.5,0.5
				S184.1,52.4,183.8,52.4z"/>
			<path class="st0" d="M179.3,36.6h-1.6c-0.2,0-0.3-0.1-0.3-0.3c0-0.2,0.1-0.3,0.3-0.3h1.6c0.2,0,0.3,0.1,0.3,0.3
				S179.5,36.6,179.3,36.6z"/>
			<circle class="st0" cx="178.5" cy="53.6" r="0.9"/>
		</g>
		<g>
			<path class="st0" d="M182.5,31.3h-8c-1,0-1.8-0.8-1.8-1.8V12c0-1,0.8-1.8,1.8-1.8h8c1,0,1.8,0.8,1.8,1.8v17.5
				C184.3,30.5,183.5,31.3,182.5,31.3z M174.5,11.2c-0.4,0-0.8,0.3-0.8,0.8v17.5c0,0.4,0.3,0.8,0.8,0.8h8c0.4,0,0.8-0.3,0.8-0.8V12
				c0-0.4-0.3-0.8-0.8-0.8H174.5z"/>
			<path class="st0" d="M183.8,13.6h-10.6c-0.3,0-0.5-0.2-0.5-0.5c0-0.3,0.2-0.5,0.5-0.5h10.6c0.3,0,0.5,0.2,0.5,0.5
				C184.3,13.3,184.1,13.6,183.8,13.6z"/>
			<path class="st0" d="M183.8,28h-10.6c-0.3,0-0.5-0.2-0.5-0.5c0-0.3,0.2-0.5,0.5-0.5h10.6c0.3,0,0.5,0.2,0.5,0.5
				S184.1,28,183.8,28z"/>
			<path class="st0" d="M179.2,12.2h-1.5c-0.1,0-0.3-0.1-0.3-0.3s0.1-0.3,0.3-0.3h1.5c0.1,0,0.3,0.1,0.3,0.3S179.4,12.2,179.2,12.2z
				"/>
			<circle class="st0" cx="178.5" cy="29.1" r="0.9"/>
		</g>
		<g>
			<path class="st0" d="M153.6,32.1h-27.2c-0.3,0-0.5-0.2-0.5-0.5V10.2c0-0.3,0.2-0.5,0.5-0.5h27.2c0.3,0,0.5,0.2,0.5,0.5v21.5
				C154.1,31.9,153.9,32.1,153.6,32.1z M126.9,31.1h26.2V10.6h-26.2V31.1z"/>
			<path class="st0" d="M153.4,28h-26.7c-0.3,0-0.5-0.2-0.5-0.5s0.2-0.5,0.5-0.5h26.7c0.3,0,0.5,0.2,0.5,0.5S153.6,28,153.4,28z"/>
			<path class="st0" d="M143.7,34.2h-7.3c-0.3,0-0.5-0.2-0.5-0.5v-2.1c0-0.3,0.2-0.5,0.5-0.5h7.3c0.3,0,0.5,0.2,0.5,0.5v2.1
				C144.2,34,144,34.2,143.7,34.2z M136.9,33.2h6.3v-1.1h-6.3V33.2z"/>
			<path class="st0" d="M147,37.2h-14c-0.3,0-0.5-0.2-0.5-0.5v-3c0-0.3,0.2-0.5,0.5-0.5h14c0.3,0,0.5,0.2,0.5,0.5v3
				C147.5,36.9,147.3,37.2,147,37.2z M133.5,36.2h13v-2h-13V36.2z"/>
			<circle class="st0" cx="140" cy="29.6" r="1.1"/>
			<g>
				<path class="st0" d="M168.2,37.2h-12.1c-0.3,0-0.5-0.2-0.5-0.5V10.2c0-0.3,0.2-0.5,0.5-0.5h12.1c0.3,0,0.5,0.2,0.5,0.5v26.5
					C168.7,36.9,168.5,37.2,168.2,37.2z M156.6,36.2h11.1V10.6h-11.1V36.2z"/>
				<path class="st0" d="M168,13.5h-11.6c-0.3,0-0.5-0.2-0.5-0.5s0.2-0.5,0.5-0.5H168c0.3,0,0.5,0.2,0.5,0.5S168.3,13.5,168,13.5z"
					/>
				<path class="st0" d="M168,16.6h-11.6c-0.3,0-0.5-0.2-0.5-0.5c0-0.3,0.2-0.5,0.5-0.5H168c0.3,0,0.5,0.2,0.5,0.5
					C168.5,16.3,168.3,16.6,168,16.6z"/>
				<path class="st0" d="M162.2,23.9c-1.2,0-2.2-1-2.2-2.2s1-2.2,2.2-2.2s2.2,1,2.2,2.2S163.4,23.9,162.2,23.9z M162.2,20.5
					c-0.7,0-1.2,0.6-1.2,1.2s0.6,1.2,1.2,1.2s1.2-0.6,1.2-1.2S162.9,20.5,162.2,20.5z"/>
				<path class="st0" d="M165.2,28.9h-6.1c-0.3,0-0.5-0.2-0.5-0.5c0-0.3,0.2-0.5,0.5-0.5h6.1c0.3,0,0.5,0.2,0.5,0.5
					S165.5,28.9,165.2,28.9z"/>
				<path class="st0" d="M165.2,34.2h-6.1c-0.3,0-0.5-0.2-0.5-0.5v-3.4c0-0.3,0.2-0.5,0.5-0.5h6.1c0.3,0,0.5,0.2,0.5,0.5v3.4
					C165.7,34,165.5,34.2,165.2,34.2z M159.6,33.2h5.1v-2.4h-5.1V33.2z"/>
			</g>
		</g>
		<g>
			<g>
				<path class="st0" d="M164.8,96.5h-7.5c-0.3,0-0.5-0.2-0.5-0.5s0.2-0.5,0.5-0.5h7V76.2h-32.5v19.3h21.6c0.3,0,0.5,0.2,0.5,0.5
					s-0.2,0.5-0.5,0.5h-22.1c-0.3,0-0.5-0.2-0.5-0.5V75.7c0-0.3,0.2-0.5,0.5-0.5h33.5c0.3,0,0.5,0.2,0.5,0.5V96
					C165.3,96.3,165.1,96.5,164.8,96.5z"/>
				<path class="st0" d="M166.9,98.6h-22.4c-0.3,0-0.5-0.2-0.5-0.5s0.2-0.5,0.5-0.5h21.9V73.4h-26.1c-0.3,0-0.5-0.2-0.5-0.5
					c0-0.3,0.2-0.5,0.5-0.5h26.6c0.3,0,0.5,0.2,0.5,0.5v25.2C167.4,98.4,167.2,98.6,166.9,98.6z"/>
				<path class="st0" d="M140.8,98.6h-12.1c-0.3,0-0.5-0.2-0.5-0.5V72.9c0-0.3,0.2-0.5,0.5-0.5h8.4c0.3,0,0.5,0.2,0.5,0.5
					c0,0.3-0.2,0.5-0.5,0.5h-7.9v24.2h11.6c0.3,0,0.5,0.2,0.5,0.5S141.1,98.6,140.8,98.6z"/>
				<path class="st0" d="M142.5,85.1h-5.9c-0.3,0-0.5-0.2-0.5-0.5v-4.7c0-0.3,0.2-0.5,0.5-0.5h5.9c0.3,0,0.5,0.2,0.5,0.5v4.7
					C143,84.9,142.8,85.1,142.5,85.1z M137.1,84.1h4.9v-3.7h-4.9V84.1z"/>
				<path class="st0" d="M151.1,85.1h-5.9c-0.3,0-0.5-0.2-0.5-0.5v-4.7c0-0.3,0.2-0.5,0.5-0.5h5.9c0.3,0,0.5,0.2,0.5,0.5v4.7
					C151.6,84.9,151.4,85.1,151.1,85.1z M145.8,84.1h4.9v-3.7h-4.9V84.1z"/>
				<path class="st0" d="M159.2,85.1h-5.9c-0.3,0-0.5-0.2-0.5-0.5v-4.7c0-0.3,0.2-0.5,0.5-0.5h5.9c0.3,0,0.5,0.2,0.5,0.5v4.7
					C159.7,84.9,159.5,85.1,159.2,85.1z M153.9,84.1h4.9v-3.7h-4.9V84.1z"/>
				<path class="st0" d="M142.5,92.4h-5.9c-0.3,0-0.5-0.2-0.5-0.5v-4.7c0-0.3,0.2-0.5,0.5-0.5h5.9c0.3,0,0.5,0.2,0.5,0.5v4.7
					C143,92.1,142.8,92.4,142.5,92.4z M137.1,91.4h4.9v-3.7h-4.9V91.4z"/>
				<path class="st0" d="M151.1,92.4h-5.9c-0.3,0-0.5-0.2-0.5-0.5v-4.7c0-0.3,0.2-0.5,0.5-0.5h5.9c0.3,0,0.5,0.2,0.5,0.5v4.7
					C151.6,92.1,151.4,92.4,151.1,92.4z M145.8,91.4h4.9v-3.7h-4.9V91.4z"/>
				<path class="st0" d="M159.2,92.4h-5.9c-0.3,0-0.5-0.2-0.5-0.5v-4.7c0-0.3,0.2-0.5,0.5-0.5h5.9c0.3,0,0.5,0.2,0.5,0.5v4.7
					C159.7,92.1,159.5,92.4,159.2,92.4z M153.9,91.4h4.9v-3.7h-4.9V91.4z"/>
			</g>
			<path class="st0" d="M150.5,101.3h-5.4c-0.3,0-0.5-0.2-0.5-0.5v-2.7c0-0.3,0.2-0.5,0.5-0.5h5.4c0.3,0,0.5,0.2,0.5,0.5v2.7
				C151,101,150.8,101.3,150.5,101.3z M145.6,100.3h4.4v-1.7h-4.4V100.3z"/>
			<path class="st0" d="M147.8,103.3c-0.8,0-7.5-0.1-7.5-2.1c0-1,1.5-1.6,4.6-1.9c0.3,0,0.5,0.2,0.5,0.4s-0.2,0.5-0.4,0.5
				c-2.5,0.3-3.6,0.8-3.7,1c0.2,0.3,2.6,1,6.5,1s6.3-0.7,6.5-1.1c-0.1-0.1-1.2-0.6-3.9-0.9c-0.3,0-0.5-0.3-0.4-0.5
				c0-0.3,0.3-0.5,0.5-0.4c2.2,0.2,4.8,0.7,4.8,1.9C155.3,103.2,148.6,103.3,147.8,103.3z"/>
		</g>
	</g>
</g>
</svg>
