<?xml version="1.0" encoding="utf-8"?>
<!-- Generator: Adobe Illustrator 24.2.3, SVG Export Plug-In . SVG Version: 6.00 Build 0)  -->
<svg version="1.1" id="Слой_1" xmlns="http://www.w3.org/2000/svg" xmlns:xlink="http://www.w3.org/1999/xlink" x="0px" y="0px"
	 viewBox="0 0 184.3 103.6" style="enable-background:new 0 0 184.3 103.6;" xml:space="preserve">
<style type="text/css">
	.st0{fill:#010202;}
</style>
<g>
	<g>
		<path class="st0" d="M39.8,50.6c-8.3,0-16-7.3-18.7-17.6c-0.2,0-0.5,0.1-0.7,0.1c-3,0-5.4-2.4-5.4-5.4s2.4-5.4,5.4-5.4
			c0.1-0.1,0.5-0.2,1-0.1c0.6,0.1,1,0.7,0.9,1.4c-0.1,0.5-0.6,0.9-1.1,0.9h0c-0.2,0.1-0.4,0.2-0.8,0.2c-1.7,0-3.1,1.4-3.1,3.1
			c0,2.1,2.2,3.7,4.3,2.9c0.3-0.1,0.7-0.1,1,0.1c0.3,0.2,0.5,0.4,0.6,0.8c2.2,9.8,9.3,17,16.8,17s14.6-7.1,16.8-17
			c0.1-0.3,0.3-0.6,0.6-0.8c0.3-0.2,0.7-0.2,1,0c0.4,0.2,0.8,0.2,1.2,0.2c1.7,0,3.1-1.4,3.1-3.1s-1.4-3.1-3.1-3.1
			c-0.1,0-0.2,0-0.3,0c-0.5-0.1-0.9-0.4-1-0.9c-0.1-0.6,0.2-1.2,0.8-1.3c0.3-0.1,0.5-0.1,0.6,0c3,0,5.3,2.4,5.3,5.4
			c0,3-2.4,5.4-5.4,5.4c-0.3,0-0.5,0-0.8-0.1C55.8,43.3,48,50.6,39.8,50.6z"/>
		<path class="st0" d="M20.3,24.6c-0.5,0-1-0.4-1.1-0.9c-0.1-0.6,0.3-1.2,0.9-1.4l0.8-0.2c3.3-0.7,6-2.7,7.6-5.7
			c0.2-0.4,0.7-0.6,1.1-0.6l3.1,0.3c4.8,0.4,9.6-0.1,14.2-1.7l4.6-1.6c0.6-0.2,1.3,0.1,1.5,0.7c0.2,0.6-0.1,1.3-0.7,1.4l-4.6,1.6
			c-4.9,1.7-10,2.3-15.2,1.8l-2.4-0.2c-2,3.2-5.1,5.4-8.8,6.2l-0.8,0.2C20.5,24.5,20.4,24.6,20.3,24.6z"/>
		<path class="st0" d="M39.8,62.2c-5.9,0-10.6-4.8-10.6-10.6v-5.4c0-0.6,0.5-1.1,1.1-1.1s1.1,0.5,1.1,1.1v5.4c0,4.6,3.7,8.3,8.3,8.3
			s8.3-3.7,8.3-8.3v-5.4c0-0.6,0.5-1.1,1.1-1.1s1.1,0.5,1.1,1.1v5.4C50.4,57.4,45.7,62.2,39.8,62.2z"/>
		<path class="st0" d="M39.8,69.7c-9,0-16.9-6.8-18.2-15.7c-0.1-0.6,0.3-1.2,1-1.3c0.6-0.1,1.2,0.3,1.3,1c1.1,7.8,8,13.7,15.9,13.7
			c8.2,0,14.8-5.7,15.8-13.5c0.1-0.6,0.6-1.1,1.3-1c0.6,0.1,1.1,0.7,1,1.3C56.7,63.2,49.1,69.7,39.8,69.7z"/>
		<path class="st0" d="M11.5,82.2c-0.6,0-1.1-0.5-1.1-1.1l-0.2-16.3c0-2-0.1-4.7,1.4-6.8c1.9-2.7,5.6-3.8,8.6-4.6
			c0.6-0.2,1.1-0.3,1.6-0.5l8.2-2.5c0.6-0.2,1.2,0.2,1.4,0.8c0.2,0.6-0.2,1.2-0.8,1.4l-8.2,2.5c-0.5,0.2-1.1,0.3-1.7,0.5
			c-2.8,0.8-5.9,1.6-7.3,3.7c-1,1.4-1,3.3-1,5.5L12.6,80l9.4,0v-9.7c0-0.6,0.5-1.1,1.1-1.1s1.1,0.5,1.1,1.1v10.9
			c0,0.6-0.5,1.1-1.1,1.1L11.5,82.2L11.5,82.2z"/>
		<path class="st0" d="M13.3,103.6c-0.6,0-1.1-0.5-1.1-1.1V81.2c0-0.6,0.5-1.1,1.1-1.1s1.1,0.5,1.1,1.1v21.3
			C14.4,103.1,13.9,103.6,13.3,103.6z"/>
		<path class="st0" d="M21.3,103.6c-0.6,0-1.1-0.5-1.1-1.1V81.2c0-0.6,0.5-1.1,1.1-1.1s1.1,0.5,1.1,1.1v21.3
			C22.5,103.1,22,103.6,21.3,103.6z"/>
		<path class="st0" d="M64.9,82.2L64.9,82.2l-9.2,0c-0.6,0-1.1-0.5-1.1-1.1V70.2c0-0.6,0.5-1.1,1.1-1.1c0.6,0,1.1,0.5,1.1,1.1v9.7
			l8,0c0.6,0,1.1,0.5,1.1,1.1C66,81.7,65.5,82.2,64.9,82.2z"/>
		<path class="st0" d="M67.5,71.2L67.5,71.2c-0.6,0-1.2-0.5-1.1-1.2l0.1-5.3c0-2.2,0-4.1-1-5.5c-1.4-2.1-4.6-2.9-7.3-3.7
			c-0.6-0.2-1.2-0.3-1.7-0.5c-1.4-0.4-2.6-0.8-3.8-1.3c-1.2-0.4-2.3-0.8-3.7-1.2c-0.6-0.2-1-0.8-0.8-1.4c0.2-0.6,0.8-0.9,1.4-0.8
			c1.4,0.4,2.6,0.8,3.8,1.3c1.2,0.4,2.3,0.8,3.7,1.2c0.5,0.2,1.1,0.3,1.6,0.5c3,0.8,6.7,1.8,8.6,4.6c1.5,2.1,1.4,4.8,1.4,6.8
			l-0.1,5.3C68.7,70.7,68.2,71.2,67.5,71.2z"/>
		<path class="st0" d="M65.6,103.6c-0.6,0-1.1-0.5-1.1-1.1V85.1c0-0.6,0.5-1.1,1.1-1.1s1.1,0.5,1.1,1.1v17.4
			C66.7,103.1,66.2,103.6,65.6,103.6z"/>
		<path class="st0" d="M57.5,103.6c-0.6,0-1.1-0.5-1.1-1.1V81.2c0-0.6,0.5-1.1,1.1-1.1s1.1,0.5,1.1,1.1v21.3
			C58.7,103.1,58.1,103.6,57.5,103.6z"/>
		<path class="st0" d="M93.9,59.2c-8.3,0-16-7.3-18.7-17.6c-0.9,0.1-1.9,0-2.8-0.4c-1.6-0.7-2.9-2.2-3.2-3.9
			c-0.3-1.6,0.1-3.3,1.1-4.5c1-1.2,2.5-1.9,4.1-2l0.1,0c0.2-0.1,0.5-0.2,0.8-0.2c3.4-0.8,7.8-3.2,9.3-5.9c0.2-0.3,0.4-0.5,0.7-0.6
			c0.3-0.1,0.6,0,0.9,0.2c0.1,0,4.9,3.3,8.1,4.4c4.1,1.5,6.7,1.6,8.7,1.7c1.9,0.1,3.5,0.2,5.2,1.4c0.5,0.4,1.1,0.8,1.5,1.4
			c2.8,3.1,3.5,7.8,1.8,11.9C108,53.7,101.1,59.2,93.9,59.2z M76,39.1c0.2,0,0.4,0,0.5,0.1c0.3,0.2,0.5,0.4,0.6,0.8
			c2.2,9.8,9.3,17,16.8,17c6.3,0,12.3-5,15.4-12.7c1.4-3.4,0.8-7.1-1.3-9.6c-0.4-0.4-0.8-0.8-1.2-1.1l0,0c-1.1-0.8-2.2-0.8-3.9-0.9
			c-2.1-0.1-5-0.2-9.4-1.8c-2.6-0.9-6-3-7.7-4.1c-2.3,3-6.8,5.4-10.4,6.1c-0.1,0-0.2,0-0.3,0c-0.1,0-0.2,0.1-0.2,0.1l-0.3,0.1
			c-0.1,0-0.2,0-0.2,0c-0.9,0-1.8,0.4-2.4,1.2c-0.6,0.7-0.8,1.7-0.6,2.6c0.2,1,0.9,1.8,1.8,2.2c0.8,0.3,1.6,0.3,2.3,0
			C75.7,39.1,75.9,39.1,76,39.1z"/>
		<path class="st0" d="M93.9,79.8c-8,0-15-5.1-17.4-12.7c-0.2-0.6,0.1-1.3,0.7-1.4c0.6-0.2,1.3,0.1,1.4,0.7
			C80.8,73,87,77.5,93.9,77.5c7.1,0,13.1-4.2,15.2-10.7c0.2-0.6,0.8-0.9,1.4-0.7c0.6,0.2,0.9,0.8,0.7,1.4
			C108.9,74.8,101.9,79.8,93.9,79.8z"/>
		<path class="st0" d="M65.6,86.2c-0.3,0-0.7-0.1-0.9-0.4c-0.8-0.9-0.2-11.2-0.2-11.3c0.9-5.6,5.5-6.8,9.5-7.9
			c0.6-0.2,1.3-0.3,1.9-0.5l1.3-0.4c1.2-0.4,2.8-0.7,4.3-1.1c1.2-0.3,2.3-0.5,3.3-0.8v-7.9c0-0.6,0.5-1.1,1.1-1.1s1.1,0.5,1.1,1.1
			v8.8c0,0.5-0.3,0.9-0.8,1.1c-1.2,0.4-2.8,0.7-4.3,1.1c-1.5,0.3-3,0.7-4.1,1l-1.3,0.4c-0.6,0.2-1.3,0.4-1.9,0.6
			c-3.9,1.1-7.2,2-7.8,6.1c-0.1,0.8-0.2,6.7-0.2,9l9.5,0v-5.1c0-0.6,0.5-1.1,1.1-1.1s1.1,0.5,1.1,1.1v6.3c0,0.6-0.5,1.1-1.1,1.1
			L65.6,86.2L65.6,86.2z"/>
		<path class="st0" d="M76.3,103.6c-0.6,0-1.1-0.5-1.1-1.1V85.1c0-0.6,0.5-1.1,1.1-1.1s1.1,0.5,1.1,1.1v17.3
			C77.5,103.1,76.9,103.6,76.3,103.6z"/>
		<g>
			<path class="st0" d="M102.1,60.6c-0.6,0-1.1-0.4-1.1-1c-0.1-0.6,0.4-1.2,1-1.3l13.4-1.3l-1.7-18.6c-0.1-1.1-0.3-2.2-0.4-3.3
				c-0.4-4.2-0.9-8.1-1.7-12.2c-0.1-0.6,0.3-1.2,0.9-1.4c0.6-0.1,1.2,0.3,1.4,0.9c0.9,4.3,1.3,8.2,1.8,12.4c0.1,1.1,0.2,2.2,0.4,3.3
				l1.8,19.7c0.1,0.6-0.4,1.2-1,1.3l-14.6,1.4C102.2,60.6,102.1,60.6,102.1,60.6z"/>
			<path class="st0" d="M73.1,33.4c0,0-0.1,0-0.1,0c-0.6-0.1-1.1-0.6-1-1.3c0.4-3.6,0.9-6.4,1.6-9.6c0.1-0.6,0.7-1,1.4-0.9
				c0.6,0.1,1,0.7,0.9,1.4c-0.7,3.1-1.2,5.8-1.5,9.3C74.2,33,73.7,33.4,73.1,33.4z"/>
		</g>
		<path class="st0" d="M85.2,60.6c0,0-0.1,0-0.1,0l-14.6-1.4c-0.6-0.1-1.1-0.6-1-1.3l1.7-18.1c0.1-0.6,0.6-1.1,1.3-1
			c0.6,0.1,1.1,0.6,1,1.3l-1.6,17l13.4,1.3c0.6,0.1,1.1,0.6,1,1.3C86.3,60.2,85.8,60.6,85.2,60.6z"/>
		<path class="st0" d="M121.9,86.2l-11.7,0c-0.6,0-1.1-0.5-1.1-1.1v-6.3c0-0.6,0.5-1.1,1.1-1.1s1.1,0.5,1.1,1.1v5.1l9.5,0
			c0.1-2.3-0.1-8.3-0.2-9c-0.7-4.1-4-5.1-7.8-6.1c-0.7-0.2-1.3-0.3-1.9-0.6l-1.3-0.4c-1.1-0.3-2.6-0.7-4.1-1
			c-1.5-0.3-3.1-0.7-4.3-1.1c-0.5-0.2-0.8-0.6-0.8-1.1v-8.8c0-0.6,0.5-1.1,1.1-1.1s1.1,0.5,1.1,1.1v7.9c1,0.3,2.2,0.5,3.3,0.8
			c1.5,0.3,3.1,0.7,4.3,1.1l1.3,0.4c0.6,0.2,1.3,0.4,1.9,0.5c4,1.1,8.6,2.3,9.5,7.9c0,0.1,0.6,10.3-0.2,11.3
			C122.5,86.1,122.2,86.2,121.9,86.2z"/>
		<path class="st0" d="M111.1,103.6c-0.6,0-1.1-0.5-1.1-1.1V85.1c0-0.6,0.5-1.1,1.1-1.1s1.1,0.5,1.1,1.1v17.3
			C112.3,103.1,111.8,103.6,111.1,103.6z"/>
		<path class="st0" d="M118.4,103.6c-0.6,0-1.1-0.5-1.1-1.1V85.1c0-0.6,0.5-1.1,1.1-1.1s1.1,0.5,1.1,1.1v17.3
			C119.5,103.1,119,103.6,118.4,103.6z"/>
		<path class="st0" d="M69.5,103.6c-0.6,0-1.1-0.5-1.1-1.1V85.1c0-0.6,0.5-1.1,1.1-1.1s1.1,0.5,1.1,1.1v17.3
			C70.7,103.1,70.2,103.6,69.5,103.6z"/>
		<path class="st0" d="M58.9,24.6c-0.1,0-0.1,0-0.2,0c-0.6-0.1-1-0.7-0.9-1.3c0.5-2.9-0.3-6.3-0.8-8.1c-0.8-2.6-2.1-5-3.8-6.9
			c-3.4-3.8-8.3-6-13.4-6c-10,0-18.1,8.1-18.1,18.1c0,1,0,1.7,0.2,2.7c0.1,0.6-0.3,1.2-0.9,1.3c-0.6,0.1-1.2-0.3-1.3-0.9
			c-0.2-1.2-0.2-1.9-0.2-3.1C19.4,9.1,28.5,0,39.8,0C45.5,0,51,2.5,54.9,6.7c2,2.2,3.5,4.9,4.3,7.8c0.7,2.4,1.4,5.9,0.9,9.1
			C60,24.2,59.5,24.6,58.9,24.6z"/>
		<path class="st0" d="M74.6,23.9c-0.1,0-0.2,0-0.3,0c-0.6-0.2-1-0.8-0.8-1.4c2.3-8.3,11.3-14.6,20.8-14.6c5.8,0,11.3,2.5,15.1,6.7
			c2,2.2,3.5,4.9,4.3,7.8c0.2,0.6-0.2,1.2-0.8,1.4c-0.6,0.2-1.2-0.2-1.4-0.8c-0.8-2.6-2.1-5-3.8-6.9c-3.4-3.8-8.3-6-13.4-6
			c-8.5,0-16.5,5.6-18.6,12.9C75.6,23.6,75.1,23.9,74.6,23.9z"/>
	</g>
	<g>
		<g>
			<path class="st0" d="M171.1,29.2h-28.7c-0.3,0-0.5-0.2-0.5-0.5V9.5c0-0.3,0.2-0.5,0.5-0.5h28.7c0.3,0,0.5,0.2,0.5,0.5v19.2
				C171.6,29,171.4,29.2,171.1,29.2z M142.9,28.2h27.7V10h-27.7V28.2z"/>
			<path class="st0" d="M169.2,18.7c-0.3,0-0.5-0.2-0.5-0.5v-5.5h-23.4v5.5c0,0.3-0.2,0.5-0.5,0.5s-0.5-0.2-0.5-0.5v-6
				c0-0.3,0.2-0.5,0.5-0.5h24.4c0.3,0,0.5,0.2,0.5,0.5v6C169.7,18.5,169.5,18.7,169.2,18.7z"/>
			<path class="st0" d="M169.2,27h-24.4c-0.3,0-0.5-0.2-0.5-0.5v-6c0-0.3,0.2-0.5,0.5-0.5s0.5,0.2,0.5,0.5V26h23.4v-5.5
				c0-0.3,0.2-0.5,0.5-0.5s0.5,0.2,0.5,0.5v6C169.7,26.8,169.5,27,169.2,27z"/>
			<path class="st0" d="M157.1,34.2h-17.2c-0.2,0-0.3-0.1-0.4-0.2s-0.1-0.3,0-0.5l2.5-5.1c0.1-0.3,0.4-0.3,0.7-0.2
				c0.3,0.1,0.3,0.4,0.2,0.7l-2.2,4.3H157c0.3,0,0.5,0.2,0.5,0.5C157.6,34,157.3,34.2,157.1,34.2z"/>
			<path class="st0" d="M173.6,34.2h-17.2c-0.3,0-0.5-0.2-0.5-0.5c0-0.3,0.2-0.5,0.5-0.5h16.4l-2.2-4.3c-0.1-0.2,0-0.5,0.2-0.7
				c0.2-0.1,0.5,0,0.7,0.2l2.5,5.1c0.1,0.2,0.1,0.3,0,0.5C174,34.2,173.8,34.2,173.6,34.2z"/>
			<path class="st0" d="M152.6,34.2c-0.1,0-0.1,0-0.2,0c-0.3-0.1-0.4-0.4-0.3-0.6l1.1-3.3c0.1-0.2,0.3-0.3,0.5-0.3h3
				c0.3,0,0.5,0.2,0.5,0.5c0,0.3-0.2,0.5-0.5,0.5h-2.6l-1,3C153,34.1,152.8,34.2,152.6,34.2z"/>
			<path class="st0" d="M161.6,34.2c-0.2,0-0.4-0.1-0.5-0.3l-1-3h-4.4c-0.3,0-0.5-0.2-0.5-0.5c0-0.3,0.2-0.5,0.5-0.5h4.7
				c0.2,0,0.4,0.1,0.5,0.3l1.1,3.3c0.1,0.3-0.1,0.5-0.3,0.6C161.7,34.2,161.7,34.2,161.6,34.2z"/>
			<path class="st0" d="M157.1,36.4h-17.2c-0.3,0-0.5-0.2-0.5-0.5v-2.2c0-0.3,0.2-0.5,0.5-0.5c0.3,0,0.5,0.2,0.5,0.5v1.7h16.7
				c0.3,0,0.5,0.2,0.5,0.5C157.6,36.2,157.3,36.4,157.1,36.4z"/>
			<path class="st0" d="M173.6,36.4h-17.2c-0.3,0-0.5-0.2-0.5-0.5c0-0.3,0.2-0.5,0.5-0.5h16.7v-1.7c0-0.3,0.2-0.5,0.5-0.5
				c0.3,0,0.5,0.2,0.5,0.5v2.2C174.1,36.2,173.9,36.4,173.6,36.4z"/>
		</g>
		<g>
			<path class="st0" d="M171.1,61.2h-28.7c-0.3,0-0.5-0.2-0.5-0.5V41.6c0-0.3,0.2-0.5,0.5-0.5h28.7c0.3,0,0.5,0.2,0.5,0.5v19.2
				C171.6,61,171.4,61.2,171.1,61.2z M142.9,60.2h27.7V42.1h-27.7V60.2z"/>
			<path class="st0" d="M169.2,50.8c-0.3,0-0.5-0.2-0.5-0.5v-5.5h-23.4v5.5c0,0.3-0.2,0.5-0.5,0.5s-0.5-0.2-0.5-0.5v-6
				c0-0.3,0.2-0.5,0.5-0.5h24.4c0.3,0,0.5,0.2,0.5,0.5v6C169.7,50.5,169.5,50.8,169.2,50.8z"/>
			<path class="st0" d="M169.2,59h-24.4c-0.3,0-0.5-0.2-0.5-0.5v-6c0-0.3,0.2-0.5,0.5-0.5s0.5,0.2,0.5,0.5V58h23.4v-5.5
				c0-0.3,0.2-0.5,0.5-0.5s0.5,0.2,0.5,0.5v6C169.7,58.8,169.5,59,169.2,59z"/>
			<path class="st0" d="M157.1,66.3h-17.2c-0.2,0-0.3-0.1-0.4-0.2s-0.1-0.3,0-0.5l2.5-5.1c0.1-0.3,0.4-0.3,0.7-0.2
				c0.3,0.1,0.3,0.4,0.2,0.7l-2.2,4.3H157c0.3,0,0.5,0.2,0.5,0.5C157.6,66.1,157.3,66.3,157.1,66.3z"/>
			<path class="st0" d="M173.6,66.3h-17.2c-0.3,0-0.5-0.2-0.5-0.5c0-0.3,0.2-0.5,0.5-0.5h16.4l-2.2-4.3c-0.1-0.2,0-0.5,0.2-0.7
				c0.2-0.1,0.5,0,0.7,0.2l2.5,5.1c0.1,0.2,0.1,0.3,0,0.5C174,66.2,173.8,66.3,173.6,66.3z"/>
			<path class="st0" d="M152.6,66.3c-0.1,0-0.1,0-0.2,0c-0.3-0.1-0.4-0.4-0.3-0.6l1.1-3.3c0.1-0.2,0.3-0.3,0.5-0.3h3
				c0.3,0,0.5,0.2,0.5,0.5c0,0.3-0.2,0.5-0.5,0.5h-2.6l-1,3C153,66.2,152.8,66.3,152.6,66.3z"/>
			<path class="st0" d="M161.6,66.3c-0.2,0-0.4-0.1-0.5-0.3l-1-3h-4.4c-0.3,0-0.5-0.2-0.5-0.5c0-0.3,0.2-0.5,0.5-0.5h4.7
				c0.2,0,0.4,0.1,0.5,0.3l1.1,3.3c0.1,0.3-0.1,0.5-0.3,0.6C161.7,66.3,161.7,66.3,161.6,66.3z"/>
			<path class="st0" d="M157.1,68.5h-17.2c-0.3,0-0.5-0.2-0.5-0.5v-2.2c0-0.3,0.2-0.5,0.5-0.5c0.3,0,0.5,0.2,0.5,0.5v1.7h16.7
				c0.3,0,0.5,0.2,0.5,0.5S157.3,68.5,157.1,68.5z"/>
			<path class="st0" d="M173.6,68.5h-17.2c-0.3,0-0.5-0.2-0.5-0.5s0.2-0.5,0.5-0.5h16.7v-1.7c0-0.3,0.2-0.5,0.5-0.5
				c0.3,0,0.5,0.2,0.5,0.5V68C174.1,68.3,173.9,68.5,173.6,68.5z"/>
		</g>
		<g>
			<path class="st0" d="M169.1,94h-8c-1,0-1.8-0.8-1.8-1.8V74.7c0-1,0.8-1.8,1.8-1.8h8c1,0,1.8,0.8,1.8,1.8v17.5
				C170.9,93.2,170.1,94,169.1,94z M161.1,73.9c-0.4,0-0.8,0.3-0.8,0.8v17.5c0,0.4,0.3,0.8,0.8,0.8h8c0.4,0,0.8-0.3,0.8-0.8V74.7
				c0-0.4-0.3-0.8-0.8-0.8H161.1z"/>
			<path class="st0" d="M170.4,76.3h-10.6c-0.3,0-0.5-0.2-0.5-0.5c0-0.3,0.2-0.5,0.5-0.5h10.6c0.3,0,0.5,0.2,0.5,0.5
				S170.7,76.3,170.4,76.3z"/>
			<path class="st0" d="M170.4,90.7h-10.6c-0.3,0-0.5-0.2-0.5-0.5s0.2-0.5,0.5-0.5h10.6c0.3,0,0.5,0.2,0.5,0.5
				S170.7,90.7,170.4,90.7z"/>
			<path class="st0" d="M166.5,75.1h-2.9c-0.3,0-0.5-0.2-0.5-0.5c0-0.3,0.2-0.5,0.5-0.5h2.9c0.3,0,0.5,0.2,0.5,0.5
				C167,74.9,166.8,75.1,166.5,75.1z"/>
			<circle class="st0" cx="165.1" cy="91.8" r="0.9"/>
		</g>
		<g>
			<path class="st0" d="M153,94.5h-8c-1,0-1.8-0.8-1.8-1.8V75.3c0-1,0.8-1.8,1.8-1.8h8c1,0,1.8,0.8,1.8,1.8v17.5
				C154.8,93.8,154,94.5,153,94.5z M145,74.5c-0.4,0-0.8,0.3-0.8,0.8v17.5c0,0.4,0.3,0.8,0.8,0.8h8c0.4,0,0.8-0.3,0.8-0.8V75.3
				c0-0.4-0.3-0.8-0.8-0.8H145z"/>
			<path class="st0" d="M154.3,76.8h-10.6c-0.3,0-0.5-0.2-0.5-0.5c0-0.3,0.2-0.5,0.5-0.5h10.6c0.3,0,0.5,0.2,0.5,0.5
				C154.8,76.6,154.6,76.8,154.3,76.8z"/>
			<path class="st0" d="M154.3,91.3h-10.6c-0.3,0-0.5-0.2-0.5-0.5s0.2-0.5,0.5-0.5h10.6c0.3,0,0.5,0.2,0.5,0.5
				S154.6,91.3,154.3,91.3z"/>
			<path class="st0" d="M150.4,75.7h-2.9c-0.3,0-0.5-0.2-0.5-0.5c0-0.3,0.2-0.5,0.5-0.5h2.9c0.3,0,0.5,0.2,0.5,0.5
				C150.9,75.5,150.7,75.7,150.4,75.7z"/>
			<circle class="st0" cx="149" cy="92.4" r="0.9"/>
		</g>
	</g>
</g>
</svg>
