<?xml version="1.0" encoding="utf-8"?>
<!-- Generator: Adobe Illustrator 26.0.1, SVG Export Plug-In . SVG Version: 6.00 Build 0)  -->
<svg version="1.1" id="Слой_1" xmlns="http://www.w3.org/2000/svg" xmlns:xlink="http://www.w3.org/1999/xlink" x="0px" y="0px"
	 viewBox="0 0 184.3 104.3" style="enable-background:new 0 0 184.3 104.3;" xml:space="preserve">
<style type="text/css">
	.st0{fill:#010202;}
</style>
<g>
	<g>
		<g>
			<path class="st0" d="M69.3,54.5c-8.6,0-16.7-7.7-19.6-18.4c-0.3,0-0.5,0.1-0.7,0.1c-3.1,0-5.7-2.5-5.7-5.7s2.5-5.7,5.7-5.7
				c0.1-0.1,0.5-0.3,1-0.1c0.6,0.1,1.1,0.8,0.9,1.4c-0.1,0.6-0.6,0.9-1.2,0.9h0c-0.2,0.1-0.5,0.2-0.8,0.2c-1.8,0-3.3,1.5-3.3,3.3
				c0,2.2,2.2,3.9,4.4,3c0.3-0.1,0.7-0.1,1,0.1c0.3,0.2,0.5,0.5,0.6,0.8c2.3,10.3,9.7,17.8,17.6,17.8c7.9,0,15.3-7.5,17.6-17.8
				c0.1-0.3,0.3-0.6,0.6-0.8c0.3-0.2,0.7-0.2,1,0c0.4,0.2,0.8,0.2,1.2,0.2c1.8,0,3.3-1.5,3.3-3.3c0-1.8-1.5-3.3-3.3-3.3
				c-0.1,0-0.3,0-0.4,0c-0.5-0.1-1-0.4-1.1-0.9c-0.1-0.6,0.2-1.3,0.8-1.4c0.3-0.1,0.5-0.1,0.7,0c3.1,0,5.6,2.6,5.6,5.7
				c0,3.1-2.5,5.7-5.7,5.7c-0.3,0-0.5,0-0.8-0.1C86.1,46.8,78,54.5,69.3,54.5z"/>
			<path class="st0" d="M49,27.2c-0.6,0-1.1-0.4-1.2-1c-0.1-0.6,0.3-1.3,0.9-1.4l0.8-0.2c3.4-0.7,6.3-2.9,8-5.9
				c0.2-0.4,0.7-0.7,1.2-0.6l3.3,0.3c5.1,0.5,10.1-0.1,14.9-1.8l4.8-1.6c0.6-0.2,1.3,0.1,1.5,0.7c0.2,0.6-0.1,1.3-0.7,1.5l-4.8,1.6
				c-5.1,1.7-10.5,2.4-15.9,1.9l-2.5-0.2c-2.1,3.3-5.4,5.6-9.2,6.4l-0.8,0.2C49.1,27.2,49,27.2,49,27.2z"/>
			<path class="st0" d="M69.3,66.6c-0.2,0-0.3,0-0.5-0.1c-1.1-0.5-10.6-4.9-10.6-11v-5.7c0-0.7,0.5-1.2,1.2-1.2
				c0.7,0,1.2,0.5,1.2,1.2v5.7c0,3.6,5.9,7.2,8.7,8.6c2.8-1.4,8.7-5,8.7-8.6v-5.7c0-0.7,0.5-1.2,1.2-1.2s1.2,0.5,1.2,1.2v5.7
				c0,6.1-9.5,10.5-10.6,11C69.7,66.6,69.5,66.6,69.3,66.6z"/>
			<path class="st0" d="M95.4,61.8c-0.1,0-0.2,0-0.3,0c-2.4-0.7-7.1-2.2-10.8-3.4C82,57.6,80.1,57,79,56.6c-0.6-0.2-1-0.9-0.8-1.5
				c0.2-0.6,0.9-1,1.5-0.8c1.1,0.3,3,1,5.3,1.7c3.7,1.2,8.3,2.7,10.7,3.4c0.6,0.2,1,0.8,0.8,1.5C96.4,61.4,95.9,61.8,95.4,61.8z"/>
			<path class="st0" d="M59.7,70.2c-0.5,0-0.9-0.3-1.1-0.8c-0.2-0.6,0.1-1.3,0.7-1.5l9.6-3.6c0.6-0.2,1.3,0.1,1.5,0.7
				s-0.1,1.3-0.7,1.5l-9.6,3.6C60,70.2,59.8,70.2,59.7,70.2z"/>
			<path class="st0" d="M55.5,68.3c-0.1,0-0.2,0-0.3,0c-0.6-0.2-1-0.8-0.9-1.5l2.4-9.5c0.2-0.6,0.8-1,1.5-0.9c0.6,0.2,1,0.8,0.9,1.5
				l-2.4,9.5C56.6,67.9,56.1,68.3,55.5,68.3z"/>
			<path class="st0" d="M77.9,70c-0.1,0-0.3,0-0.4-0.1l-9-3.4c-0.6-0.2-0.9-0.9-0.7-1.5c0.2-0.6,0.9-0.9,1.5-0.7l9,3.4
				c0.6,0.2,0.9,0.9,0.7,1.5C78.8,69.7,78.4,70,77.9,70z"/>
			<path class="st0" d="M82.6,67.8c-0.5,0-1-0.4-1.2-0.9l-2.3-9c-0.2-0.6,0.2-1.3,0.9-1.5c0.6-0.2,1.3,0.2,1.5,0.9l2.3,9
				c0.2,0.6-0.2,1.3-0.9,1.5C82.8,67.8,82.7,67.8,82.6,67.8z"/>
			<path class="st0" d="M42.4,61.8c-0.5,0-1-0.4-1.2-0.9c-0.2-0.6,0.2-1.3,0.8-1.5c2.4-0.6,7-2.2,10.7-3.4c2.2-0.7,4.2-1.4,5.3-1.7
				c0.6-0.2,1.3,0.2,1.5,0.8c0.2,0.6-0.2,1.3-0.8,1.5c-1.1,0.3-3,1-5.2,1.7c-3.7,1.2-8.4,2.8-10.8,3.4
				C42.6,61.8,42.5,61.8,42.4,61.8z"/>
		</g>
		<path class="st0" d="M68.9,103.6c-0.1,0-0.3,0-0.4-0.1L37.4,92.4c-0.5-0.2-0.8-0.6-0.8-1.1v-7.1c0-0.7,0.5-1.2,1.2-1.2
			c0.7,0,1.2,0.5,1.2,1.2v6.3l30.4,10.9c0.6,0.2,0.9,0.9,0.7,1.5C69.9,103.3,69.4,103.6,68.9,103.6z"/>
		<path class="st0" d="M68.9,74.6c-0.2,0-0.3,0-0.5-0.1L39,60.6v8.2c0,0.7-0.5,1.2-1.2,1.2c-0.7,0-1.2-0.5-1.2-1.2v-10
			c0-0.4,0.2-0.8,0.6-1c0.3-0.2,0.8-0.3,1.2-0.1l31.1,14.6c0.6,0.3,0.9,1,0.6,1.6C69.8,74.3,69.4,74.6,68.9,74.6z"/>
		<path class="st0" d="M69.1,103.6c-0.2,0-0.5-0.1-0.7-0.2c-0.3-0.2-0.5-0.6-0.5-1v-29c0-0.5,0.3-0.9,0.7-1.1l30.2-14.6
			c0.4-0.2,0.8-0.2,1.2,0.1c0.3,0.2,0.6,0.6,0.6,1v10c0,0.7-0.5,1.2-1.2,1.2c-0.7,0-1.2-0.5-1.2-1.2v-8.1L70.3,74.1v26.6l27.8-10.3
			V83c0-0.7,0.5-1.2,1.2-1.2c0.7,0,1.2,0.5,1.2,1.2v8.2c0,0.5-0.3,1-0.8,1.1l-30.2,11.2C69.3,103.6,69.2,103.6,69.1,103.6z"/>
		<path class="st0" d="M100.5,84.2h-2.3c-3.3,0-5.9-3.5-5.9-7.9s2.6-7.9,5.9-7.9h2.3c2.4,0,4.4,2,4.4,4.4v7.1
			C104.9,82.3,102.9,84.2,100.5,84.2z M98.2,70.8c-1.9,0-3.5,2.5-3.5,5.5c0,3,1.6,5.5,3.5,5.5h2.3c1.1,0,2-0.9,2-2v-7.1
			c0-1.1-0.9-2-2-2L98.2,70.8L98.2,70.8z"/>
		<path class="st0" d="M38.6,84.2h-2.3c-2.4,0-4.4-2-4.4-4.4v-7.1c0-2.4,2-4.4,4.4-4.4h2.3c3.3,0,5.9,3.5,5.9,7.9
			C44.5,80.7,41.9,84.2,38.6,84.2z M36.3,70.8c-1.1,0-2,0.9-2,2v7.1c0,1.1,0.9,2,2,2h2.3c1.9,0,3.5-2.5,3.5-5.5c0-3-1.6-5.5-3.5-5.5
			L36.3,70.8L36.3,70.8z"/>
		<path class="st0" d="M89.2,27.1c-0.1,0-0.1,0-0.2,0c-0.6-0.1-1.1-0.7-1-1.4c0.2-1,0.3-2.1,0.3-3.1c0-10.4-8.5-18.9-18.9-18.9
			s-18.9,8.5-18.9,18.9c0,1.1,0.1,2.1,0.3,3.1c0.1,0.6-0.3,1.3-1,1.4c-0.6,0.1-1.3-0.3-1.4-1c-0.2-1.2-0.3-2.3-0.3-3.5
			c0-11.8,9.6-21.3,21.3-21.3s21.3,9.6,21.3,21.3c0,1.2-0.1,2.4-0.3,3.5C90.3,26.6,89.8,27.1,89.2,27.1z"/>
	</g>
	<g>
		<g>
			<path class="st0" d="M153.1,45.8H123c-0.3,0-0.5-0.2-0.5-0.5v-20c0-0.3,0.2-0.5,0.5-0.5h30.1c0.3,0,0.5,0.2,0.5,0.5v20.1
				C153.6,45.6,153.4,45.8,153.1,45.8z M123.5,44.8h29v-19h-29V44.8z"/>
			<path class="st0" d="M151.1,34.9c-0.3,0-0.5-0.2-0.5-0.5v-5.8h-24.5v5.8c0,0.3-0.2,0.5-0.5,0.5c-0.3,0-0.5-0.2-0.5-0.5v-6.3
				c0-0.3,0.2-0.5,0.5-0.5h25.5c0.3,0,0.5,0.2,0.5,0.5v6.3C151.6,34.7,151.4,34.9,151.1,34.9z"/>
			<path class="st0" d="M151.1,43.6h-25.5c-0.3,0-0.5-0.2-0.5-0.5v-6.3c0-0.3,0.2-0.5,0.5-0.5c0.3,0,0.5,0.2,0.5,0.5v5.8h24.5v-5.8
				c0-0.3,0.2-0.5,0.5-0.5s0.5,0.2,0.5,0.5V43C151.6,43.3,151.4,43.6,151.1,43.6z"/>
			<path class="st0" d="M138.3,51.2h-18c-0.2,0-0.3-0.1-0.4-0.3c-0.1-0.2-0.1-0.3,0-0.5l2.7-5.3c0.1-0.3,0.4-0.4,0.7-0.2
				c0.3,0.1,0.4,0.4,0.2,0.7l-2.3,4.6h17.2c0.3,0,0.5,0.2,0.5,0.5C138.8,50.9,138.6,51.2,138.3,51.2z"/>
			<path class="st0" d="M155.7,51.2h-18c-0.3,0-0.5-0.2-0.5-0.5c0-0.3,0.2-0.5,0.5-0.5h17.2l-2.3-4.6c-0.1-0.3,0-0.6,0.2-0.7
				c0.3-0.1,0.6,0,0.7,0.2l2.7,5.3c0.1,0.2,0.1,0.4,0,0.5C156,51.1,155.9,51.2,155.7,51.2z"/>
			<path class="st0" d="M133.7,51.2c-0.1,0-0.1,0-0.2,0c-0.3-0.1-0.4-0.4-0.3-0.7l1.2-3.4c0.1-0.2,0.3-0.3,0.5-0.3h3.1
				c0.3,0,0.5,0.2,0.5,0.5c0,0.3-0.2,0.5-0.5,0.5h-2.8l-1.1,3.1C134.1,51,133.9,51.2,133.7,51.2z"/>
			<path class="st0" d="M143.1,51.2c-0.2,0-0.4-0.1-0.5-0.3l-1.1-3.1h-4.6c-0.3,0-0.5-0.2-0.5-0.5c0-0.3,0.2-0.5,0.5-0.5h5
				c0.2,0,0.4,0.1,0.5,0.3l1.2,3.4c0.1,0.3-0.1,0.6-0.3,0.7C143.2,51.1,143.1,51.2,143.1,51.2z"/>
			<path class="st0" d="M138.3,53.4h-18c-0.3,0-0.5-0.2-0.5-0.5v-2.3c0-0.3,0.2-0.5,0.5-0.5c0.3,0,0.5,0.2,0.5,0.5v1.8h17.5
				c0.3,0,0.5,0.2,0.5,0.5C138.8,53.2,138.6,53.4,138.3,53.4z"/>
			<path class="st0" d="M155.7,53.4h-18c-0.3,0-0.5-0.2-0.5-0.5c0-0.3,0.2-0.5,0.5-0.5h17.5v-1.8c0-0.3,0.2-0.5,0.5-0.5
				c0.3,0,0.5,0.2,0.5,0.5v2.3C156.2,53.2,156,53.4,155.7,53.4z"/>
		</g>
		<g>
			<path class="st0" d="M142.2,80h-8.4c-1,0-1.8-0.8-1.8-1.8V59.9c0-1,0.8-1.8,1.8-1.8h8.4c1,0,1.8,0.8,1.8,1.8v18.3
				C144,79.2,143.2,80,142.2,80z M133.8,59.1c-0.4,0-0.8,0.4-0.8,0.8v18.3c0,0.4,0.4,0.8,0.8,0.8h8.4c0.4,0,0.8-0.4,0.8-0.8V59.9
				c0-0.4-0.4-0.8-0.8-0.8C142.2,59.1,133.8,59.1,133.8,59.1z"/>
			<path class="st0" d="M143.5,61.5h-11c-0.3,0-0.5-0.2-0.5-0.5c0-0.3,0.2-0.5,0.5-0.5h11c0.3,0,0.5,0.2,0.5,0.5
				S143.8,61.5,143.5,61.5z"/>
			<path class="st0" d="M143.5,76.6h-11c-0.3,0-0.5-0.2-0.5-0.5c0-0.3,0.2-0.5,0.5-0.5h11c0.3,0,0.5,0.2,0.5,0.5
				C144,76.4,143.8,76.6,143.5,76.6z"/>
			<path class="st0" d="M139.5,60.3h-3c-0.3,0-0.5-0.2-0.5-0.5c0-0.3,0.2-0.5,0.5-0.5h3c0.3,0,0.5,0.2,0.5,0.5
				C140,60.1,139.8,60.3,139.5,60.3z"/>
			<circle class="st0" cx="138" cy="77.8" r="0.9"/>
		</g>
	</g>
</g>
</svg>
