<?xml version="1.0" encoding="utf-8"?>
<!-- Generator: Adobe Illustrator 24.2.3, SVG Export Plug-In . SVG Version: 6.00 Build 0)  -->
<svg version="1.1" id="Слой_1" xmlns="http://www.w3.org/2000/svg" xmlns:xlink="http://www.w3.org/1999/xlink" x="0px" y="0px"
	 viewBox="0 0 184.3 102" style="enable-background:new 0 0 184.3 102;" xml:space="preserve">
<style type="text/css">
	.st0{fill:#010202;}
</style>
<g>
	<g>
		<path class="st0" d="M49.3,63.2c-8.3,0-16-7.3-18.7-17.6c-0.2,0-0.5,0.1-0.7,0.1c-3,0-5.4-2.4-5.4-5.4s2.4-5.4,5.4-5.4
			c0.1-0.1,0.5-0.2,1-0.1c0.6,0.1,1,0.7,0.9,1.4c-0.1,0.5-0.6,0.9-1.1,0.9h0c-0.2,0.1-0.4,0.2-0.7,0.2c-1.7,0-3.1,1.4-3.1,3.1
			c0,2.1,2.2,3.7,4.2,2.9c0.3-0.1,0.7-0.1,1,0.1c0.3,0.2,0.5,0.4,0.6,0.8c2.2,9.8,9.3,17,16.8,17s14.6-7.1,16.8-17
			c0.1-0.3,0.3-0.6,0.6-0.8c0.3-0.2,0.7-0.2,1,0c0.4,0.2,0.8,0.2,1.2,0.2c1.7,0,3.1-1.4,3.1-3.1c0-1.7-1.4-3.1-3.1-3.1
			c-0.1,0-0.2,0-0.3,0c-0.5-0.1-0.9-0.4-1.1-0.9c-0.1-0.6,0.2-1.2,0.8-1.3c0.3-0.1,0.5-0.1,0.7,0c3,0,5.3,2.4,5.3,5.4
			c0,3-2.4,5.4-5.4,5.4c-0.3,0-0.5,0-0.8-0.1C65.3,55.9,57.6,63.2,49.3,63.2z"/>
		<path class="st0" d="M29.9,37.2c-0.5,0-1-0.4-1.1-0.9c-0.1-0.6,0.3-1.2,0.9-1.3l0.8-0.2c3.3-0.7,6-2.7,7.6-5.7
			c0.2-0.4,0.7-0.6,1.1-0.6l3.1,0.3c4.8,0.4,9.6-0.1,14.2-1.7l4.6-1.6c0.6-0.2,1.3,0.1,1.4,0.7c0.2,0.6-0.1,1.3-0.7,1.4l-4.6,1.6
			c-4.9,1.7-10,2.3-15.2,1.8l-2.4-0.2c-2,3.2-5.1,5.4-8.8,6.1l-0.8,0.2C30,37.1,30,37.2,29.9,37.2z"/>
		<path class="st0" d="M49.3,74.8c-5.9,0-10.6-4.8-10.6-10.6v-5.4c0-0.6,0.5-1.1,1.1-1.1s1.1,0.5,1.1,1.1v5.4c0,4.6,3.7,8.3,8.3,8.3
			s8.3-3.7,8.3-8.3v-5.4c0-0.6,0.5-1.1,1.1-1.1s1.1,0.5,1.1,1.1v5.4C60,70,55.2,74.8,49.3,74.8z"/>
		<path class="st0" d="M49.3,82.3c-9,0-16.9-6.8-18.2-15.7c-0.1-0.6,0.3-1.2,1-1.3c0.6-0.1,1.2,0.3,1.3,1c1.1,7.8,8,13.7,15.9,13.7
			c8.1,0,14.8-5.7,15.8-13.5c0.1-0.6,0.7-1.1,1.3-1c0.6,0.1,1.1,0.7,1,1.3C66.3,75.8,58.7,82.3,49.3,82.3z"/>
		<path class="st0" d="M32.7,94.8c-0.6,0-1.1-0.5-1.1-1.1V82.8c0-0.6,0.5-1.1,1.1-1.1s1.1,0.5,1.1,1.1v10.9
			C33.8,94.3,33.3,94.8,32.7,94.8z"/>
		<path class="st0" d="M21,94.8c-0.6,0-1.1-0.5-1.1-1.1l-0.2-16.3c0-2-0.1-4.7,1.4-6.8c1.9-2.7,5.6-3.8,8.6-4.6
			c0.6-0.2,1.1-0.3,1.6-0.5l8.2-2.5c0.6-0.2,1.2,0.2,1.4,0.8c0.2,0.6-0.2,1.2-0.8,1.4L32,67.7c-0.5,0.2-1.1,0.3-1.7,0.5
			c-2.8,0.8-5.9,1.6-7.3,3.7c-1,1.4-1,3.3-1,5.5l0.2,16.3C22.2,94.3,21.7,94.8,21,94.8C21,94.8,21,94.8,21,94.8z"/>
		<path class="st0" d="M72.1,69.6c-0.2,0-0.3,0-0.4-0.1c-1.3-0.5-2.7-0.9-4-1.3c-0.6-0.2-1.2-0.3-1.7-0.5c-1.4-0.4-2.6-0.8-3.8-1.3
			c-1.2-0.4-2.3-0.8-3.7-1.2c-0.6-0.2-0.9-0.8-0.8-1.4c0.2-0.6,0.8-0.9,1.4-0.8c1.4,0.4,2.6,0.8,3.8,1.3c1.2,0.4,2.3,0.8,3.7,1.2
			c0.5,0.2,1.1,0.3,1.6,0.5c1.3,0.4,2.9,0.8,4.3,1.4c0.6,0.2,0.9,0.9,0.6,1.5C73,69.3,72.6,69.6,72.1,69.6z"/>
		<path class="st0" d="M31.6,45.9c-0.6,0-1.1-0.4-1.1-1L29.5,36c-0.1-0.6,0.4-1.2,1-1.3c0.6-0.1,1.2,0.4,1.3,1l0.9,8.9
			c0.1,0.6-0.4,1.2-1,1.3C31.6,45.9,31.6,45.9,31.6,45.9z"/>
		<path class="st0" d="M66.9,46.5c-0.1,0-0.1,0-0.2,0c-0.6-0.1-1.1-0.7-1-1.3l1.4-10c0.1-0.6,0.7-1.1,1.3-1c0.6,0.1,1.1,0.7,1,1.3
			l-1.4,10C68,46.1,67.5,46.5,66.9,46.5z"/>
		<path class="st0" d="M71.7,37.8C71.7,37.8,71.6,37.8,71.7,37.8c-0.7,0-1.2-0.6-1.1-1.2l0.4-15c0-6.7-5.2-12.1-11.5-12.1H39.1
			c-6.3,0-11.5,5.5-11.5,12.1l0.8,14.9c0,0.6-0.5,1.2-1.1,1.2c-0.6,0-1.2-0.4-1.2-1.1l-0.8-15c0-8,6.2-14.5,13.8-14.5h20.3
			c7.6,0,13.8,6.5,13.8,14.4l-0.4,15.1C72.8,37.3,72.3,37.8,71.7,37.8z"/>
		<path class="st0" d="M106.7,91.1h-8.8c-0.3,0-0.5-0.1-0.7-0.2l-6.5-5h-8.4l-6.5,5c-0.2,0.1-0.4,0.2-0.7,0.2h-8.8
			c-0.6,0-1.1-0.5-1.1-1.1c-0.1-1.3-0.6-12.6,0.4-15.7c0.3-1.1,0.8-2,1.3-2.8c1.7-2.5,4.6-4.2,7.8-4.6c0.1-0.1,0.3-0.1,0.4-0.1h22.8
			c0.2,0,0.3,0,0.4,0.1c3.1,0.4,6,2.1,7.7,4.6c0.6,0.8,1,1.8,1.3,2.8c1,3.1,0.5,14.4,0.4,15.7C107.8,90.6,107.3,91.1,106.7,91.1z
			 M98.3,88.8h7.3c0.2-3.9,0.3-11.7-0.3-13.8l0,0c-0.3-0.8-0.6-1.6-1.1-2.2c-1.4-2-3.8-3.4-6.4-3.6c-0.1,0-0.2,0-0.2,0H75.4
			c-0.1,0-0.1,0-0.2,0c-2.6,0.2-5,1.6-6.4,3.6c-0.4,0.7-0.8,1.4-1.1,2.2c-0.7,2.1-0.5,9.9-0.3,13.8h7.3l6.2-4.8
			c0.2-0.3,0.5-0.4,0.9-0.4h9.4c0.4,0,0.7,0.2,0.9,0.5L98.3,88.8z"/>
		<circle class="st0" cx="89.4" cy="75.4" r="1.6"/>
		<g>
			<rect x="95" y="73.8" class="st0" width="3" height="3"/>
			<rect x="98.1" y="76.8" class="st0" width="3" height="3"/>
			<rect x="95" y="79.8" class="st0" width="3" height="3"/>
			<rect x="92" y="76.8" class="st0" width="3" height="3"/>
		</g>
		<circle class="st0" cx="83.7" cy="75.4" r="1.6"/>
		<g>
			<rect x="74.2" y="73.8" class="st0" width="3" height="3"/>
			<rect x="77.2" y="76.8" class="st0" width="3" height="3"/>
			<rect x="74.2" y="79.8" class="st0" width="3" height="3"/>
			<rect x="71.1" y="76.8" class="st0" width="3" height="3"/>
		</g>
		<path class="st0" d="M68.5,36.3c-0.1,0-0.1,0-0.2,0c-0.6-0.1-1-0.7-0.9-1.3c0.5-2.9-0.3-6.3-0.8-8.1c-0.8-2.6-2.1-5-3.8-6.9
			c-3.4-3.8-8.3-6-13.4-6c-10,0-18.1,8.1-18.1,18.1c0,1,0,1.7,0.2,2.7c0.1,0.6-0.3,1.2-0.9,1.3c-0.6,0.1-1.2-0.3-1.3-0.9
			c-0.2-1.1-0.2-1.9-0.2-3c0-11.2,9.1-20.4,20.4-20.4c5.8,0,11.3,2.5,15.1,6.7c2,2.2,3.5,4.9,4.3,7.8c0.6,1.9,1.4,5.7,0.9,9.1
			C69.5,35.9,69,36.3,68.5,36.3z"/>
	</g>
	<g>
		<g>
			<path class="st0" d="M149.5,58.5h-27.2c-0.3,0-0.5-0.2-0.5-0.5V36.6c0-0.3,0.2-0.5,0.5-0.5h27.2c0.3,0,0.5,0.2,0.5,0.5V58
				C150,58.3,149.7,58.5,149.5,58.5z M122.8,57.5H149V37.1h-26.2V57.5z"/>
			<path class="st0" d="M149.2,54.4h-26.7c-0.3,0-0.5-0.2-0.5-0.5c0-0.3,0.2-0.5,0.5-0.5h26.7c0.3,0,0.5,0.2,0.5,0.5
				S149.5,54.4,149.2,54.4z"/>
			<path class="st0" d="M139.6,60.6h-7.3c-0.3,0-0.5-0.2-0.5-0.5V58c0-0.3,0.2-0.5,0.5-0.5h7.3c0.3,0,0.5,0.2,0.5,0.5v2.1
				C140,60.4,139.8,60.6,139.6,60.6z M132.7,59.7h6.3v-1.1h-6.3V59.7z"/>
			<path class="st0" d="M142.9,63.6h-14c-0.3,0-0.5-0.2-0.5-0.5v-3c0-0.3,0.2-0.5,0.5-0.5h14c0.3,0,0.5,0.2,0.5,0.5v3
				C143.4,63.4,143.2,63.6,142.9,63.6z M129.4,62.6h13v-2h-13V62.6z"/>
			<circle class="st0" cx="135.9" cy="56" r="1.1"/>
			<g>
				<path class="st0" d="M164.1,63.6H152c-0.3,0-0.5-0.2-0.5-0.5V36.6c0-0.3,0.2-0.5,0.5-0.5h12.1c0.3,0,0.5,0.2,0.5,0.5v26.5
					C164.6,63.4,164.4,63.6,164.1,63.6z M152.5,62.6h11.1V37.1h-11.1V62.6z"/>
				<path class="st0" d="M163.9,40h-11.6c-0.3,0-0.5-0.2-0.5-0.5c0-0.3,0.2-0.5,0.5-0.5h11.6c0.3,0,0.5,0.2,0.5,0.5
					C164.4,39.7,164.1,40,163.9,40z"/>
				<path class="st0" d="M163.9,43h-11.6c-0.3,0-0.5-0.2-0.5-0.5s0.2-0.5,0.5-0.5h11.6c0.3,0,0.5,0.2,0.5,0.5S164.1,43,163.9,43z"/>
				<path class="st0" d="M158,50.3c-1.2,0-2.2-1-2.2-2.2s1-2.2,2.2-2.2s2.2,1,2.2,2.2S159.3,50.3,158,50.3z M158,46.9
					c-0.7,0-1.2,0.6-1.2,1.2s0.6,1.2,1.2,1.2s1.2-0.6,1.2-1.2S158.7,46.9,158,46.9z"/>
				<path class="st0" d="M161.1,55.4H155c-0.3,0-0.5-0.2-0.5-0.5s0.2-0.5,0.5-0.5h6.1c0.3,0,0.5,0.2,0.5,0.5S161.4,55.4,161.1,55.4z
					"/>
				<path class="st0" d="M161.1,60.6H155c-0.3,0-0.5-0.2-0.5-0.5v-3.4c0-0.3,0.2-0.5,0.5-0.5h6.1c0.3,0,0.5,0.2,0.5,0.5v3.4
					C161.6,60.4,161.4,60.6,161.1,60.6z M155.5,59.7h5.1v-2.4h-5.1V59.7z"/>
			</g>
		</g>
		<g>
			<path class="st0" d="M152,94.7h-17.9c-0.3,0-0.5-0.2-0.5-0.5V71c0-0.3,0.2-0.5,0.5-0.5H152c0.3,0,0.5,0.2,0.5,0.5v23.1
				C152.5,94.5,152.3,94.7,152,94.7z M134.6,93.7h16.9V71.5h-16.9V93.7z"/>
			<path class="st0" d="M152,79.5h-17.9c-0.3,0-0.5-0.2-0.5-0.5s0.2-0.5,0.5-0.5H152c0.3,0,0.5,0.2,0.5,0.5S152.3,79.5,152,79.5z"/>
			<path class="st0" d="M152,87.1h-17.9c-0.3,0-0.5-0.2-0.5-0.5s0.2-0.5,0.5-0.5H152c0.3,0,0.5,0.2,0.5,0.5S152.3,87.1,152,87.1z"/>
			<path class="st0" d="M150.1,77.5H136c-0.3,0-0.5-0.2-0.5-0.5v-3.7c0-0.3,0.2-0.5,0.5-0.5h14.1c0.3,0,0.5,0.2,0.5,0.5V77
				C150.6,77.3,150.4,77.5,150.1,77.5z M136.5,76.6h13.1v-2.7h-13.1V76.6z"/>
			<path class="st0" d="M150.1,85.2H136c-0.3,0-0.5-0.2-0.5-0.5V81c0-0.3,0.2-0.5,0.5-0.5h14.1c0.3,0,0.5,0.2,0.5,0.5v3.7
				C150.6,85,150.4,85.2,150.1,85.2z M136.5,84.2h13.1v-2.7h-13.1V84.2z"/>
			<path class="st0" d="M150.1,92.8H136c-0.3,0-0.5-0.2-0.5-0.5v-3.7c0-0.3,0.2-0.5,0.5-0.5h14.1c0.3,0,0.5,0.2,0.5,0.5v3.7
				C150.6,92.6,150.4,92.8,150.1,92.8z M136.5,91.8h13.1v-2.7h-13.1V91.8z"/>
			<g>
				<rect x="137.8" y="74.5" class="st0" width="1.4" height="1.4"/>
				<rect x="140.8" y="74.5" class="st0" width="1.4" height="1.4"/>
				<rect x="143.9" y="74.5" class="st0" width="1.4" height="1.4"/>
				<rect x="146.9" y="74.5" class="st0" width="1.4" height="1.4"/>
			</g>
			<g>
				<rect x="137.8" y="82.1" class="st0" width="1.4" height="1.4"/>
				<rect x="140.8" y="82.1" class="st0" width="1.4" height="1.4"/>
				<rect x="143.9" y="82.1" class="st0" width="1.4" height="1.4"/>
				<rect x="146.9" y="82.1" class="st0" width="1.4" height="1.4"/>
			</g>
			<g>
				<rect x="137.8" y="89.8" class="st0" width="1.4" height="1.4"/>
				<rect x="140.8" y="89.8" class="st0" width="1.4" height="1.4"/>
				<rect x="143.9" y="89.8" class="st0" width="1.4" height="1.4"/>
				<rect x="146.9" y="89.8" class="st0" width="1.4" height="1.4"/>
			</g>
			<path class="st0" d="M134.1,71.5c-0.1,0-0.2,0-0.3-0.1c-0.2-0.1-0.3-0.4-0.2-0.7l1.9-3.3c0.1-0.2,0.3-0.3,0.4-0.3h7.1
				c0.3,0,0.5,0.2,0.5,0.5s-0.2,0.5-0.5,0.5h-6.8l-1.8,3.1C134.4,71.5,134.2,71.5,134.1,71.5z"/>
			<path class="st0" d="M152,71.5c-0.2,0-0.3-0.1-0.4-0.3l-1.8-3.1H143c-0.3,0-0.5-0.2-0.5-0.5s0.2-0.5,0.5-0.5h7.1
				c0.2,0,0.3,0.1,0.4,0.3l1.9,3.3c0.1,0.2,0.1,0.5-0.2,0.7C152.2,71.5,152.1,71.5,152,71.5z"/>
			<path class="st0" d="M144.7,97.8h-3.1c-0.3,0-0.5-0.2-0.5-0.5v-3.1c0-0.3,0.2-0.5,0.5-0.5h3.1c0.3,0,0.5,0.2,0.5,0.5v3.1
				C145.2,97.5,145,97.8,144.7,97.8z M142.1,96.8h2.1v-2.1h-2.1V96.8z"/>
			<path class="st0" d="M159.4,101h-32.3c-0.3,0-0.5-0.2-0.5-0.5v-3.2c0-0.3,0.2-0.5,0.5-0.5h32.3c0.3,0,0.5,0.2,0.5,0.5v3.2
				C159.8,100.8,159.6,101,159.4,101z M127.6,100h31.3v-2.2h-31.3V100z"/>
			<path class="st0" d="M140.3,100.6c-0.3,0-0.5-0.2-0.5-0.5v-2.6c0-0.3,0.2-0.5,0.5-0.5c0.3,0,0.5,0.2,0.5,0.5v2.6
				C140.8,100.4,140.5,100.6,140.3,100.6z"/>
			<path class="st0" d="M146.2,100.6c-0.3,0-0.5-0.2-0.5-0.5v-2.6c0-0.3,0.2-0.5,0.5-0.5c0.3,0,0.5,0.2,0.5,0.5v2.6
				C146.7,100.4,146.5,100.6,146.2,100.6z"/>
		</g>
		<g>
			<path class="st0" d="M158.4,19H148c-0.3,0-0.5-0.2-0.5-0.5s0.2-0.5,0.5-0.5h9.8v-7.9h-29.4V18h2.2c0.3,0,0.5,0.2,0.5,0.5
				s-0.2,0.5-0.5,0.5H128c-0.3,0-0.5-0.2-0.5-0.5V9.6c0-0.3,0.2-0.5,0.5-0.5h30.4c0.3,0,0.5,0.2,0.5,0.5v8.9
				C158.9,18.8,158.6,19,158.4,19z"/>
			<path class="st0" d="M128,10.1c-0.1,0-0.2,0-0.3-0.1c-0.2-0.2-0.3-0.5-0.1-0.7l5.2-8c0.1-0.1,0.3-0.2,0.4-0.2h10
				c0.3,0,0.5,0.2,0.5,0.5c0,0.3-0.2,0.5-0.5,0.5h-9.7l-5.1,7.8C128.3,10,128.1,10.1,128,10.1z"/>
			<path class="st0" d="M158.4,10.1c-0.2,0-0.3-0.1-0.4-0.2l-5.1-7.8h-9.7c-0.3,0-0.5-0.2-0.5-0.5c0-0.3,0.2-0.5,0.5-0.5h10
				c0.2,0,0.3,0.1,0.4,0.2l5.2,8c0.1,0.2,0.1,0.5-0.1,0.7C158.6,10.1,158.5,10.1,158.4,10.1z"/>
			<path class="st0" d="M154.7,15.6c-1.2,0-2.2-1-2.2-2.2c0-1.2,1-2.2,2.2-2.2s2.2,1,2.2,2.2S155.9,15.6,154.7,15.6z M154.7,12.2
				c-0.7,0-1.2,0.5-1.2,1.2c0,0.7,0.6,1.2,1.2,1.2s1.2-0.5,1.2-1.2S155.4,12.2,154.7,12.2z"/>
			<path class="st0" d="M144.6,13.9h-14.1c-0.3,0-0.5-0.2-0.5-0.5s0.2-0.5,0.5-0.5h14.1c0.3,0,0.5,0.2,0.5,0.5
				S144.9,13.9,144.6,13.9z"/>
			<path class="st0" d="M130.9,31.9c-0.2,0-0.4,0-0.6-0.1l-0.9-0.3c-0.6-0.2-1-0.6-1.3-1.1s-0.3-1.1-0.2-1.7l1.8-8.1
				c0.1-0.3,0.1-0.6,0.2-0.9c0.4-2.2,0.9-4.9,3.6-5.5c0.2-0.1,0.5-0.1,0.8-0.1c1.3-0.1,2.1,0.5,3.1,1.1c0.1,0.1,0.5,0.1,0.8,0.1
				c0.1,0,0.3,0,0.4,0h2.1c0.1,0,0.2,0,0.4,0c0.2,0,0.4,0,0.5,0c0,0,0.1-0.1,0.2-0.2c0.1-0.1,0.1-0.1,0.2-0.2c0.9-0.7,2.2-1,3.3-0.8
				c2.5,0.5,3.3,3,3.6,4.4c0.3,1.4,0.5,2.7,0.8,4.1l1.3,6.1c0.1,0.4,0.1,0.8,0,1.2c-0.2,0.8-0.9,1.4-2,1.8c-1,0.3-1.8,0.2-2.3-0.3
				c-0.4-0.3-0.6-0.8-0.8-1.1l-1.9-4l-8.9,0.1l-1.9,4c-0.1,0.5-0.5,1-1.1,1.2C131.6,31.8,131.2,31.9,130.9,31.9z M134.4,15.1
				c-0.1,0-0.1,0-0.2,0c-0.2,0-0.4,0-0.6,0.1c-2,0.5-2.5,2.7-2.9,4.8c-0.1,0.3-0.1,0.7-0.2,0.9l-1.8,8.1c-0.1,0.3-0.1,0.7,0.1,1
				c0.1,0.3,0.4,0.5,0.7,0.6l0.9,0.3c0.3,0.1,0.6,0.1,0.9-0.1c0.3-0.2,0.5-0.4,0.6-0.7l2.1-4.3c0.1-0.2,0.3-0.3,0.4-0.3l9.5-0.1
				c0.2,0.1,0.4,0.1,0.4,0.3l2.1,4.3c0.1,0.3,0.3,0.6,0.5,0.8c0.4,0.3,1,0.2,1.4,0.1c0.4-0.1,1.2-0.4,1.3-1c0.1-0.2,0-0.5,0-0.7l0,0
				l-1.3-6.1c-0.3-1.4-0.6-2.8-0.8-4.1c-0.2-1.2-0.9-3.3-2.8-3.7c-0.9-0.2-1.8,0-2.5,0.6c-0.1,0-0.1,0.1-0.1,0.1
				c-0.1,0.1-0.3,0.3-0.5,0.4c-0.3,0.1-0.6,0.1-0.9,0c-0.1,0-0.2,0-0.3,0h-2.1c-0.1,0-0.2,0-0.3,0c-0.4,0-1,0.1-1.4-0.3
				C135.9,15.5,135.3,15.1,134.4,15.1z"/>
			<path class="st0" d="M144.3,23.4c-1.2,0-2.2-1-2.2-2.2s1-2.2,2.2-2.2s2.2,1,2.2,2.2S145.5,23.4,144.3,23.4z M144.3,19.9
				c-0.7,0-1.2,0.6-1.2,1.2s0.6,1.2,1.2,1.2s1.2-0.6,1.2-1.2S145,19.9,144.3,19.9z"/>
			<rect x="133.9" y="19" class="st0" width="1.4" height="3.9"/>
			<rect x="132.7" y="20.3" class="st0" width="3.9" height="1.4"/>
		</g>
	</g>
</g>
</svg>
