<svg width="81" height="61" viewBox="0 0 81 61" fill="none" xmlns="http://www.w3.org/2000/svg">
<path d="M50.6871 32.7277C51.1251 35.5686 53.3152 39.1853 56.9195 40.4493C58.3962 40.9749 60.0231 40.9749 61.4873 40.4368C65.0415 39.1603 67.2942 35.556 67.7322 32.7152C68.2077 32.6776 68.8335 32.0019 69.5093 29.6115C70.4354 26.3452 69.4467 25.8571 68.6207 25.9322C68.7834 25.4817 68.8961 25.0311 68.9837 24.5931C70.3978 16.1332 66.2304 15.8328 66.2304 15.8328C66.2304 15.8328 65.5421 14.5063 63.715 13.5051C62.501 12.7792 60.799 12.2161 58.5589 12.4163C57.833 12.4538 57.1447 12.5915 56.5065 12.8042C55.6805 13.0796 54.9296 13.4926 54.2413 13.9681C53.4028 14.4937 52.6144 15.1445 51.9136 15.8954C50.8123 17.0217 49.8236 18.4859 49.3981 20.3006C49.0352 21.6647 49.1228 23.0788 49.4231 24.6056C49.4982 25.0562 49.6234 25.4942 49.7861 25.9447C48.9476 25.8696 47.9714 26.3452 48.8975 29.6241C49.5858 32.0144 50.2116 32.6902 50.6871 32.7277Z" stroke="white" stroke-width="2"/>
<path d="M45.935 40.614C39.7586 38.2493 36.0714 35.8378 36.0714 35.8378L31.3107 50.8821L30.6573 52.9202L28.5259 46.8838C33.4266 40.054 28.1525 39.7273 27.2502 39.7273H27.2346H27.219H27.2035H27.1879C26.27 39.7273 21.0115 40.054 25.9122 46.8838L23.7808 52.9202L23.1274 50.8821L18.3667 35.8378C18.3667 35.8378 14.664 38.2493 8.50312 40.614C1.7044 43.0877 2.12446 48.6729 2 59.1588H27.2035H27.2657H52.4692C52.3136 48.6729 52.7337 43.0722 45.935 40.614Z" stroke="white" stroke-width="2"/>
<path fill-rule="evenodd" clip-rule="evenodd" d="M38.0109 59.1588L37.999 60.1588H39.011H59.2848H59.3349H79.6088H80.6237L80.6087 59.144C80.6004 58.5885 80.5943 58.0462 80.5884 57.5174C80.5503 54.1111 80.5183 51.2616 79.954 49.033C79.6185 47.7081 79.0836 46.5381 78.2111 45.556C77.3396 44.575 76.1848 43.8416 74.7016 43.3041C72.2648 42.3707 70.3214 41.4292 68.9909 40.7235C68.325 40.3703 67.8132 40.0764 67.4705 39.8726C67.2992 39.7707 67.1702 39.6913 67.0854 39.6383C67.043 39.6118 67.0117 39.5919 66.9916 39.5791L66.97 39.5652L66.9657 39.5624L66.9656 39.5623L66.9654 39.5622L66.9652 39.5621L66.9651 39.562L65.8625 38.8409L65.4648 40.0975L62.0148 51.0001L61.4623 49.4354C62.2988 48.1971 62.7729 47.1485 62.9372 46.2467C63.1286 45.1965 62.898 44.3267 62.3385 43.6874C61.8191 43.0941 61.1197 42.8193 60.5878 42.6852C60.0424 42.5477 59.5524 42.5279 59.3224 42.5279H59.3099H59.2973H59.2848H59.2723C59.0397 42.5279 58.5481 42.5476 58.0019 42.6851C57.4692 42.8192 56.7696 43.0942 56.2508 43.6883C55.6918 44.3285 55.4634 45.1985 55.656 46.2479C55.8213 47.1491 56.2959 48.1973 57.1324 49.4354L56.5799 51.0001L53.1299 40.0975L52.733 38.8434L51.6312 39.5609L51.6311 39.561L51.631 39.5611L51.6307 39.5613L51.6306 39.5613L51.6262 39.5642L51.6044 39.5781C51.5842 39.591 51.5527 39.6109 51.5101 39.6375C51.4249 39.6905 51.2954 39.77 51.1234 39.872C50.7796 40.076 50.2664 40.3699 49.5996 40.7233C49.1253 40.9745 48.5737 41.2556 47.9503 41.5555C48.6229 41.9601 49.1927 42.4188 49.6757 42.935C49.9844 42.7794 50.2714 42.6307 50.5359 42.4905C50.9474 42.2725 51.3045 42.0752 51.6041 41.9051L55.0526 52.8027L55.0537 52.8063L55.5793 54.4457L56.4859 57.2733L57.4745 54.4733L59.1891 49.6176L59.2973 49.3109L59.4056 49.6176L61.1202 54.4733L62.1088 57.2733L63.0154 54.4457L63.541 52.8063L63.5421 52.8027L66.9901 41.9066C67.2885 42.0763 67.6441 42.273 68.0537 42.4903C69.4466 43.2292 71.4674 44.2074 73.995 45.1751L74.0038 45.1785L74.0126 45.1817C75.2595 45.6325 76.1104 46.2028 76.7159 46.8843C77.3221 47.5666 77.7359 48.4209 78.0152 49.5239C78.5163 51.5027 78.5467 54.0729 78.5877 57.5275V57.5276L78.5952 58.1588H59.3349H59.2848H52.4559C52.46 58.4871 52.4644 58.8204 52.4694 59.1588H38.0109ZM59.5361 48.7017L59.2973 49.0344L59.0586 48.7017C58.1127 47.3834 57.7314 46.4771 57.6231 45.887C57.5231 45.3419 57.6592 45.1161 57.7573 45.0038C57.8955 44.8455 58.1454 44.7114 58.4903 44.6245C58.8217 44.5411 59.1357 44.5279 59.2723 44.5279H59.2848H59.2973H59.3099H59.3224C59.4552 44.5279 59.7678 44.541 60.0988 44.6245C60.4433 44.7113 60.6942 44.8456 60.8335 45.0047C60.9325 45.1178 61.0688 45.3439 60.9696 45.8881C60.8622 46.4777 60.4819 47.3836 59.5361 48.7017Z" fill="white"/>
<path d="M16.5153 26.301C17.0598 29.8326 19.7824 34.3287 24.2631 35.9001C26.0989 36.5535 28.1214 36.5535 29.9416 35.8845C34.36 34.2976 37.1604 29.817 37.7049 26.2854C38.2961 26.2387 39.074 25.3986 39.9141 22.4271C41.0654 18.3665 39.8363 17.7598 38.8095 17.8531C39.0118 17.293 39.1518 16.733 39.2607 16.1884C41.0187 5.67144 35.838 5.29805 35.838 5.29805C35.838 5.29805 34.9823 3.64894 32.7109 2.40432C31.2018 1.50197 29.086 0.801875 26.3011 1.0508C25.3988 1.09747 24.5431 1.26861 23.7497 1.53309C22.7229 1.87536 21.7894 2.38876 20.9337 2.97995C19.8914 3.63338 18.9112 4.44238 18.04 5.37584C16.6709 6.77604 15.4418 8.59629 14.9129 10.8522C14.4617 12.5479 14.5706 14.306 14.944 16.204C15.0373 16.7641 15.1929 17.3086 15.3952 17.8687C14.3528 17.7753 13.1393 18.3665 14.2906 22.4426C15.1462 25.4142 15.9241 26.2543 16.5153 26.301Z" stroke="white" stroke-width="2"/>
</svg>
