<svg width="58" height="52" viewBox="0 0 58 52" fill="none" xmlns="http://www.w3.org/2000/svg">
<path fill-rule="evenodd" clip-rule="evenodd" d="M38 19.268C39.3333 20.0378 39.3333 21.9623 38 22.7321L26 29.6603C24.6667 30.4301 23 29.4678 23 27.9282V14.0718C23 12.5322 24.6667 11.5699 26 12.3397L38 19.268ZM26 15.8038L35 21L26 26.1962V15.8038Z" fill="#272727"/>
<path fill-rule="evenodd" clip-rule="evenodd" d="M1.44482 0H56.1552C56.9619 0 57.6 0.650167 57.6 1.44482V40.19C57.6 40.9846 56.9498 41.6348 56.1552 41.6348H30.2448V48.8228H40.503C41.2977 48.8228 41.9478 49.4729 41.9478 50.2676C41.9478 51.0622 41.2977 51.7124 40.503 51.7124H17.097C16.3023 51.7124 15.6522 51.0622 15.6522 50.2676C15.6522 49.4729 16.3023 48.8228 17.097 48.8228H27.3552V41.6348H1.44482C0.650167 41.6348 0 40.9846 0 40.19V1.44482C0 0.650167 0.650167 0 1.44482 0ZM2.88963 38.7452H54.7224V2.88963H2.88963V38.7452Z" fill="#272727"/>
</svg>
