<?xml version="1.0" encoding="utf-8"?>
<!-- Generator: Adobe Illustrator 24.2.3, SVG Export Plug-In . SVG Version: 6.00 Build 0)  -->
<svg version="1.1" id="Layer_1" xmlns="http://www.w3.org/2000/svg" xmlns:xlink="http://www.w3.org/1999/xlink" x="0px" y="0px"
	 viewBox="0 0 70.9 70.9" style="enable-background:new 0 0 70.9 70.9;" xml:space="preserve">
<style type="text/css">
	.st0{fill:none;stroke:#FEFDFF;stroke-width:1.6;stroke-linecap:round;stroke-linejoin:round;}
</style>
<g>
	<path class="st0" d="M17.6,21.4h36.2c1.4,0,2.7,1.2,2.7,2.7v22.5c0,1.4-1.2,2.7-2.7,2.7H17.6c-1.4,0-2.7-1.2-2.7-2.7V24.1
		C15,22.6,16.1,21.4,17.6,21.4z"/>
	<line class="st0" x1="28.8" y1="54.6" x2="42.6" y2="54.6"/>
	<line class="st0" x1="35.7" y1="21.4" x2="35.7" y2="49.2"/>
	<line class="st0" x1="56.5" y1="35.3" x2="15.1" y2="35.3"/>
	<path class="st0" d="M41.8,35.3c0-2.5,1.8-4.5,4.1-4.5s4.1,2,4.1,4.5"/>
	<path class="st0" d="M41.8,49c0-2.5,1.8-4.5,4.1-4.5s4.1,2,4.1,4.5"/>
	<path class="st0" d="M27.9,40.9c0,1.3-1.1,2.8-2.3,2.8c-1.3,0-2.3-1.6-2.3-2.8s1.1-2.3,2.3-2.3C26.9,38.5,27.9,39.6,27.9,40.9z"/>
	<path class="st0" d="M48.2,40.9c0,1.3-1.1,2.8-2.3,2.8c-1.3,0-2.3-1.6-2.3-2.8s1.1-2.3,2.3-2.3C47.2,38.5,48.2,39.6,48.2,40.9z"/>
	<path class="st0" d="M48.2,27c0,1.3-1.1,2.8-2.3,2.8c-1.3,0-2.3-1.6-2.3-2.8s1.1-2.3,2.3-2.3C47.2,24.6,48.2,25.7,48.2,27z"/>
	<path class="st0" d="M21.5,35.3c0-2.5,1.8-4.5,4.1-4.5s4.1,2,4.1,4.5"/>
	<path class="st0" d="M27.9,27c0,1.3-1.1,2.8-2.3,2.8c-1.3,0-2.3-1.6-2.3-2.8s1.1-2.3,2.3-2.3C26.9,24.6,27.9,25.7,27.9,27z"/>
	<path class="st0" d="M21.5,49c0-2.5,1.8-4.5,4.1-4.5s4.1,2,4.1,4.5"/>
	<line class="st0" x1="32.9" y1="54.6" x2="32.9" y2="49.2"/>
	<line class="st0" x1="38.5" y1="54.6" x2="38.5" y2="49.2"/>
</g>
</svg>
