<svg width="59" height="50" viewBox="0 0 59 50" fill="none" xmlns="http://www.w3.org/2000/svg">
<path d="M55.1902 22.0269H53.8181V13.7828C53.8181 10.4118 51.0741 7.67957 47.7149 7.67957H46.4493L46.4611 4.61613C46.4611 2.34516 44.616 0.5 42.345 0.5H5.74932C3.01706 0.5 0.781578 2.7 0.746094 5.43226C0.746094 5.45591 0.746094 5.47957 0.746094 5.50323V45.8839C0.746094 48.1548 2.59125 50 4.86222 50H47.7267C51.0977 50 53.83 47.2559 53.83 43.8968V35.6409H55.202C56.9762 35.6409 58.4192 34.1979 58.4192 32.4237V25.2441C58.4074 23.4699 56.9644 22.0269 55.1902 22.0269ZM5.74932 3.33871H42.345C43.0429 3.33871 43.6224 3.90645 43.6224 4.6043L43.6106 7.67957H5.74932C4.5547 7.67957 3.5848 6.70968 3.5848 5.51505C3.5848 4.32043 4.5547 3.33871 5.74932 3.33871ZM50.9794 43.8849C50.9794 45.6828 49.5128 47.1495 47.7149 47.1495H4.85039C4.15255 47.1495 3.57298 46.5817 3.57298 45.872V10.0215C4.23534 10.3409 4.96867 10.5183 5.74932 10.5183H47.7149C49.5128 10.5183 50.9794 11.9849 50.9794 13.7828V22.0269H41.2923C39.5181 22.0269 38.0751 23.4699 38.0751 25.2441V32.4237C38.0751 34.1979 39.5181 35.6409 41.2923 35.6409H50.9794V43.8849ZM55.5687 32.4237C55.5687 32.6366 55.4031 32.8022 55.1902 32.8022H41.3042C41.0913 32.8022 40.9257 32.6366 40.9257 32.4237V25.2441C40.9257 25.043 41.0913 24.8656 41.3042 24.8656H55.1902C55.3913 24.8656 55.5687 25.0312 55.5687 25.2441V32.4237Z" fill="#272727"/>
</svg>
