<svg width="24" height="25" viewBox="0 0 24 25" fill="none" xmlns="http://www.w3.org/2000/svg">
<path d="M6.55625 14.8712L4.71875 12.9899C5.57917 12.1295 6.58921 11.4479 7.74887 10.9451C8.90854 10.4422 10.1589 10.1905 11.5 10.1899C12.8417 10.1899 14.0923 10.4451 15.252 10.9556C16.4117 11.466 17.4214 12.1587 18.2812 13.0337L16.4437 14.8712C15.8021 14.2295 15.0583 13.7264 14.2125 13.3618C13.3667 12.9972 12.4625 12.8149 11.5 12.8149C10.5375 12.8149 9.63333 12.9972 8.7875 13.3618C7.94167 13.7264 7.19792 14.2295 6.55625 14.8712ZM2.8375 11.1524L1 9.31494C2.34167 7.94411 3.90937 6.87223 5.70312 6.09932C7.49687 5.3264 9.42917 4.93994 11.5 4.93994C13.5708 4.93994 15.5031 5.3264 17.2969 6.09932C19.0906 6.87223 20.6583 7.94411 22 9.31494L20.1625 11.1524C19.0396 10.0295 17.7379 9.15073 16.2574 8.51607C14.7769 7.8814 13.1911 7.56436 11.5 7.56494C9.80833 7.56494 8.22225 7.88228 6.74175 8.51694C5.26125 9.15161 3.95983 10.0301 2.8375 11.1524ZM11.5 19.8149L14.5844 16.7087C14.1906 16.3149 13.7312 16.0049 13.2063 15.7786C12.6812 15.5522 12.1125 15.4394 11.5 15.4399C10.8875 15.4399 10.3188 15.5531 9.79375 15.7794C9.26875 16.0058 8.80938 16.3155 8.41563 16.7087L11.5 19.8149Z" fill="#23262B"/>
</svg>
